<svg width="260" height="47" viewBox="0 0 260 47" fill="none" xmlns="http://www.w3.org/2000/svg">
<path d="M23.9 10.76C23.9 9.56 23.54 8.42 23.06 7.34C22.64 6.44 22.1 5.66 21.5 4.88C21.14 4.4 20.78 3.92 20.36 3.5C19.94 3.14 19.46 2.78 18.98 2.36C18.92 2.36 18.86 2.3 18.8 2.3C18.44 2.18 18.14 2.12 17.84 2.06C17.6 2.06 17.36 2 17.18 2.18C17 2.3 16.76 2.24 16.58 2.18C16.4 2.12 16.28 2.06 16.1 2.18C15.86 2.3 15.56 2.48 15.26 2.54C14.78 2.6 14.36 2.9 14 3.2C13.52 3.56 13.1 3.98 12.62 4.34C12.5 4.46 12.32 4.58 12.2 4.76C11.84 5.12 11.48 5.54 11.12 5.84C10.52 6.5 9.92 7.16 9.38 7.82C8.78 8.54 8.42 9.38 7.88 10.1C7.76 10.46 7.58 10.7 7.34 10.94C6.38 12.26 5.54 13.64 4.88 15.14C4.82 15.32 4.76 15.44 4.64 15.56C4.28 16.1 3.98 16.64 3.8 17.24C3.74 17.48 3.68 17.66 3.56 17.84C3.14 18.68 2.84 19.58 2.54 20.54C2.36 21.14 2.18 21.8 1.94 22.46C1.52 23.42 1.34 24.44 1.1 25.46C1.1 25.88 0.8 26.3 0.8 26.72C0.8 27.56 0.56 28.34 0.56 29.18C0.38 29.9 0.44 30.62 0.5 31.34C0.56 31.76 0.62 32.24 0.62 32.66C0.62 33.56 0.8 34.46 1.04 35.36C1.1 35.6 1.22 35.84 1.28 36.02C1.82 37.28 2.54 38.36 3.32 39.38C3.44 39.56 3.62 39.68 3.68 39.86C3.86 40.28 4.28 40.52 4.46 40.94C4.64 41.36 5.12 41.48 5.48 41.72C5.54 41.72 5.54 41.78 5.6 41.78C5.72 42.26 6.14 42.32 6.44 42.56C6.74 42.8 7.1 43.04 7.52 43.16C7.94 43.28 8.36 43.52 8.84 43.7C8.9 43.76 9.02 43.82 9.14 43.82C9.68 43.82 10.22 43.82 10.7 44C10.7 44 10.76 44.06 10.82 44C11.3 43.88 11.84 44.12 12.32 43.82C12.38 43.76 12.56 43.76 12.68 43.76C12.92 43.76 13.16 43.76 13.4 43.76C13.52 43.7 13.7 43.64 13.76 43.52C13.82 43.4 13.94 43.34 14.06 43.34C14.36 43.28 14.6 43.22 14.9 43.1C15.2 43.04 15.56 42.86 15.74 42.56C15.8 42.44 15.92 42.38 16.04 42.38C16.34 42.26 16.52 42.08 16.76 41.9C16.88 41.78 17 41.66 17.12 41.6C17.54 41.42 17.9 41.24 18.26 41C18.5 41.06 18.62 41 18.62 40.7C18.62 40.58 18.74 40.52 18.8 40.4C18.98 40.22 19.22 40.04 19.34 39.74C19.46 39.44 19.76 39.2 20 38.96C20.48 38.54 20.96 38.12 21.44 37.64C21.62 37.28 21.92 37.1 22.22 36.8C22.52 36.5 22.64 36.02 22.94 35.72C23 35.72 23 35.66 23.06 35.66C23.36 35.36 23.48 35 23.6 34.58C23.6 34.4 23.6 34.22 23.42 34.22C23.06 34.1 22.88 33.92 22.76 33.68C22.76 33.62 22.7 33.5 22.7 33.44C22.7 33.44 22.7 33.38 22.64 33.32C22.52 33.08 22.16 32.9 22.34 32.54C22.4 32.48 22.34 32.42 22.34 32.42C22.1 32.18 22.04 31.76 21.74 31.58C21.74 31.82 21.74 32 21.68 32.24C21.68 32.3 21.62 32.36 21.62 32.42C21.56 32.48 21.38 32.42 21.32 32.3C21.26 32.24 21.2 32.18 21.2 32.12C21.14 32.06 21.08 31.94 21.02 31.94C20.9 31.82 20.72 31.76 20.54 31.82C20.48 31.82 20.42 31.88 20.42 31.94C20.42 32.24 20.24 32.42 19.88 32.48C19.64 32.48 19.34 32.54 19.1 32.54C18.68 32.96 18.32 33.38 17.9 33.74C17.84 33.86 17.72 34.04 17.6 34.1C17.18 34.28 16.82 34.58 16.52 34.88C16.4 35.06 16.28 35.18 16.1 35.3C15.2 36.02 14.36 36.8 13.34 37.4C12.98 37.7 12.56 38 12.14 38.18C11.06 38.66 9.92 39.02 8.72 39.14C8.48 39.14 8.24 39.14 8 39.14C7.7 39.08 7.4 39.08 7.16 39.02C6.5 38.84 5.84 38.6 5.3 38.24C5.06 38.06 4.82 37.88 4.76 37.58C4.58 36.92 4.34 36.2 4.4 35.48C4.46 35.18 4.46 34.82 4.4 34.52C4.4 34.1 4.4 33.74 4.4 33.32C4.46 33.08 4.46 32.84 4.46 32.6C4.4 32.24 4.46 31.82 4.46 31.4C4.46 30.98 4.7 30.56 4.52 30.14C4.82 29.18 4.7 28.16 5.12 27.2C5.12 27.14 5.12 27.08 5.12 26.96C5.18 25.94 5.54 25.04 5.78 24.08C5.9 23.48 6.14 22.94 6.26 22.34C6.62 21.26 7.04 20.18 7.46 19.04C7.76 18.14 8.18 17.24 8.6 16.34C9.08 15.2 9.68 14.18 10.28 13.16C11.24 11.54 12.38 10.1 13.64 8.78C14.42 7.94 15.32 7.28 16.28 6.68C16.88 6.32 17.54 6.08 18.26 5.9C18.44 5.9 18.68 5.9 18.86 5.96C19.4 6.08 19.76 6.44 20.12 6.86C20.18 6.98 20.3 7.1 20.3 7.28C20.36 8.48 20.36 9.62 19.88 10.7C19.82 10.94 19.76 11.18 19.7 11.42C19.4 12.08 19.46 12.74 19.76 13.34C19.88 13.76 20.06 14.18 20.24 14.6C20.3 15.2 20.72 15.74 20.84 16.4C21.2 17.18 21.5 17.48 22.52 17.42C22.88 17.36 23.12 17.12 23.18 16.82C23.3 16.34 23.42 15.86 23.54 15.44C23.66 14.6 23.84 13.76 23.9 12.92C23.9 12.2 23.9 11.48 23.9 10.76ZM23.66 32.06C23.6 31.82 23.54 31.52 23.36 31.34C22.88 30.74 22.46 30.2 22.16 29.54C22.1 29.42 21.98 29.36 21.92 29.24C21.8 29.18 21.56 29.24 21.5 29.36C21.5 29.42 21.5 29.48 21.5 29.48C21.5 29.6 21.5 29.66 21.5 29.72C21.74 30.14 21.92 30.56 22.16 31.04C22.22 31.58 22.76 31.88 22.94 32.36C23 32.48 23.12 32.6 23.18 32.72C23.24 32.78 23.36 32.84 23.42 32.9C23.48 32.96 23.54 33.08 23.6 33.08C23.66 33.14 23.78 33.14 23.78 33.08C23.84 33.02 23.9 32.96 23.9 32.9C23.84 32.6 23.72 32.36 23.66 32.06ZM21.44 31.22C21.38 31.16 21.32 31.16 21.32 31.22C21.32 31.28 21.26 31.34 21.32 31.4C21.38 31.52 21.56 31.52 21.68 31.52C21.62 31.46 21.56 31.34 21.5 31.28C21.5 31.22 21.44 31.22 21.44 31.22ZM21.68 31.52V31.58C21.74 31.58 21.74 31.58 21.74 31.58V31.52H21.68ZM23.12 32.78H23.18C23.18 32.72 23.18 32.72 23.18 32.72H23.12V32.78ZM22.88 32.9C22.94 32.9 23 32.9 23 32.9C23.06 32.84 23.06 32.78 23.12 32.78C23.06 32.78 23 32.78 22.94 32.78C22.82 32.78 22.82 32.84 22.88 32.9ZM21.32 36.62L21.38 36.68L21.32 36.74V36.62ZM31.8444 44.42C32.0244 44.48 32.2044 44.48 32.3844 44.36C32.5644 44.3 32.6844 44.24 32.8044 44.12H32.8644C32.9244 44.12 32.9244 44.06 32.9244 44.06C32.9244 44 32.8644 44 32.8644 44C32.8644 43.94 32.8644 43.94 32.8644 43.88C32.8644 43.7 32.9244 43.58 33.0444 43.46C33.2844 43.28 33.4644 43.04 33.5244 42.68C33.6444 42.2 33.8244 41.72 33.9444 41.18C34.0044 41.06 34.0044 40.94 34.1244 40.88C34.1844 40.88 34.1844 40.82 34.2444 40.76H34.3044C34.3644 40.76 34.3644 40.7 34.3644 40.7C34.3644 40.64 34.3044 40.64 34.3044 40.64C34.3044 40.52 34.3044 40.4 34.3644 40.28C34.4844 40.04 34.6044 39.8 34.6644 39.62C34.8444 39.08 35.0244 38.54 35.2044 38C35.4444 37.46 35.6844 36.92 35.8644 36.38C36.1044 35.84 36.2844 35.24 36.5244 34.7C36.6444 34.4 36.7644 34.04 36.8844 33.68C36.8844 33.56 36.9444 33.38 37.0644 33.26C37.1844 33.08 37.3644 32.9 37.5444 32.72C37.7244 32.48 37.9644 32.24 37.9044 31.88C37.9044 31.82 37.9044 31.82 37.9044 31.76C38.3244 31.52 38.3844 31.04 38.6844 30.74C38.6844 30.44 38.9244 30.26 39.1644 30.08C39.4044 29.6 39.8244 29.36 40.1244 28.94C40.2444 28.82 40.4244 28.7 40.5444 28.64C40.6644 28.52 40.9644 28.58 41.0844 28.7C41.2044 28.88 41.3244 29 41.4444 29.18C41.5044 29.3 41.5044 29.48 41.5044 29.66C41.4444 29.72 41.5644 29.78 41.6244 29.84C41.6844 29.9 41.7444 29.9 41.8044 29.66C41.8644 29.6 41.9244 29.54 41.9244 29.48C41.9844 29.42 42.1044 29.54 42.1044 29.72C42.1044 29.84 42.1044 29.96 42.1644 30.08C42.3444 30.5 42.4044 30.92 42.4044 31.34C42.4044 31.82 42.4644 32.3 42.7044 32.72C42.7644 32.9 42.8244 33.14 42.8244 33.32C42.8844 33.44 42.8844 33.62 42.8844 33.8C42.8244 34.52 42.7644 35.24 43.0644 35.9C43.1244 36.02 43.1244 36.14 43.1244 36.26C43.1244 36.68 43.3044 37.1 43.4844 37.52C43.6044 37.88 43.7844 38.24 43.9644 38.6C44.0244 38.78 44.0244 38.9 44.0844 39.08C44.0844 39.38 44.2644 39.56 44.6244 39.5C44.8044 39.5 44.9244 39.44 45.1044 39.5C45.2244 39.62 45.4044 39.68 45.6444 39.74C45.7044 39.8 45.7644 39.74 45.8244 39.68C45.8844 39.32 45.8844 38.96 45.7644 38.6C45.7644 38.48 45.7044 38.42 45.6444 38.42C45.6444 38.36 45.6444 38.3 45.6444 38.3C45.6444 38.24 45.5844 38.24 45.5844 38.24C45.5244 38.24 45.5244 38.3 45.5244 38.3C45.5244 38.36 45.5244 38.36 45.5244 38.36C45.4644 38.36 45.4044 38.36 45.3444 38.36C45.3444 38.36 45.2844 38.36 45.2244 38.36C45.1644 38.3 45.1644 38.24 45.1644 38.18C45.4644 37.82 45.5244 37.4 45.4644 36.92C45.4044 36.44 45.4044 35.9 45.4644 35.36C45.3444 34.64 45.4644 33.86 45.4044 33.14C45.4044 32.9 45.4644 32.72 45.4044 32.54C45.2244 32.18 45.2844 31.82 45.2244 31.46C45.1644 30.86 44.8644 29.48 44.6844 28.88C44.6244 28.64 44.5044 28.34 44.3244 28.16C44.2644 28.1 44.2644 28.04 44.2644 27.98C44.0244 27.44 43.6644 27.02 43.3044 26.66C42.4044 25.76 41.8644 25.4 40.7244 24.74C40.6044 24.68 40.4244 24.56 40.3044 24.56C39.9444 24.56 39.6444 24.44 39.3444 24.32C39.2844 24.32 39.1044 24.32 39.0444 24.32C38.6244 24.38 38.2644 24.56 37.9644 24.8C37.9044 24.86 37.8444 24.92 37.8444 24.98C37.7844 25.34 37.5444 25.4 37.2444 25.52C37.1244 25.58 37.1244 25.7 37.1844 25.82C37.2444 25.94 37.3644 26.06 37.4244 26.18C37.4844 26.24 37.4244 26.36 37.3644 26.36C37.0644 26.48 36.8244 26.54 36.5844 26.6C36.4644 26.6 36.4044 26.78 36.4644 26.9C36.5244 27.02 36.6444 27.14 36.8244 27.14C36.8244 27.38 36.7044 27.56 36.4044 27.62C36.3444 27.62 36.2244 27.62 36.1044 27.62C36.0444 27.74 35.9844 27.8 35.9244 27.86C35.7444 28.1 35.6844 28.4 35.5644 28.64C35.4444 28.82 35.2044 29 34.9644 29.18C34.8444 29.36 34.9044 29.6 35.1444 29.72C35.2044 29.78 35.2644 29.78 35.3844 29.78C35.3244 29.84 35.2644 29.96 35.2644 29.96C34.8444 30.02 34.6644 29.9 34.6644 29.54C34.7244 29.12 34.7844 28.7 34.9644 28.28C35.0244 28.04 35.1444 27.86 35.2044 27.62C35.2644 27.38 35.2044 27.14 35.2044 26.9C35.3244 26.18 35.6244 25.46 35.7444 24.74C35.9844 24.26 36.0444 23.78 36.1644 23.36C36.5844 22.22 36.8244 21.08 37.0644 19.88C37.2444 19.28 37.4244 18.68 37.6044 18.08C37.7244 17.78 37.8444 17.54 37.9044 17.3C38.0244 17 38.0844 16.76 38.1444 16.46C38.2044 16.04 38.3244 15.62 38.5044 15.2C38.6844 14.66 38.8644 14.06 38.6244 13.46C38.6244 13.34 38.7444 13.28 38.8044 13.22C38.9244 13.1 38.9844 12.98 39.1044 12.8C39.0444 12.56 39.2244 12.38 39.2244 12.14C39.2844 11.72 39.3444 11.36 39.5244 11C39.7044 10.16 40.0644 9.38 39.8844 8.54C40.0044 7.88 39.7044 7.34 39.4644 6.8C39.1644 6.2 38.7444 5.66 38.2644 5.18C37.9644 4.94 37.6644 4.7 37.3044 4.46C37.1244 4.34 36.8844 4.28 36.6444 4.16C36.5844 4.16 36.5244 4.16 36.4044 4.16C36.3444 4.16 36.1644 4.28 36.1644 4.34C36.1044 4.46 36.1044 4.58 36.1044 4.7C36.1644 5.48 36.0444 6.32 35.8644 7.04C35.7444 7.7 35.6844 8.36 35.4444 8.9C35.3844 9.62 35.1444 10.28 35.0244 10.94C34.8444 11.84 34.6044 12.8 34.2444 13.64C34.0644 14 34.0644 14.36 33.9444 14.72C33.8244 15.32 33.7044 15.92 33.4644 16.58C33.2244 17.42 33.1644 18.38 32.8044 19.22C32.8044 19.64 32.6844 20 32.5044 20.36C32.4444 20.48 32.4444 20.6 32.4444 20.72C32.5044 21.08 32.3844 21.44 32.2644 21.8C32.1444 22.46 31.9644 23.18 31.8444 23.9C31.7844 24.38 31.6644 24.8 31.5444 25.28C31.4844 25.58 31.4844 25.88 31.4244 26.24C31.3044 26.54 31.2444 26.9 31.1844 27.26C31.1244 27.56 31.0044 27.86 30.9444 28.16C30.8844 28.4 30.8244 28.58 30.8244 28.76C30.7644 29.42 30.7044 30.02 30.4644 30.62C30.4044 30.8 30.3444 31.04 30.3444 31.22C30.1044 32.6 29.9244 33.98 29.6844 35.36C29.6844 35.54 29.7444 35.72 29.9244 35.84C29.9844 35.84 30.0444 35.96 30.0444 36.02C30.0444 36.14 29.9844 36.2 29.9244 36.2C29.6844 36.26 29.6244 36.32 29.8644 36.5C30.0444 36.74 30.1044 37.04 29.9844 37.28H29.9244C29.9244 37.34 29.8644 37.34 29.8644 37.34C29.8044 37.4 29.7444 37.46 29.6844 37.52C29.6844 37.58 29.6844 37.58 29.6844 37.58C29.6244 37.64 29.6244 37.7 29.6244 37.82C29.6244 38 29.6844 38.18 29.7444 38.42C29.8044 38.54 29.8044 38.72 29.7444 38.84C29.6844 39.02 29.6244 39.14 29.6844 39.32C29.7444 39.86 29.6244 40.4 29.6244 41C29.6244 41.36 29.6244 41.78 29.4444 42.14C29.3844 42.32 29.3844 42.5 29.3844 42.62C29.3844 42.8 29.4444 42.86 29.6244 42.98C29.7444 43.04 29.8044 43.04 29.8644 43.1C30.3444 43.76 31.1244 44.06 31.8444 44.42ZM38.6244 25.64L38.5644 25.58H38.6244V25.64ZM36.8844 27.14L36.9444 27.02C36.9444 27.08 36.9444 27.08 36.8844 27.08C36.8844 27.08 36.8844 27.08 36.8844 27.14ZM38.7444 27.98C38.6244 27.98 38.6244 27.92 38.6844 27.86C38.6844 27.74 38.7444 27.62 38.6844 27.56C38.6844 27.5 38.6844 27.44 38.5644 27.32C38.6244 27.26 38.6844 27.2 38.8044 27.26C38.9244 27.26 38.9844 27.44 38.9844 27.5C38.9844 27.62 38.9244 27.74 38.9244 27.86C38.8644 27.98 38.8044 28.04 38.7444 27.98ZM36.1044 27.62C36.0444 27.5 36.0444 27.5 36.0444 27.56C36.0444 27.56 36.0444 27.56 36.1044 27.62ZM44.2044 28.28C44.1444 28.28 44.0844 28.28 44.0844 28.16L44.1444 28.1C44.2044 28.16 44.2044 28.22 44.2044 28.28ZM39.8844 28.28C39.8244 28.28 39.7644 28.28 39.7644 28.16L39.8244 28.1C39.8844 28.1 39.8844 28.16 39.8844 28.22V28.28ZM37.9644 28.4C37.9044 28.46 37.8444 28.4 37.8444 28.28L37.9044 28.22L37.9644 28.34V28.4ZM41.7444 29L41.6844 28.94L41.8044 28.88L41.7444 29ZM35.3844 29.78C35.4444 29.72 35.4444 29.72 35.4444 29.72C35.5044 29.72 35.5044 29.72 35.3844 29.78ZM34.6644 30.5C34.4844 30.5 34.3044 30.5 34.1244 30.44V30.38C34.2444 30.32 34.4244 30.26 34.5444 30.32C34.6044 30.32 34.6044 30.44 34.6644 30.5ZM34.8444 30.74C34.7844 30.86 34.7244 30.8 34.7244 30.68C34.6644 30.62 34.6644 30.56 34.6644 30.5C34.7244 30.56 34.7844 30.62 34.7844 30.68C34.8444 30.68 34.8444 30.74 34.8444 30.74ZM35.0244 31.4L34.9644 31.34H35.0244V31.4ZM36.3444 33.32C36.2244 33.26 36.2244 33.26 36.2844 33.2C36.3444 33.2 36.3444 33.2 36.4044 33.2V33.26L36.3444 33.32ZM36.1044 33.86C36.0444 33.8 35.9844 33.8 35.9844 33.74C35.9844 33.74 36.0444 33.74 36.0444 33.8C36.0444 33.8 36.0444 33.8 36.1044 33.86ZM36.2244 33.98C36.1644 33.92 36.1644 33.92 36.1644 33.92H36.1044L36.2244 33.98ZM29.9844 37.64C29.9244 37.64 29.9244 37.58 29.8644 37.52L29.9244 37.46C29.9844 37.46 30.0444 37.46 30.0444 37.46C30.1044 37.46 30.1644 37.52 30.1644 37.58C30.1644 37.64 30.1044 37.7 29.9844 37.64ZM59.6192 14.96C59.7992 14.9 59.9792 14.84 60.1592 14.66C60.2792 14.48 60.4592 14.24 60.6392 14.06C60.9992 13.64 61.2392 13.16 61.4192 12.68C61.5392 12.38 61.2992 11.9 60.9392 11.84C60.7592 11.78 60.5792 11.72 60.3992 11.72C60.2192 11.66 60.0392 11.6 59.9192 11.6C59.5592 11.72 59.1992 11.66 58.8392 11.78C58.7792 11.84 58.7192 11.84 58.7192 11.96C58.7192 12.08 58.6592 12.14 58.5392 12.2C58.4192 12.26 58.2992 12.32 58.2992 12.44C58.2392 12.56 58.1792 12.68 58.2392 12.8C58.2992 13.1 58.3592 13.4 58.3592 13.7C58.2992 13.76 58.1792 13.82 58.1192 13.88C57.8792 14.06 57.8792 14.3 58.1792 14.42C58.3592 14.48 58.5392 14.54 58.6592 14.66C58.7792 14.78 58.8992 14.84 59.0792 14.96C59.2592 15.08 59.4392 15.08 59.6192 14.96ZM58.4792 13.82C58.4792 13.82 58.4792 13.82 58.4192 13.76C58.4192 13.76 58.4192 13.76 58.4192 13.7C58.4792 13.7 58.5392 13.76 58.4792 13.82ZM55.8992 43.4C55.8992 43.4 55.9592 43.4 55.9592 43.34V43.28C55.9592 43.22 55.8992 43.16 55.9592 43.1V43.04C56.2592 42.26 56.3792 41.42 56.4992 40.58C56.5592 40.04 56.4992 39.44 56.0792 39.02C56.0192 38.9 55.9592 38.78 55.8992 38.72C55.7792 38.54 55.7792 38.42 55.8392 38.24C56.0792 37.64 56.3192 37.04 56.4992 36.44C56.6192 36.26 56.6792 36.08 56.6792 35.9C56.6792 35.54 56.7992 35.24 56.9792 35C57.0392 34.82 57.0992 34.7 57.0992 34.52C57.1592 34.1 57.3992 33.68 57.3992 33.26C57.4592 32.96 57.5192 32.72 57.5792 32.42C57.5792 32.18 57.6992 31.94 57.8192 31.64C57.9392 31.4 58.0592 31.04 58.0592 30.74C58.1792 30.32 58.2992 29.9 58.3592 29.48C58.5992 28.16 58.8992 26.9 59.1392 25.58C59.3192 24.86 59.3792 24.14 59.3192 23.42C59.3192 23 59.2592 22.58 59.1992 22.16C59.1392 21.98 59.0792 21.86 59.0792 21.68C58.7792 20.96 58.3592 20.36 57.9392 19.76C57.6992 19.46 57.4592 19.16 57.0992 19.1C56.9192 19.1 56.7992 18.92 56.7392 18.8C56.6792 18.68 56.6192 18.56 56.5592 18.5C56.4992 18.44 56.3792 18.44 56.3192 18.44L56.2592 18.5C55.8992 20.06 55.5992 21.56 55.2992 23.12C55.1192 23.9 54.9392 24.68 54.7592 25.46C54.7592 25.58 54.6992 25.76 54.6992 25.88C54.6392 26.18 54.6992 26.42 54.6392 26.72C54.6392 26.96 54.3992 27.2 54.3392 27.5C54.3392 27.68 54.2192 27.86 54.1592 28.04C54.1592 28.16 54.2192 28.22 54.2792 28.16C54.3992 28.16 54.4592 28.22 54.5192 28.28C54.5192 28.34 54.5192 28.4 54.5192 28.52C54.4592 28.58 54.3992 28.7 54.3392 28.82C54.0992 29 54.0992 29.18 54.2792 29.42C54.2792 29.48 54.3392 29.6 54.3392 29.66C54.3392 29.78 54.2792 29.9 54.1592 29.9C54.0992 29.9 54.0392 29.9 54.0392 29.9C54.0392 29.9 54.0392 29.84 53.9792 29.84C53.9792 29.84 53.9192 29.84 53.9192 29.9C53.9192 29.9 53.9192 29.9 53.9192 29.96C53.8592 29.96 53.8592 29.96 53.8592 30.02C53.7392 30.2 53.6792 30.38 53.5592 30.56C53.4392 30.74 53.3792 30.98 53.3792 31.22C53.3792 31.4 53.3792 31.64 53.3792 31.82C53.2592 31.94 53.1992 32.06 53.1992 32.24C53.1392 32.3 53.1392 32.36 53.1992 32.48V32.54C53.1992 32.6 53.1992 32.6 53.2592 32.6L53.3192 32.54C53.3192 32.48 53.3192 32.48 53.3192 32.48C53.4392 32.36 53.3792 32.18 53.3792 32C53.3792 31.94 53.4392 31.94 53.4992 31.88C53.5592 31.88 53.5592 31.82 53.5592 31.82V31.7C53.5592 31.64 53.5592 31.52 53.6192 31.46C53.6192 31.4 53.6792 31.4 53.6792 31.4C53.7392 31.34 53.7992 31.4 53.7992 31.46C53.8592 32 53.6792 32.48 53.4992 32.96C53.3792 33.14 53.4392 33.26 53.4392 33.44L53.3792 33.5C53.2592 33.56 53.1992 33.56 53.1992 33.44C53.1392 33.38 53.1392 33.26 53.0792 33.14C53.0792 33.08 53.0792 33.08 53.0792 33.08V33.02C53.0792 32.96 53.0192 32.96 53.0192 32.96C52.9592 32.96 52.9592 32.96 52.9592 33.02V33.08V33.14C52.9592 33.14 52.9592 33.2 52.8992 33.2C52.8392 33.38 52.7792 33.62 52.7192 33.8V33.86C52.7192 33.92 52.7192 33.92 52.7192 33.98C52.6592 34.04 52.6592 34.16 52.6592 34.22C52.6592 34.46 52.8392 34.58 53.0792 34.58C53.2592 34.52 53.3192 34.58 53.2592 34.7C53.1992 35 53.1392 35.3 53.0192 35.6H52.9592L52.8992 35.54C52.8992 35.42 52.8992 35.36 52.8392 35.3C52.8392 35.24 52.8392 35.12 52.8392 35.06C52.8392 35 52.7792 34.94 52.7792 34.94C52.7192 35 52.5992 35 52.5992 35.06C52.4192 35.3 52.4192 35.6 52.4192 35.84C52.4192 36.26 52.4192 36.26 52.7792 36.56C52.8392 36.62 52.8392 36.74 52.8392 36.8C52.7792 36.92 52.7192 36.92 52.6592 36.86C52.5992 36.86 52.5392 36.86 52.5392 36.86C52.3592 36.8 52.2392 36.86 52.2392 36.98C52.1192 37.46 52.1792 37.94 52.2392 38.42C52.2392 38.66 52.2392 38.9 52.2992 39.08C52.3592 39.38 52.4192 39.62 52.6592 39.86C52.8392 39.98 52.7192 40.28 52.8992 40.46C53.1392 40.7 53.1992 41 53.5592 41.18C53.6192 41.24 53.7392 41.36 53.7992 41.42C54.0392 41.84 54.3992 42.14 54.6392 42.56C54.6992 42.68 54.8192 42.68 54.9392 42.68C55.0592 42.62 55.2392 42.62 55.2992 42.74C55.3592 42.98 55.6592 42.92 55.7792 43.16H55.8392C55.8392 43.22 55.8392 43.22 55.8392 43.28V43.34C55.8392 43.4 55.8392 43.4 55.8992 43.4ZM53.1392 34.04C53.1392 34.04 53.0792 34.04 53.0792 33.98C53.0192 33.92 53.0792 33.92 53.1392 33.92C53.1992 33.92 53.1992 33.98 53.1992 33.98L53.1392 34.04ZM55.6592 42.56C55.5992 42.56 55.5392 42.5 55.5392 42.5C55.4792 42.44 55.3592 42.32 55.2992 42.26C55.1792 42.14 55.1792 42.08 55.3592 42.02C55.5992 41.9 55.7192 41.96 55.7192 42.2C55.7192 42.26 55.7192 42.32 55.7192 42.32L55.6592 42.56ZM85.4398 39.44H85.3798C84.7798 39.5 84.2398 39.62 83.6998 39.92C82.9798 40.22 82.2598 40.52 81.4798 40.46C80.8798 40.4 80.0398 39.8 79.9798 39.26C79.9198 38.42 79.7398 37.64 79.9198 36.86C80.0998 36.8 80.1598 36.74 80.1598 36.62C80.2798 35.3 80.6398 34.1 80.8798 32.78C80.9398 32.48 80.8798 32.18 80.9398 31.82C80.9398 31.58 81.2398 31.28 81.1198 30.98C80.9398 30.62 81.0598 30.32 81.2398 30.02C81.3598 29.84 81.3598 29.66 81.4198 29.48C81.4798 28.76 81.3598 28.16 81.0598 27.5C80.6998 26.66 80.4598 25.88 79.7998 25.22C79.7998 25.16 79.7998 25.16 79.7998 25.16C79.7398 24.98 79.6198 24.74 79.4998 24.56C79.3198 24.26 79.1398 24.26 78.9598 24.44C78.7798 24.62 78.6598 24.8 78.3598 24.8C77.8798 24.74 77.6998 24.98 77.4598 25.4C76.9798 26.18 76.3198 26.84 75.7198 27.62C75.5998 27.8 75.4198 27.98 75.2998 28.1C75.1798 28.22 75.0598 28.22 74.9998 28.16C74.9998 28.58 74.4598 28.76 74.3998 29.24C74.3998 29.3 74.2798 29.36 74.2198 29.3C73.7998 29 73.6798 29.42 73.4998 29.66C72.4198 31.04 71.3998 32.48 70.3798 33.92C70.1398 34.22 69.8998 34.52 69.5998 34.76C69.4798 34.82 69.3598 34.82 69.2398 34.7C69.1798 34.64 69.1198 34.58 69.1798 34.52C69.2998 33.98 69.4198 33.5 69.5998 32.96C69.7798 32.42 69.9598 31.88 70.1398 31.28C70.3198 30.62 70.3198 29.9 70.5598 29.24C70.7398 28.64 71.0998 28.04 71.0398 27.32C71.6998 25.34 72.1198 23.24 73.0798 21.32C73.3798 20.78 73.2598 20.36 72.8998 19.94C72.5398 19.52 72.0598 19.16 71.8798 18.62C71.8198 18.38 71.6398 18.26 71.3998 18.26C71.0398 18.2 70.7998 18.02 70.7998 17.66C70.7398 17.54 70.7398 17.36 70.6798 17.3C70.4398 17.06 70.0798 16.7 69.7798 16.82C69.2998 16.94 69.8998 17.36 69.7198 17.66L69.9598 17.72C69.8998 17.78 69.8398 17.84 69.7198 17.9V17.84V17.96V17.9C69.6598 18.02 69.5398 18.14 69.4798 18.08C68.9998 17.96 68.8798 18.2 68.7598 18.5C68.6398 18.92 68.6398 19.34 68.4598 19.64C68.0398 20.3 68.0398 20.96 67.9798 21.68C67.4998 22.34 67.3198 23.06 67.0798 23.78C67.0198 23.9 67.0798 24.02 67.1398 24.14C66.7798 24.5 66.7798 24.86 67.0198 25.28C67.1398 25.52 67.4398 25.76 67.3798 26.12H67.4398H67.3798C67.2598 26 67.1398 25.94 67.0198 25.82C66.6598 25.64 66.3598 25.76 66.3598 26.12C66.3598 26.42 66.5998 26.66 66.4198 26.96C67.0198 27.56 66.5398 28.22 66.2998 28.7C66.1198 29.06 66.1798 29.18 66.4198 29.36C66.5998 29.48 66.6598 29.6 66.4798 29.72C65.9398 30.14 65.9398 30.14 65.7598 31.1C64.9198 34.4 64.9198 34.58 64.7998 37.1C64.7998 37.16 64.7398 37.28 64.7398 37.34C64.7398 37.4 64.6798 37.52 64.7398 37.58C64.7998 37.64 64.7998 37.7 64.7398 37.76C64.6798 37.76 64.6198 37.7 64.6198 37.7C64.6198 37.64 64.6198 37.58 64.6198 37.58C64.6798 37.46 64.6798 37.4 64.6798 37.34C64.6798 37.34 64.6798 37.4 64.6198 37.4C64.3798 38 64.0798 38.54 64.7998 39.02C64.9798 39.08 64.8598 39.2 64.8598 39.32C64.7998 39.62 64.9198 39.8 65.0998 40.04C65.3998 40.46 65.7598 40.76 66.1798 41C66.4198 41.18 66.7798 41.18 66.7198 41.54C67.1998 41.9 67.6798 42.32 68.2198 42.62C68.3398 42.74 68.5798 42.8 68.7598 42.62C69.0598 42.32 69.3598 42.08 69.5998 41.78C69.8998 41.36 70.4398 41.42 70.7398 41.12C70.7998 41.06 70.7998 40.94 70.8598 40.88C71.1598 40.58 71.5198 40.34 71.6398 39.86C71.7598 39.44 72.2998 39.32 72.5398 38.9C72.8998 38.12 73.4398 37.46 73.8598 36.74C73.7998 36.38 73.9198 36.2 74.2798 36.14C74.3398 36.08 74.5198 36.08 74.5198 35.96C74.3398 35.42 74.4598 35.3 74.9998 35.48C75.0598 35.54 75.1798 35.42 75.2398 35.3C75.4198 35.12 75.5998 34.88 75.7798 34.64C76.1398 34.52 76.6198 34.46 76.6198 33.86C76.6198 33.62 76.7398 33.44 76.7998 33.26C76.8598 33.14 76.9198 33.08 77.0398 33.08C77.0998 33.14 77.1598 33.26 77.1598 33.32C77.0998 33.98 77.0998 34.64 76.9798 35.36C76.8598 36.32 77.0998 37.94 77.4598 38.9C77.5198 38.96 77.4598 39.08 77.3998 39.14C77.3398 39.14 77.2198 39.14 77.1598 39.14C77.0998 39.08 76.9798 38.96 76.9198 38.9L76.8598 38.96L76.9198 38.9C76.8598 39.14 76.7998 39.32 76.9198 39.5C77.2198 40.16 77.6998 40.7 78.2998 41.12C78.6598 41.36 79.0198 41.6 79.3798 41.84H79.4398H79.3798C79.7398 42.2 80.3398 42.2 80.5798 42.74C80.6398 42.8 80.8198 42.86 80.9998 42.74C81.2998 42.5 81.5998 42.26 82.0198 42.32V42.2L82.0798 42.26C82.1398 42.44 82.3198 42.5 82.4398 42.38C82.7398 42.26 82.9198 41.96 83.0398 41.66C83.2198 41.24 83.3398 41.24 83.8798 41.48C83.9398 41.48 83.9998 41.54 84.0598 41.6C83.9998 41.6 83.9998 41.66 83.9998 41.66C84.4798 41.54 84.5398 41.42 84.5998 40.82V40.76V40.82C85.0198 40.58 84.9598 40.1 85.2598 39.8C85.1998 39.86 85.1998 39.86 85.1998 39.86H85.2598L85.4398 39.44ZM69.7198 17.66C69.7198 17.66 69.7198 17.66 69.7198 17.72V17.66ZM69.6598 17.78C69.6598 17.78 69.7198 17.78 69.7198 17.84V17.72C69.7198 17.72 69.6598 17.72 69.6598 17.78ZM70.3198 17.96C70.3798 18.02 70.3798 18.02 70.3798 18.08L70.3198 18.14C70.1998 18.08 70.1998 18.02 70.3198 17.96ZM69.5398 19.22C69.5998 18.98 69.5998 18.68 69.7798 18.56C69.8998 18.44 70.1398 18.68 70.3798 18.56C70.6798 18.38 70.7398 18.5 70.6198 18.74C70.5598 18.86 70.5598 18.98 70.4998 19.1C70.3798 19.4 70.2598 19.16 70.1398 19.1C69.9598 18.98 69.8998 19.22 69.7798 19.28C69.7198 19.34 69.6598 19.28 69.5998 19.28C69.5398 19.28 69.5398 19.22 69.5398 19.22ZM68.2798 21.74C68.1598 21.8 68.0398 21.74 67.9798 21.68C68.0398 21.56 68.0998 21.5 68.2198 21.56C68.2798 21.56 68.3398 21.62 68.3398 21.68L68.2798 21.74ZM67.1998 24.62C67.1398 24.56 67.0798 24.5 67.0798 24.44C67.0798 24.38 67.1398 24.26 67.1398 24.14C67.1398 24.26 67.1998 24.32 67.1998 24.44C67.2598 24.5 67.1998 24.56 67.1998 24.62ZM79.7998 25.16C79.7998 25.16 79.7998 25.1 79.7998 25.16V25.16ZM79.8598 25.22L79.7998 25.16C79.8598 25.22 79.8598 25.22 79.8598 25.22ZM76.7398 27.14C76.7398 27.26 76.6798 27.26 76.6198 27.14C76.6198 27.14 76.6198 27.08 76.6798 27.08C76.6798 27.08 76.6798 27.08 76.7398 27.08V27.14ZM75.5998 27.62C75.4798 27.56 75.4198 27.62 75.5398 27.68C75.5398 27.68 75.5998 27.62 75.7198 27.62C75.6598 27.62 75.5998 27.62 75.5998 27.62ZM74.9398 28.04V28.1C74.9398 28.1 74.9398 28.1 74.9998 28.16C74.9998 28.1 74.9998 28.1 74.9998 28.1L74.9398 28.04ZM74.9398 28.1H74.8798C74.9398 28.16 74.9398 28.16 74.9398 28.1ZM75.7198 28.28H75.8398C75.8398 28.28 75.8398 28.34 75.7798 28.34H75.7198V28.28ZM73.0798 31.28H72.8998V31.22C72.9598 31.22 73.0198 31.22 73.0798 31.22V31.28ZM75.8998 34.46C75.8398 34.52 75.7798 34.58 75.7798 34.64C75.7198 34.58 75.6598 34.52 75.5998 34.46C75.5398 34.34 75.4198 34.22 75.5998 34.16C75.6598 34.1 75.8398 34.1 75.8998 34.16C76.0798 34.22 75.9598 34.34 75.8998 34.46ZM74.6998 34.94L74.7598 34.88V34.94H74.6998ZM79.1998 36.92C79.1998 36.86 79.1998 36.8 79.1998 36.8C79.3198 36.56 79.4398 36.68 79.6198 36.8C79.6798 36.8 79.7998 36.86 79.9198 36.86C79.7998 36.92 79.7398 36.98 79.6198 36.98C79.4398 37.04 79.3198 37.1 79.1998 36.92ZM73.9198 36.8L73.8598 36.68V36.74V36.68C73.8598 36.68 73.8598 36.68 73.8598 36.74L73.9198 36.8ZM85.4398 39.44C85.3798 39.38 85.3798 39.38 85.4398 39.44V39.44ZM85.2598 39.8V39.86V39.8ZM84.0598 41.6L83.9998 41.42C84.0598 41.48 84.0598 41.54 84.0598 41.6ZM83.9398 41.72H83.9998C83.9998 41.72 83.9998 41.66 83.9398 41.66L83.9998 41.72C83.9998 41.66 83.9998 41.66 83.9998 41.66C83.9998 41.66 83.9998 41.66 83.9398 41.66V41.72ZM83.7598 41.78L83.9398 41.72C83.8198 41.72 83.7598 41.66 83.7598 41.78ZM81.5398 42.8H81.6598L81.5998 42.74L81.5398 42.8ZM107.662 22.82C107.542 22.58 107.362 22.34 107.302 22.04C107.182 21.38 106.882 20.84 106.342 20.48C105.982 20.18 105.922 19.7 105.502 19.46C105.442 19.22 105.382 18.98 105.262 18.8C105.262 18.68 105.202 18.56 105.142 18.44C105.142 18.44 105.082 18.38 105.022 18.44C104.842 18.44 104.662 18.62 104.602 18.8C104.422 19.04 104.302 19.28 104.302 19.52C104.242 20.24 104.002 20.84 104.002 21.56C104.002 21.8 103.882 22.1 103.762 22.34C103.762 22.46 103.702 22.58 103.642 22.7C103.582 22.7 103.462 22.76 103.402 22.76C103.282 22.7 103.162 22.64 103.162 22.52C102.922 22.16 102.622 21.8 102.502 21.38C102.442 21.14 102.322 21.02 102.202 20.9C102.022 20.72 101.902 20.6 101.722 20.48C101.542 20.3 101.362 20.24 101.122 20.18C100.882 20.18 100.762 20 100.522 20.12C100.342 20 100.102 19.94 99.9223 19.82C99.8023 19.76 99.6823 19.76 99.5623 19.82C99.4423 19.88 99.3223 19.94 99.2623 20C99.1423 20.06 99.0223 20 98.9023 19.94C98.8423 19.88 98.7223 19.82 98.6023 19.82C98.4223 19.76 98.3023 19.82 98.1823 19.94C98.0623 20 98.0023 20.12 97.9423 20.18C97.8823 20.3 97.8223 20.3 97.7023 20.24C97.5823 20.18 97.4023 20.18 97.2823 20.3C96.6823 20.72 96.0223 21.14 95.4223 21.62C95.0623 21.92 94.7623 22.28 94.4623 22.64C94.1623 22.94 93.9823 23.3 93.7423 23.6C93.5023 23.96 93.1423 24.14 92.9623 24.5C92.8423 24.74 92.6023 24.92 92.4823 25.16C92.3023 25.4 92.1823 25.64 92.0623 25.88C92.0023 25.94 92.0023 26.06 91.9423 26.12C91.8823 26.18 91.8223 26.3 91.7023 26.36C91.3423 26.66 91.0423 27.08 90.8623 27.5C90.6823 27.92 90.3823 28.22 90.2023 28.64C89.9023 28.88 89.7823 29.18 89.6623 29.54C89.6623 29.72 89.6023 29.84 89.4823 29.96C89.1823 30.56 88.9423 31.22 88.7023 31.88C88.5223 32.48 88.4023 33.2 88.2223 33.8C88.1623 33.92 88.1623 34.04 88.2223 34.16C88.2223 34.76 88.3423 35.3 88.5823 35.78C88.7023 36.02 88.8223 36.2 88.8823 36.44C89.0023 37.16 89.4223 37.76 89.7223 38.42C89.7223 38.54 89.8423 38.6 89.9623 38.66C90.0223 38.72 90.0823 38.72 90.0823 38.78C90.1423 38.78 90.1423 38.84 90.1423 38.84C90.1423 38.9 90.1423 38.9 90.1423 38.9C90.1423 38.96 90.1423 38.96 90.1423 39.02C90.1423 39.02 90.1423 39.08 90.2023 39.08C90.2623 39.08 90.2623 39.08 90.2623 39.02C90.2623 38.96 90.2623 38.96 90.2623 38.96C90.2623 38.9 90.2623 38.84 90.2623 38.78C90.2023 38.72 90.2023 38.66 90.1423 38.6C90.1423 38.54 90.2023 38.54 90.2623 38.54C90.3223 38.48 90.4423 38.54 90.4423 38.54C90.6223 38.96 91.0423 39.2 91.1023 39.68C91.1023 39.74 91.1623 39.86 91.2223 39.86C91.5223 39.98 91.7623 40.1 92.0023 40.22C92.1223 40.28 92.2423 40.22 92.3623 40.22C92.7223 40.28 93.1423 40.34 93.5023 40.22C93.9223 40.34 94.2223 40.16 94.5223 39.98C94.8823 39.8 95.2423 39.62 95.5423 39.32C95.8423 39.08 96.1423 38.84 96.3823 38.54C96.4423 38.54 96.4423 38.48 96.4423 38.48C96.8623 38.12 97.2823 37.64 97.5823 37.16C97.7023 36.98 97.8223 36.86 98.0023 36.74C98.1223 36.56 98.3023 36.5 98.4223 36.32C98.7823 35.78 99.3223 35.42 99.7423 34.94C99.8023 34.82 99.9823 34.82 100.042 34.88C100.102 35 100.162 35.12 100.102 35.18C99.9223 35.72 99.9223 36.32 99.9823 36.86C100.042 37.52 100.102 38.18 100.222 38.9C100.222 39.08 100.282 39.26 100.342 39.44C100.642 40.04 100.882 40.64 101.182 41.18C101.242 41.36 101.362 41.54 101.482 41.72C101.842 42.08 102.202 42.44 102.562 42.86C102.622 42.92 102.802 42.86 102.862 42.8C102.982 42.62 103.042 42.44 103.042 42.2C102.922 41.24 103.042 40.22 103.042 39.26C103.042 38.78 103.282 38.42 103.222 37.94C103.222 37.82 103.282 37.64 103.342 37.46C103.402 37.28 103.522 37.1 103.582 36.92C103.822 36.44 104.182 35.6 104.242 35.24C104.242 35 104.362 34.7 104.482 34.46C104.602 34.22 104.662 33.92 104.722 33.68C104.962 32.78 105.202 31.82 105.442 30.92C105.742 29.96 106.042 29 106.402 28.1C106.702 27.26 107.002 26.42 107.182 25.58C107.302 25.1 107.422 24.56 107.602 24.08C107.662 23.96 107.722 23.78 107.722 23.6C107.782 23.36 107.782 23.06 107.662 22.82ZM101.602 27.74C101.482 27.86 101.362 27.98 101.422 28.16C101.542 28.52 101.482 28.82 101.242 29.06C101.122 29.24 101.182 29.36 101.302 29.48C101.482 29.66 101.482 29.72 101.362 29.84C101.242 30.02 101.062 30.26 100.822 30.26C100.642 30.26 100.522 30.38 100.402 30.5C100.282 30.62 100.162 30.62 100.042 30.44C99.9823 30.38 99.9823 30.32 99.9223 30.26C99.7423 30.32 99.5023 30.26 99.3823 30.44C99.1423 30.74 98.8423 30.86 98.6623 31.22C98.6023 31.34 98.4223 31.46 98.3023 31.52C97.9423 31.76 97.5223 31.94 97.1023 32.12C96.9823 32.18 96.9223 32.06 96.8023 31.94C96.7423 31.94 96.6823 31.82 96.6223 31.82C96.5623 31.82 96.5023 31.88 96.4423 31.94C96.3223 31.94 96.2623 32 96.2023 32.06C95.8423 32.66 95.1823 32.96 94.7023 33.38C94.3423 33.68 93.9823 33.86 93.5623 34.04C93.3223 34.1 93.0223 34.22 92.7823 34.34C92.7223 34.34 92.6623 34.34 92.5423 34.28C92.4823 34.28 92.4223 34.1 92.4823 33.98C92.4823 33.92 92.5423 33.86 92.5423 33.74C92.8423 33.2 93.0823 32.6 93.3823 32C93.6823 31.34 94.1023 30.74 94.5223 30.08C94.9423 29.36 95.4823 28.7 95.9623 27.98C96.2623 27.44 96.8023 27.08 97.1623 26.54C98.1823 25.7 99.2623 24.98 100.582 24.74C100.762 24.68 100.942 24.74 101.062 24.74C101.182 24.74 101.362 24.92 101.302 24.98C101.302 25.76 101.542 26.54 101.722 27.32C101.722 27.5 101.662 27.62 101.602 27.74ZM101.002 28.76L101.062 28.64L100.942 28.7L101.002 28.76ZM90.6823 29.48L90.6223 29.42H90.6823V29.48ZM100.282 30.02C100.402 29.84 100.642 29.9 100.762 29.84C100.822 29.84 100.822 29.78 100.822 29.78C100.822 29.66 100.642 29.48 100.522 29.42C100.462 29.42 100.402 29.48 100.342 29.48C100.042 29.66 99.9823 29.96 99.9223 30.2C100.042 30.14 100.222 30.08 100.282 30.02ZM99.9223 30.2C99.9223 30.26 99.9223 30.26 99.9223 30.26V30.2ZM97.8223 30.74C97.7623 30.8 97.7023 30.8 97.6423 30.86L97.7023 30.92C97.8223 30.92 97.8823 30.92 97.8823 30.86C97.8823 30.8 97.8223 30.74 97.8223 30.74ZM96.7423 32.6L96.6823 32.54C96.7423 32.48 96.8023 32.48 96.8623 32.48L96.9223 32.54C96.8623 32.54 96.8023 32.6 96.7423 32.6ZM95.9623 33.2C95.9623 33.14 95.9023 33.14 95.9023 33.08H95.9623C95.9623 33.14 95.9623 33.14 95.9623 33.2ZM118.459 46.04C118.519 46.1 118.579 46.04 118.639 45.98C118.879 45.74 118.939 45.5 118.759 45.26C118.399 44.72 118.279 44.12 118.159 43.58C118.099 43.34 118.039 43.1 117.979 42.86C117.799 41.84 117.559 40.82 117.799 39.8C117.859 39.56 117.799 39.32 117.799 39.08C117.799 38.6 117.799 38.12 117.919 37.64C117.979 37.34 117.919 37.04 117.979 36.68C118.099 36.2 118.279 35.72 118.339 35.18C118.399 34.64 118.639 34.22 118.759 33.68C118.879 33.2 118.999 32.72 119.179 32.24C119.359 31.88 119.479 31.46 119.479 31.04C119.539 30.62 119.719 30.2 119.779 29.78C119.839 29.36 120.019 28.94 120.139 28.52C120.199 28.4 120.259 28.22 120.259 28.04C120.259 27.74 120.379 27.44 120.439 27.14C120.859 25.52 121.459 23.96 121.939 22.34C122.059 21.86 122.239 21.32 122.359 20.84C122.419 20.54 122.599 20.24 122.959 20.18C123.079 20.12 123.259 20 123.319 19.94C123.499 19.76 123.679 19.58 123.559 19.28C123.499 19.22 123.559 19.16 123.619 19.1C123.799 19.04 123.919 19.04 124.099 19.1C124.219 19.1 124.339 19.1 124.399 19.04C124.579 19.04 124.699 18.86 124.759 18.8L124.819 18.74V18.68C124.759 18.68 124.699 18.68 124.699 18.68C124.639 18.74 124.579 18.8 124.519 18.86C124.279 18.8 124.159 18.68 123.919 18.62C123.979 18.5 124.039 18.44 124.099 18.38C124.339 18.32 124.399 18.14 124.399 17.9C124.639 18.08 124.879 18.14 125.179 18.08C125.479 17.96 125.839 17.9 126.139 17.84C126.259 17.78 126.259 17.72 126.259 17.66C126.259 17.54 126.259 17.48 126.319 17.42C126.139 17.3 126.139 17.3 126.319 17.18C126.379 17.06 126.499 16.94 126.619 16.82C126.739 16.76 126.859 16.76 126.979 16.82C127.099 16.88 127.219 16.76 127.399 16.7C127.639 16.58 127.759 16.4 127.819 16.16C127.879 16.04 127.759 15.98 127.639 15.98C127.459 15.92 127.219 15.92 127.039 16.04C126.919 16.1 126.799 16.16 126.619 16.22C126.499 16.34 126.439 16.28 126.319 16.16L126.259 16.1C126.259 16.04 126.199 15.98 126.079 15.92C126.139 15.86 126.139 15.8 126.139 15.74C126.199 15.62 126.139 15.5 126.019 15.5C125.719 15.5 125.419 15.56 125.239 15.86C125.119 15.98 124.879 15.98 124.759 15.86C124.699 15.8 124.579 15.62 124.459 15.56C124.159 15.26 124.159 15.2 124.339 14.9C124.399 14.84 124.399 14.78 124.459 14.72C124.519 14.72 124.519 14.72 124.519 14.66H124.579C124.699 14.54 124.759 14.54 124.819 14.48C124.999 14.48 125.119 14.48 125.299 14.48C125.299 14.48 125.299 14.48 125.359 14.48H125.479L125.539 14.42C125.539 14.36 125.479 14.36 125.479 14.36H125.299H125.239C125.119 14.36 124.999 14.3 124.939 14.36C124.819 14.36 124.759 14.36 124.519 14.54C124.459 14.54 124.459 14.54 124.399 14.48C124.219 14.48 124.099 14.3 124.099 14.18C124.099 13.82 124.219 13.52 124.279 13.22C124.819 11.3 125.239 9.26 126.019 7.4C126.079 7.1 126.079 6.8 126.019 6.56C125.959 6.26 125.899 6.02 125.839 5.72C125.719 5.42 125.599 5.12 125.539 4.82C125.359 4.16 125.059 3.68 124.519 3.26C124.279 3.02 124.039 2.84 123.859 2.6C123.739 2.54 123.559 2.6 123.499 2.66C123.499 2.78 123.379 2.9 123.379 3.02C122.899 4.4 122.419 5.84 122.059 7.34C121.939 7.7 121.879 8.06 121.759 8.36C121.339 9.62 121.159 10.94 120.559 12.14C120.439 12.38 120.379 12.68 120.319 12.92C120.199 13.34 120.079 13.76 119.959 14.24C119.839 14.9 119.479 15.5 119.179 16.1C119.059 16.28 118.939 16.4 118.699 16.4C118.459 16.34 118.219 16.34 117.979 16.34C117.679 16.52 117.439 16.34 117.199 16.28C117.019 16.22 116.899 16.22 116.719 16.22C116.299 16.16 115.879 16.22 115.399 16.22C114.979 16.22 114.559 16.22 114.079 16.22C113.659 16.22 113.239 16.22 112.759 16.28C112.219 16.28 111.679 16.28 111.139 16.16C110.239 16.04 109.279 15.98 108.379 15.8C108.259 15.8 108.019 15.92 108.019 16.04C107.899 16.58 107.719 17.06 108.019 17.6C108.079 17.78 108.079 17.96 108.079 18.14C108.079 18.38 108.199 18.56 108.379 18.68C108.499 18.74 108.559 18.92 108.559 19.1C108.619 19.28 108.619 19.46 108.739 19.64C108.799 19.94 108.979 20.12 109.219 20.3C109.699 20.54 110.179 20.72 110.719 20.72C110.959 20.72 111.199 20.78 111.439 20.84C111.679 20.96 112.039 21.02 112.339 21.02C112.639 21.02 112.999 21.02 113.299 21.02C113.659 21.02 114.019 20.84 114.379 20.9V20.96H114.439C114.439 20.96 114.499 20.96 114.499 20.9V20.84C114.499 20.84 114.499 20.84 114.559 20.78C114.619 20.78 114.619 20.72 114.679 20.66C114.739 20.72 114.799 20.78 114.859 20.84C114.919 20.96 115.099 21.02 115.279 20.96C115.579 20.84 115.879 20.78 116.179 20.78C116.599 20.78 116.959 20.78 117.319 20.54C117.379 20.54 117.439 20.6 117.439 20.6C117.499 20.6 117.559 20.6 117.559 20.66C117.799 20.9 118.039 21.2 117.919 21.62C117.859 21.86 117.859 22.16 117.799 22.4C117.559 23.24 117.259 24.02 117.079 24.86C116.959 25.04 116.899 25.28 116.899 25.52C116.899 25.7 116.899 25.94 116.839 26.12C116.659 26.54 116.719 27.02 116.479 27.5C116.419 27.62 116.479 27.8 116.419 27.98C116.359 28.52 116.359 29.12 116.119 29.72C116.059 29.84 116.059 29.96 116.059 30.02C116.059 30.44 115.999 30.86 115.819 31.22C115.699 31.64 115.819 32.12 115.579 32.48C115.459 32.72 115.459 32.96 115.579 33.2C115.699 33.44 115.579 33.68 115.519 33.92C115.459 34.16 115.519 34.34 115.519 34.58C115.579 34.88 115.639 35.18 115.639 35.42C115.459 36.68 115.519 37.88 115.519 39.14C115.519 39.32 115.519 39.56 115.579 39.74C115.639 39.98 115.639 40.28 115.699 40.52C115.759 41.12 115.879 41.66 116.119 42.14C116.179 42.26 116.179 42.38 116.179 42.5C116.119 42.74 116.119 42.86 116.299 43.04C116.479 43.16 116.479 43.28 116.479 43.46C116.539 43.64 116.479 43.82 116.479 44C116.479 44 116.479 44 116.419 44C116.299 44.06 116.239 44.18 116.299 44.3V44.36C116.299 44.36 116.299 44.36 116.299 44.42C116.299 44.42 116.299 44.48 116.359 44.48L116.419 44.42V44.36V44.3V44.24C116.419 44.18 116.419 44.18 116.419 44.12C116.479 44.12 116.479 44.12 116.479 44.12C116.539 44.06 116.539 44.06 116.539 44.06C116.599 44.06 116.599 44.12 116.659 44.12C116.959 44.36 116.959 44.36 116.839 44.78C116.779 44.9 116.779 44.96 116.899 45.02C116.959 45.08 117.079 45.14 117.199 45.2C117.199 45.08 117.319 44.96 117.439 44.9C117.559 44.84 117.739 44.9 117.799 45.02C117.799 45.14 117.859 45.32 117.919 45.44C117.979 45.74 118.159 45.92 118.399 46.04H118.459ZM126.679 14.42L126.619 14.36L126.679 14.42ZM126.799 15.68C126.799 15.68 126.859 15.68 126.859 15.62C126.859 15.62 126.859 15.62 126.859 15.56L126.679 15.62C126.739 15.62 126.739 15.62 126.799 15.68ZM125.959 16.04C125.959 16.04 125.959 16.04 126.019 16.04C126.019 15.98 126.019 15.98 126.019 15.98L125.959 16.04ZM126.319 17.18C126.319 17.18 126.319 17.18 126.319 17.12V17.18ZM126.319 17.36C126.439 17.3 126.439 17.24 126.319 17.18V17.36ZM126.319 17.42C126.319 17.42 126.319 17.42 126.319 17.36V17.42ZM114.919 37.52L114.979 37.46V37.28V37.22C114.979 37.16 114.979 37.1 114.979 36.98V36.92V36.74C114.979 36.68 114.919 36.68 114.919 36.68C114.859 36.68 114.859 36.68 114.859 36.74V37.04C114.859 37.04 114.859 37.1 114.859 37.16V37.46C114.859 37.46 114.859 37.52 114.919 37.52ZM114.919 38.54L114.979 38.42V38.3C114.979 38.18 114.979 38.12 114.979 38.06C114.979 38 114.979 38 114.979 38V37.94C114.979 37.88 114.919 37.88 114.919 37.88C114.859 37.88 114.859 37.88 114.859 37.94V38C114.859 38 114.859 38 114.859 38.06C114.859 38.12 114.859 38.12 114.859 38.18V38.42C114.859 38.42 114.859 38.48 114.919 38.48V38.54ZM115.099 39.44C115.099 39.38 115.159 39.32 115.219 39.26C115.159 39.14 115.099 39.08 115.039 38.96L114.979 38.9C114.979 38.9 114.979 38.84 114.919 38.84H114.859C114.799 38.96 114.859 38.96 114.859 39.02C114.859 39.08 114.859 39.08 114.859 39.08C114.799 39.2 114.859 39.32 114.979 39.38C114.979 39.38 115.039 39.44 115.099 39.44ZM115.639 43.04L115.699 42.98V42.92C115.699 42.86 115.699 42.86 115.699 42.8C115.639 42.62 115.519 42.44 115.459 42.26C115.459 42.2 115.399 42.2 115.399 42.2C115.339 42.2 115.339 42.2 115.339 42.26V42.32C115.339 42.56 115.399 42.74 115.519 42.92C115.519 42.92 115.519 42.92 115.579 42.98C115.579 42.98 115.579 43.04 115.639 43.04ZM117.259 45.32C117.199 45.26 117.199 45.26 117.199 45.2C117.139 45.2 117.139 45.26 117.139 45.26L117.259 45.32ZM117.319 45.32C117.259 45.32 117.259 45.32 117.259 45.32C117.259 45.32 117.259 45.32 117.319 45.32ZM129.806 42.8C129.806 42.8 129.866 42.8 129.926 42.8C130.046 42.74 130.226 42.68 130.346 42.8C130.586 42.86 130.766 42.86 130.946 42.8C131.186 42.74 131.426 42.62 131.666 42.62C131.846 42.68 132.026 42.56 132.206 42.5C132.446 42.56 132.686 42.56 132.866 42.44C132.986 42.38 133.046 42.38 133.106 42.38C133.466 42.38 133.766 42.38 134.066 42.32C134.426 42.26 134.726 42.08 135.086 42.02C135.506 41.9 135.926 41.78 136.346 41.66C136.706 41.54 137.126 41.6 137.486 41.3C137.486 41.24 137.606 41.24 137.666 41.24C138.566 41.12 139.346 40.7 140.006 40.16C140.246 40.04 140.426 39.86 140.666 39.8C141.026 39.68 141.146 39.38 141.446 39.14C141.446 38.84 141.746 38.72 141.926 38.54C142.226 38.3 142.526 38.06 142.706 37.76C143.006 37.46 143.246 37.1 143.486 36.74C143.726 36.44 143.786 36.02 143.846 35.66C143.906 35.6 143.906 35.48 143.846 35.42C143.726 35 143.546 34.64 143.366 34.22C143.306 34.04 143.126 33.92 142.886 33.92C142.706 33.92 142.466 33.86 142.346 33.74C142.166 33.5 141.866 33.44 141.746 33.2C141.626 32.9 141.386 32.78 141.146 32.66C140.546 32.36 139.946 32.06 139.346 31.76C138.746 31.28 138.026 31.16 137.426 30.74C137.246 30.62 137.006 30.56 136.826 30.38C136.526 30.2 136.166 29.96 135.806 29.84C135.266 29.54 134.786 29.24 134.306 28.82C133.766 28.34 133.286 27.8 132.866 27.26C132.626 26.9 132.446 26.54 132.206 26.12C132.026 25.64 132.206 25.34 132.506 24.98C132.506 24.92 132.566 24.92 132.626 24.92C132.986 24.8 133.226 24.44 133.586 24.26C134.006 24.02 134.426 23.78 134.846 23.6C135.086 23.42 135.386 23.3 135.686 23.18C135.986 23.06 136.346 23.06 136.586 22.94C136.886 22.82 137.186 22.82 137.426 22.7C137.846 22.64 138.266 22.46 138.686 22.4C139.106 22.4 139.586 22.4 140.006 22.4C140.306 22.4 140.666 22.46 140.906 22.58C141.086 22.7 141.266 22.64 141.386 22.52C141.506 22.4 141.626 22.34 141.746 22.22C141.806 21.74 142.046 21.32 142.046 20.84C141.986 20.36 141.926 19.94 141.566 19.52C141.506 19.46 141.446 19.46 141.386 19.4C141.206 19.16 141.026 18.98 140.726 18.92C140.546 18.86 140.306 18.68 140.066 18.62C139.886 18.56 140.006 18.38 139.946 18.26C139.526 18.2 139.166 17.9 138.686 17.84C138.626 17.84 138.506 17.78 138.506 17.78C138.266 17.9 138.086 17.72 137.906 17.78C137.726 17.9 137.546 17.84 137.306 17.78C137.306 17.78 137.186 17.84 137.186 17.9C137.126 18.02 137.126 18.14 137.126 18.26C136.886 18.2 137.006 18.02 136.886 17.96C136.886 17.9 136.826 17.9 136.826 17.84C136.766 17.84 136.766 17.84 136.706 17.78C136.646 17.72 136.586 17.72 136.526 17.84C136.406 17.9 136.346 18.14 136.166 17.96C135.986 17.84 135.866 17.72 135.686 17.9C135.566 18.02 135.386 18.08 135.266 18.14C134.966 18.14 134.666 18.14 134.426 18.2C134.366 18.2 134.246 18.26 134.186 18.32C134.066 18.5 133.886 18.62 133.646 18.62C133.466 18.62 133.286 18.62 133.166 18.68C132.746 18.92 132.326 19.04 132.086 19.46C132.086 19.52 131.966 19.52 131.906 19.58C131.726 19.58 131.546 19.7 131.426 19.82C131.006 20.3 130.346 21.08 129.926 21.5C129.866 21.5 129.866 21.5 129.806 21.5C129.806 21.62 129.806 21.68 129.806 21.74C129.746 21.86 129.686 21.92 129.566 21.86C129.146 21.74 128.966 21.8 128.966 22.16C128.966 22.4 128.786 22.58 128.786 22.82C128.546 23.42 128.546 23.96 128.666 24.56C128.726 24.92 128.786 25.34 128.906 25.7C129.026 26.06 129.326 26.18 129.386 26.54C129.386 26.9 129.506 27.44 129.446 27.8C129.386 27.86 129.446 27.86 129.446 27.92C129.626 28.28 129.806 28.64 129.926 29C129.986 29.24 130.046 29.42 130.226 29.6C130.346 29.72 130.406 29.84 130.466 30.02C130.526 30.14 130.646 30.26 130.766 30.38C131.006 30.5 131.246 30.62 131.366 30.86C131.666 30.98 131.846 31.16 131.966 31.4C132.026 31.52 132.086 31.64 132.206 31.7C132.386 31.88 132.626 31.94 132.746 32.18C132.746 32.24 132.926 32.3 132.986 32.36C133.286 32.54 133.646 32.72 133.886 32.96C134.126 33.32 134.606 33.26 134.846 33.62C134.966 33.74 135.146 33.74 135.326 33.68C135.386 33.62 135.446 33.62 135.506 33.74C135.626 34.04 135.866 34.22 136.226 34.22C136.646 34.22 137.006 34.34 137.306 34.58C137.606 34.76 137.906 34.94 138.266 35C138.326 35 138.386 35.12 138.446 35.18C138.566 35.36 138.746 35.36 138.986 35.3C139.166 35.18 139.286 35.24 139.346 35.36C139.406 35.48 139.466 35.54 139.586 35.6C139.646 35.66 139.766 35.78 139.706 35.84C139.226 36.26 138.986 36.32 138.626 36.8L138.566 36.86C138.506 36.92 138.386 36.92 138.326 36.92C138.266 36.92 138.206 36.86 138.146 36.86C137.846 36.74 137.786 36.74 137.666 36.98C137.606 37.04 137.546 37.22 137.426 37.22C137.006 37.22 136.706 37.58 136.346 37.7C136.226 37.7 136.226 37.88 136.286 37.94C136.346 38.06 136.286 38.12 136.166 38.12C135.926 38.06 135.746 38 135.506 37.94C135.386 37.94 135.266 37.94 135.146 37.94C135.026 38 134.906 38.06 134.906 38.18C134.786 38.36 134.906 38.36 135.026 38.42C135.146 38.48 135.146 38.54 135.026 38.6C134.906 38.66 134.726 38.66 134.606 38.72C134.486 38.6 134.546 38.42 134.486 38.3C134.426 38.24 134.366 38.18 134.306 38.18C134.126 38.12 133.946 38.18 133.826 38.3C133.766 38.48 133.646 38.6 133.406 38.6C133.166 38.6 132.926 38.66 132.686 38.78C132.566 38.84 132.386 38.9 132.266 38.78C132.026 38.72 131.906 38.78 131.786 39.02C131.786 39.08 131.666 39.08 131.606 39.08C131.426 39.14 131.306 39.08 131.126 39.08C131.126 39.14 131.126 39.14 131.126 39.14C131.006 39.32 130.946 39.26 130.886 39.08C130.826 39.08 130.766 39.08 130.646 39.08C130.526 39.08 129.986 39.02 129.926 39.02C129.806 38.9 129.626 38.84 129.446 38.9C129.146 38.9 128.846 38.9 128.546 39.02C128.486 39.08 128.366 39.02 128.366 38.96C128.246 38.78 128.066 38.72 127.886 38.72C127.646 38.6 127.526 38.3 127.646 38C127.826 37.64 127.826 37.7 128.006 37.34C128.066 37.16 128.066 36.92 128.066 36.74C128.066 36.68 128.006 36.62 127.946 36.5C127.886 36.32 127.166 36.32 127.106 36.5C126.986 36.8 126.686 36.98 126.566 37.22C126.446 37.58 126.086 37.64 125.966 37.94C125.846 38.12 125.606 38.12 125.486 38.24C125.306 38.42 125.126 38.66 124.946 38.84C124.706 39.08 124.646 39.32 124.886 39.56C125.006 39.68 125.126 39.86 125.246 39.98C125.306 40.04 125.366 40.16 125.306 40.22C125.186 40.46 125.366 40.58 125.486 40.7C125.666 40.88 125.666 41.06 125.546 41.24C125.546 41.36 125.606 41.42 125.726 41.48C125.846 41.48 125.966 41.54 126.086 41.54C126.266 41.6 126.326 41.54 126.386 41.42C126.386 41.18 126.446 40.94 126.446 40.7C126.506 40.64 126.686 40.52 126.746 40.52C126.926 40.58 127.046 40.58 127.226 40.7C127.286 40.76 127.286 40.82 127.226 40.88L127.166 40.94C127.046 40.94 126.986 40.94 126.926 40.88C126.806 40.82 126.746 40.82 126.686 40.88C126.686 40.94 126.626 41.06 126.686 41.12C126.806 41.36 126.866 41.6 126.926 41.9C126.986 41.96 127.166 42.08 127.346 42.02C127.526 41.96 127.646 41.96 127.766 42.08C127.826 42.32 128.006 42.38 128.186 42.38C128.366 42.44 128.546 42.44 128.666 42.5C128.726 42.5 128.726 42.5 128.726 42.5C128.726 42.5 128.666 42.5 128.666 42.62C128.666 42.68 128.666 42.8 128.726 42.8C129.086 42.74 129.446 42.68 129.806 42.8ZM129.746 21.5L129.686 21.38C129.686 21.38 129.686 21.38 129.626 21.44L129.746 21.5ZM129.806 21.56C129.806 21.5 129.806 21.5 129.806 21.5H129.746L129.806 21.56ZM139.826 36.2L139.766 36.14H139.826V36.2ZM131.126 39.08C131.126 39.02 131.066 38.96 131.006 38.96C130.946 38.96 130.886 39.02 130.886 39.08H131.126ZM127.526 41.36H127.406L127.466 41.24L127.526 41.36ZM169.723 20.84C169.483 20.48 169.363 20.12 169.183 19.76C169.123 19.46 169.003 19.22 168.823 18.98C168.643 18.8 168.523 18.56 168.403 18.26C168.283 17.9 167.983 17.72 167.683 17.54C167.503 17.48 167.443 17.48 167.383 17.66C167.143 18.38 166.903 19.04 166.663 19.76C166.483 20.42 166.123 20.96 166.123 21.62C166.123 21.74 166.003 21.92 165.943 22.04C165.763 22.4 165.583 22.82 165.643 23.18C165.643 23.54 165.463 23.84 165.463 24.14C165.403 24.38 165.283 24.56 165.163 24.8C165.043 24.98 164.983 25.16 164.983 25.34C164.923 25.64 164.743 25.88 164.563 26.06C164.383 26.18 164.263 26.36 164.203 26.54C164.083 26.72 163.963 26.96 163.783 27.08C163.543 27.32 163.303 27.56 163.243 27.86C163.243 27.98 163.123 28.1 163.003 28.16C162.823 28.28 162.763 28.4 162.703 28.64C162.703 28.82 162.643 28.88 162.403 28.82C162.163 28.76 162.043 28.88 161.863 28.94C161.863 29.18 161.863 29.36 161.803 29.6C161.743 29.9 161.503 30.08 161.263 30.26H161.203C160.963 30.2 160.783 30.26 160.663 30.44C160.543 30.56 160.423 30.68 160.303 30.74C159.943 30.86 159.703 31.16 159.643 31.52C159.583 31.52 159.583 31.58 159.583 31.58C159.523 31.58 159.463 31.58 159.463 31.52C159.343 31.46 159.283 31.4 159.163 31.46C158.863 31.76 158.623 32.18 158.263 32.42C157.483 32.84 156.823 33.44 156.103 33.98C155.503 34.46 154.843 34.88 154.183 35.36C153.763 35.66 153.343 35.84 152.863 35.9C152.743 35.9 152.623 35.78 152.623 35.66C152.743 35.06 152.923 34.52 153.103 33.98C153.223 33.68 153.343 33.44 153.343 33.14C153.403 33.02 153.403 32.84 153.463 32.72C153.823 32 154.003 31.28 154.303 30.56C154.783 29.3 155.443 28.04 156.283 26.9C156.643 26.42 157.003 25.94 157.183 25.4C157.303 25.16 157.303 24.86 157.183 24.68C157.003 24.38 157.063 23.96 156.703 23.78V23.66C156.763 23.54 156.763 23.48 156.703 23.36C156.763 23.3 156.703 23.24 156.583 23.12L156.523 23H156.463C156.403 22.94 156.403 22.88 156.403 22.88C156.223 22.64 156.043 22.46 155.803 22.52C155.563 22.52 155.443 22.52 155.323 22.28C155.263 22.22 155.143 22.1 155.023 22.04C154.903 21.98 154.723 21.98 154.603 22.1C154.543 22.16 154.483 22.22 154.423 22.28C153.823 23 153.403 23.84 152.983 24.74C152.503 25.64 152.143 26.54 151.723 27.44C151.063 28.82 150.523 30.26 150.103 31.7C149.803 32.66 149.623 33.62 149.623 34.64C149.623 35.54 149.803 36.38 150.343 37.16C150.643 37.52 150.823 37.94 151.003 38.42C151.243 39.02 151.663 39.5 152.083 39.98C152.143 40.04 152.263 40.1 152.383 40.1C152.503 40.04 152.623 40.1 152.743 40.16C153.043 40.28 153.343 40.4 153.643 40.52C153.703 40.58 153.823 40.58 153.943 40.52C154.063 40.4 154.243 40.4 154.363 40.28C154.483 40.1 154.603 40.1 154.723 40.16C155.023 40.28 155.323 40.16 155.563 40.04C155.683 40.04 155.743 39.92 155.803 39.8C155.923 39.68 155.923 39.62 155.743 39.44L155.683 39.38C155.743 39.26 155.803 39.2 155.863 39.26C156.043 39.26 156.163 39.32 156.343 39.38C156.463 39.44 156.643 39.44 156.763 39.26C157.123 38.78 157.603 38.42 157.963 37.94C158.563 37.34 159.283 36.8 159.823 36.14C160.483 35.78 160.903 35.18 161.323 34.64C161.503 34.46 161.503 34.28 161.683 34.1C161.803 33.98 162.043 33.86 162.223 33.68C162.523 33.38 162.883 33.08 163.183 32.78C163.243 32.72 163.303 32.66 163.363 32.66C163.423 32.66 163.543 32.6 163.603 32.66C163.663 32.66 163.663 32.78 163.723 32.84C163.723 32.9 163.723 32.9 163.723 32.96C163.543 33.38 163.483 33.86 163.363 34.34C163.303 34.58 163.303 34.82 163.363 35.06C163.483 35.48 163.543 35.9 163.363 36.38C163.303 36.5 163.363 36.68 163.423 36.8C163.483 37.04 163.543 37.28 163.483 37.52C163.423 38.36 163.543 39.14 163.723 39.92C163.843 40.22 163.903 40.52 164.083 40.76C164.323 41.12 164.563 41.48 164.863 41.84C164.923 41.96 165.043 42.02 165.103 42.08C165.223 42.14 165.403 42.08 165.463 42.02C165.703 41.78 165.883 41.54 165.763 41.18C165.643 40.64 165.643 40.16 165.763 39.62C165.823 39.5 165.823 39.32 165.763 39.14C165.643 38.6 165.763 38.06 165.823 37.52C165.943 37.04 166.003 36.56 166.123 36.08C166.303 35.6 166.363 35.12 166.483 34.58C166.543 34.22 166.663 33.86 166.663 33.44C166.663 33.26 166.723 33.14 166.783 32.96C166.843 32.78 167.023 32.6 166.963 32.42C166.963 32 167.143 31.7 167.263 31.4C167.383 31.04 167.503 30.62 167.623 30.26C167.683 29.9 167.743 29.54 167.863 29.18C167.923 28.76 168.223 28.4 168.283 27.98C168.463 26.84 168.823 25.82 169.243 24.74C169.423 24.2 169.543 23.6 169.723 23C169.843 22.58 169.843 22.16 169.903 21.74C169.963 21.44 169.963 21.08 169.723 20.84ZM156.463 23.18C156.523 23.18 156.523 23.18 156.523 23.18V23.24H156.463V23.18ZM161.743 28.82H161.803C161.743 28.82 161.743 28.82 161.743 28.82ZM161.803 28.82V28.88C161.803 28.88 161.803 28.88 161.803 28.94H161.863C161.863 28.94 161.863 28.94 161.863 28.88L161.803 28.82ZM203.716 5.12C203.716 5 203.596 4.88 203.476 4.82C203.416 4.76 203.356 4.76 203.356 4.76C202.876 4.52 202.876 4.46 202.996 4.04C203.056 3.92 203.056 3.86 203.056 3.8C202.816 3.5 202.636 3.2 202.636 2.78C202.636 2.78 202.636 2.72 202.576 2.72C202.396 2.54 202.216 2.42 201.976 2.42C201.856 2.42 201.736 2.48 201.616 2.54C201.436 2.78 201.316 3.08 201.136 3.32C200.896 3.56 200.716 3.86 200.536 4.1C199.996 4.82 199.516 5.54 198.916 6.2C198.136 7.16 197.356 8.06 196.456 8.96C196.216 9.2 195.976 9.44 195.736 9.74C195.736 9.8 195.676 9.92 195.616 9.92C195.376 10.04 195.196 10.16 195.016 10.34C194.896 10.58 194.656 10.76 194.476 10.94C194.296 11.42 193.936 11.66 193.576 11.84C193.096 12.08 192.736 12.38 192.496 12.8C192.376 12.98 192.196 13.1 191.956 13.28C191.716 13.4 191.536 13.58 191.296 13.7C190.996 13.88 190.936 14.18 190.756 14.36C190.696 14.42 190.636 14.48 190.576 14.48C190.336 14.6 190.276 14.72 190.216 14.96C190.216 15.14 190.216 15.32 190.036 15.5H189.976C189.916 15.5 189.856 15.44 189.856 15.38C189.916 15.32 189.976 15.2 189.976 15.08C189.976 15.02 189.916 14.96 189.856 14.9C189.796 14.9 189.736 14.9 189.736 14.9L189.376 15.26C189.136 15.38 189.076 15.56 189.196 15.8C189.256 16.04 189.196 16.16 189.076 16.4C188.896 16.7 188.656 16.82 188.296 16.76C188.236 16.76 188.176 16.76 188.056 16.76V16.94C188.056 17 187.996 17.06 187.996 17.06C187.876 17.06 187.876 17 187.936 16.88C187.936 16.82 187.996 16.82 188.056 16.76C188.056 16.64 188.056 16.58 187.996 16.52C187.936 16.34 187.816 16.28 187.636 16.34C187.576 16.34 187.456 16.4 187.456 16.46C187.336 16.64 187.096 16.76 186.916 16.88C186.436 17.06 186.016 17.24 185.596 17.48C185.416 17.54 185.236 17.6 185.116 17.78C184.996 17.96 184.756 17.96 184.696 18.2C184.636 18.26 184.576 18.32 184.516 18.32C184.216 18.26 184.096 18.5 183.856 18.56C183.736 18.62 183.436 18.5 183.376 18.38C183.316 18.26 183.316 18.14 183.256 18.02C183.256 17.72 183.316 17.36 183.376 17.06C183.676 16.1 183.796 15.02 183.976 14C184.036 13.34 184.156 12.68 184.336 12.02C184.396 11.66 184.396 11.3 184.516 10.94C184.636 10.64 184.696 10.28 184.756 9.92C184.756 9.74 184.756 9.56 184.816 9.44C185.116 8.66 185.116 7.76 185.356 6.98C185.416 6.32 185.656 5.66 185.716 5C185.776 4.7 185.776 4.46 185.716 4.16C185.536 3.56 185.236 3.08 184.876 2.6C184.696 2.36 184.576 2.12 184.336 1.94C184.036 1.7 183.736 1.4 183.436 1.16C183.136 0.919997 182.776 0.679996 182.536 0.379997C182.476 0.259998 182.356 0.199999 182.236 0.259998C182.116 0.259998 181.996 0.439999 181.996 0.619997C182.056 0.859998 182.056 1.04 182.056 1.22C182.056 1.52 182.056 1.82 181.996 2.06C181.756 3.14 181.636 4.16 181.396 5.24C181.276 5.84 181.276 6.5 180.976 7.1C180.916 7.22 180.916 7.34 180.856 7.46C180.736 8.42 180.436 9.38 180.316 10.4C180.256 10.7 180.136 11 180.136 11.3C180.136 11.66 180.016 12.02 180.016 12.38C180.076 12.62 180.016 12.86 179.956 13.1C179.836 13.28 179.776 13.52 179.776 13.76C179.716 13.88 179.776 14 179.836 14.12C179.956 14.3 179.956 14.48 179.896 14.66C179.776 14.96 179.716 15.26 179.596 15.56C179.476 15.74 179.476 15.86 179.596 16.04C179.656 16.16 179.656 16.34 179.536 16.52C179.416 16.76 179.536 17.06 179.416 17.3C179.356 17.6 179.236 17.84 179.236 18.14C179.236 18.38 179.176 18.56 179.056 18.8C178.996 18.92 178.996 19.04 179.056 19.16C179.116 19.22 179.116 19.28 179.116 19.34C179.056 19.76 179.056 20.24 178.576 20.54C178.516 20.6 178.396 20.66 178.336 20.72C178.036 21.08 177.856 21.44 177.556 21.8C177.316 22.22 176.896 22.46 176.656 22.88C176.596 22.94 176.656 23.06 176.716 23.12C176.716 23.18 176.836 23.18 176.896 23.18C176.956 23.18 177.016 23.12 177.136 23.12C177.136 23.12 177.196 23.18 177.196 23.24C177.196 23.24 177.196 23.3 177.136 23.3C176.896 23.42 176.356 23.48 175.876 23.42C175.816 23.42 175.696 23.36 175.636 23.42C175.396 23.84 175.156 24.2 175.336 24.74L175.516 25.46C175.636 26 175.816 26.54 176.056 27.02C176.296 27.38 176.476 27.8 176.656 28.22C176.776 28.64 176.956 29.06 177.196 29.54C177.256 29.66 177.256 29.84 177.256 29.96C177.256 30.26 177.256 30.56 177.136 30.8C176.956 31.16 176.956 31.58 177.076 32C177.136 32.12 177.136 32.3 177.076 32.42L176.896 33.14C176.836 33.26 176.836 33.38 176.836 33.44C176.896 33.68 176.956 33.86 176.896 34.04C176.776 34.4 176.776 34.76 176.896 35.12C176.956 35.18 176.956 35.36 176.896 35.42C176.656 35.72 176.596 36.02 176.596 36.32C176.596 37.4 176.536 38.42 176.536 39.44C176.536 39.98 176.596 40.46 176.416 41C176.356 41 176.416 41.06 176.416 41.12C176.596 41.3 176.476 41.48 176.416 41.66C176.416 41.9 176.416 41.9 176.056 41.84C175.936 41.84 175.876 41.84 175.876 41.96C175.756 42.32 175.936 42.68 175.936 42.98C175.936 43.04 175.996 43.04 176.056 43.1H176.116C176.176 43.04 176.176 42.98 176.176 42.98C176.176 42.8 176.056 42.62 176.116 42.44L176.296 42.26C176.356 42.26 176.416 42.26 176.476 42.38C176.536 42.74 176.476 43.1 176.716 43.46C176.776 43.64 176.716 43.82 176.656 44C176.536 44.18 176.596 44.3 176.716 44.42C176.896 44.48 177.016 44.6 177.196 44.48C177.316 44.48 177.376 44.42 177.496 44.54C177.796 44.66 177.916 45.02 178.336 44.96C178.336 44.96 178.456 45.08 178.456 45.14C178.516 45.2 178.516 45.26 178.516 45.38C178.576 45.56 178.756 45.68 178.936 45.74C179.116 45.86 179.356 45.74 179.356 45.56C179.416 44.84 179.476 44.12 179.416 43.4C179.356 42.98 179.356 42.62 179.356 42.2C179.296 41.78 179.416 41.42 179.476 41C179.476 40.64 179.476 40.28 179.536 39.92C179.656 39.62 179.596 39.26 179.656 38.9C179.776 38.24 179.836 37.58 179.896 36.86C179.896 36.14 180.136 35.48 180.196 34.76C180.196 34.58 180.316 34.34 180.376 34.16C180.376 34.1 180.616 34.04 180.676 34.1C180.796 34.22 180.916 34.34 180.976 34.46C182.296 35.84 182.116 35.84 183.856 37.16L184.036 37.34C184.336 37.64 184.756 37.82 185.116 38.06C185.416 38.24 185.716 38.24 186.016 38.36C186.196 38.36 186.376 38.42 186.496 38.42C187.216 38.6 188.296 38.78 188.956 38.84C189.616 38.9 190.276 38.84 190.936 38.66C191.356 38.66 191.716 38.36 192.136 38.3C192.376 38.3 192.496 38.06 192.736 38C192.916 37.88 193.096 37.76 193.276 37.7C193.636 37.64 193.936 37.46 194.176 37.22C194.356 37.04 194.596 36.92 194.836 36.86C194.896 36.8 195.016 36.74 195.076 36.62C195.256 36.38 195.436 36.2 195.616 36.02C196.096 35.6 196.456 35.18 196.576 34.52C196.576 34.28 196.816 33.98 196.816 33.74C196.876 33.44 196.816 33.08 196.756 32.78C196.756 32.48 196.756 32.24 196.696 31.94C196.636 31.7 196.516 31.52 196.216 31.46C195.976 31.34 195.736 31.46 195.616 31.64C195.436 31.76 195.376 31.94 195.256 32.12C195.196 32.24 195.076 32.3 194.956 32.24C194.836 32.24 194.716 32.18 194.596 32.24C194.356 32.36 194.176 32.42 193.936 32.54C193.336 32.84 192.796 33.2 192.196 33.56C190.816 34.46 189.376 35.06 187.696 35C186.556 35.18 185.476 34.76 184.516 34.22C183.556 33.74 182.656 33.14 181.936 32.3C181.636 31.94 181.396 31.58 181.096 31.28C180.916 31.1 180.856 30.86 180.856 30.62C180.916 30.2 180.976 29.78 181.036 29.42C181.096 28.76 181.216 28.16 181.336 27.56C181.456 27.14 181.516 26.78 181.576 26.36C181.636 25.88 181.936 25.46 182.356 25.16C182.476 25.04 182.656 24.98 182.836 24.86C183.136 24.74 183.436 24.62 183.676 24.38C183.796 24.26 184.036 24.26 184.216 24.14C184.396 23.96 184.756 24.02 184.936 23.72C185.116 23.48 185.476 23.66 185.656 23.42C186.136 23.18 186.556 22.76 187.096 22.58C187.516 22.22 187.996 21.92 188.476 21.68C189.016 21.44 189.376 21.02 189.796 20.66C189.916 20.6 190.036 20.6 190.156 20.54C190.456 20.24 190.756 20.06 191.116 19.82C192.136 18.98 193.216 18.14 194.236 17.24C194.416 17.12 194.596 16.94 194.776 16.76C194.956 16.64 195.136 16.58 195.316 16.46C195.436 16.34 195.496 16.16 195.616 15.98C195.676 15.92 195.736 15.86 195.856 15.86C196.396 15.68 196.636 15.08 197.176 14.9C197.356 14.48 197.716 14.3 198.076 14.12C198.196 14.06 198.316 14 198.376 13.94C198.736 13.52 199.216 13.22 199.516 12.68C199.576 12.62 199.636 12.5 199.756 12.44C200.416 11.96 201.016 11.36 201.556 10.76C201.736 10.58 201.856 10.46 201.856 10.22C201.916 9.98 202.276 10.04 202.396 9.8C202.576 9.5 202.936 9.2 203.116 8.84C203.176 8.66 203.356 8.48 203.236 8.18C203.236 8.12 203.296 8.06 203.296 8C203.416 7.82 203.596 7.64 203.656 7.52C203.716 7.34 203.776 7.1 203.776 6.92C203.956 6.32 203.896 5.72 203.716 5.12ZM192.436 13.58H192.316C192.316 13.58 192.316 13.52 192.316 13.46H192.436C192.496 13.46 192.556 13.52 192.436 13.58ZM191.116 14.9C191.056 14.96 190.996 14.9 190.996 14.78L191.056 14.72C191.116 14.72 191.116 14.78 191.116 14.78V14.9ZM188.656 15.74V15.68C188.596 15.68 188.596 15.68 188.596 15.8C188.596 15.74 188.596 15.74 188.656 15.74ZM188.476 15.98C188.536 15.92 188.536 15.86 188.536 15.8C188.476 15.86 188.416 15.86 188.356 15.92C188.296 15.98 188.356 15.98 188.476 15.98ZM185.956 18.08C185.956 18.08 185.896 18.14 185.896 18.08H185.836C185.896 18.02 185.956 18.02 186.016 18.02C186.016 18.08 186.016 18.08 185.956 18.08ZM176.176 39.2C176.176 39.14 176.116 39.08 175.996 39.08C175.996 39.14 175.936 39.14 175.936 39.2L175.996 39.26H176.116C176.176 39.26 176.176 39.2 176.176 39.2ZM176.116 43.7V43.88C176.116 43.94 176.176 43.94 176.176 44C176.236 43.94 176.296 43.88 176.296 43.82V43.64C176.296 43.58 176.236 43.52 176.176 43.46C176.176 43.52 176.116 43.58 176.116 43.7ZM224.03 22.82C223.91 22.58 223.73 22.34 223.67 22.04C223.55 21.38 223.25 20.84 222.71 20.48C222.35 20.18 222.29 19.7 221.87 19.46C221.81 19.22 221.75 18.98 221.63 18.8C221.63 18.68 221.57 18.56 221.51 18.44C221.51 18.44 221.45 18.38 221.39 18.44C221.21 18.44 221.03 18.62 220.97 18.8C220.79 19.04 220.67 19.28 220.67 19.52C220.61 20.24 220.37 20.84 220.37 21.56C220.37 21.8 220.25 22.1 220.13 22.34C220.13 22.46 220.07 22.58 220.01 22.7C219.95 22.7 219.83 22.76 219.77 22.76C219.65 22.7 219.53 22.64 219.53 22.52C219.29 22.16 218.99 21.8 218.87 21.38C218.81 21.14 218.69 21.02 218.57 20.9C218.39 20.72 218.27 20.6 218.09 20.48C217.91 20.3 217.73 20.24 217.49 20.18C217.25 20.18 217.13 20 216.89 20.12C216.71 20 216.47 19.94 216.29 19.82C216.17 19.76 216.05 19.76 215.93 19.82C215.81 19.88 215.69 19.94 215.63 20C215.51 20.06 215.39 20 215.27 19.94C215.21 19.88 215.09 19.82 214.97 19.82C214.79 19.76 214.67 19.82 214.55 19.94C214.43 20 214.37 20.12 214.31 20.18C214.25 20.3 214.19 20.3 214.07 20.24C213.95 20.18 213.77 20.18 213.65 20.3C213.05 20.72 212.39 21.14 211.79 21.62C211.43 21.92 211.13 22.28 210.83 22.64C210.53 22.94 210.35 23.3 210.11 23.6C209.87 23.96 209.51 24.14 209.33 24.5C209.21 24.74 208.97 24.92 208.85 25.16C208.67 25.4 208.55 25.64 208.43 25.88C208.37 25.94 208.37 26.06 208.31 26.12C208.25 26.18 208.19 26.3 208.07 26.36C207.71 26.66 207.41 27.08 207.23 27.5C207.05 27.92 206.75 28.22 206.57 28.64C206.27 28.88 206.15 29.18 206.03 29.54C206.03 29.72 205.97 29.84 205.85 29.96C205.55 30.56 205.31 31.22 205.07 31.88C204.89 32.48 204.77 33.2 204.59 33.8C204.53 33.92 204.53 34.04 204.59 34.16C204.59 34.76 204.71 35.3 204.95 35.78C205.07 36.02 205.19 36.2 205.25 36.44C205.37 37.16 205.79 37.76 206.09 38.42C206.09 38.54 206.21 38.6 206.33 38.66C206.39 38.72 206.45 38.72 206.45 38.78C206.51 38.78 206.51 38.84 206.51 38.84C206.51 38.9 206.51 38.9 206.51 38.9C206.51 38.96 206.51 38.96 206.51 39.02C206.51 39.02 206.51 39.08 206.57 39.08C206.63 39.08 206.63 39.08 206.63 39.02C206.63 38.96 206.63 38.96 206.63 38.96C206.63 38.9 206.63 38.84 206.63 38.78C206.57 38.72 206.57 38.66 206.51 38.6C206.51 38.54 206.57 38.54 206.63 38.54C206.69 38.48 206.81 38.54 206.81 38.54C206.99 38.96 207.41 39.2 207.47 39.68C207.47 39.74 207.53 39.86 207.59 39.86C207.89 39.98 208.13 40.1 208.37 40.22C208.49 40.28 208.61 40.22 208.73 40.22C209.09 40.28 209.51 40.34 209.87 40.22C210.29 40.34 210.59 40.16 210.89 39.98C211.25 39.8 211.61 39.62 211.91 39.32C212.21 39.08 212.51 38.84 212.75 38.54C212.81 38.54 212.81 38.48 212.81 38.48C213.23 38.12 213.65 37.64 213.95 37.16C214.07 36.98 214.19 36.86 214.37 36.74C214.49 36.56 214.67 36.5 214.79 36.32C215.15 35.78 215.69 35.42 216.11 34.94C216.17 34.82 216.35 34.82 216.41 34.88C216.47 35 216.53 35.12 216.47 35.18C216.29 35.72 216.29 36.32 216.35 36.86C216.41 37.52 216.47 38.18 216.59 38.9C216.59 39.08 216.65 39.26 216.71 39.44C217.01 40.04 217.25 40.64 217.55 41.18C217.61 41.36 217.73 41.54 217.85 41.72C218.21 42.08 218.57 42.44 218.93 42.86C218.99 42.92 219.17 42.86 219.23 42.8C219.35 42.62 219.41 42.44 219.41 42.2C219.29 41.24 219.41 40.22 219.41 39.26C219.41 38.78 219.65 38.42 219.59 37.94C219.59 37.82 219.65 37.64 219.71 37.46C219.77 37.28 219.89 37.1 219.95 36.92C220.19 36.44 220.55 35.6 220.61 35.24C220.61 35 220.73 34.7 220.85 34.46C220.97 34.22 221.03 33.92 221.09 33.68C221.33 32.78 221.57 31.82 221.81 30.92C222.11 29.96 222.41 29 222.77 28.1C223.07 27.26 223.37 26.42 223.55 25.58C223.67 25.1 223.79 24.56 223.97 24.08C224.03 23.96 224.09 23.78 224.09 23.6C224.15 23.36 224.15 23.06 224.03 22.82ZM217.97 27.74C217.85 27.86 217.73 27.98 217.79 28.16C217.91 28.52 217.85 28.82 217.61 29.06C217.49 29.24 217.55 29.36 217.67 29.48C217.85 29.66 217.85 29.72 217.73 29.84C217.61 30.02 217.43 30.26 217.19 30.26C217.01 30.26 216.89 30.38 216.77 30.5C216.65 30.62 216.53 30.62 216.41 30.44C216.35 30.38 216.35 30.32 216.29 30.26C216.11 30.32 215.87 30.26 215.75 30.44C215.51 30.74 215.21 30.86 215.03 31.22C214.97 31.34 214.79 31.46 214.67 31.52C214.31 31.76 213.89 31.94 213.47 32.12C213.35 32.18 213.29 32.06 213.17 31.94C213.11 31.94 213.05 31.82 212.99 31.82C212.93 31.82 212.87 31.88 212.81 31.94C212.69 31.94 212.63 32 212.57 32.06C212.21 32.66 211.55 32.96 211.07 33.38C210.71 33.68 210.35 33.86 209.93 34.04C209.69 34.1 209.39 34.22 209.15 34.34C209.09 34.34 209.03 34.34 208.91 34.28C208.85 34.28 208.79 34.1 208.85 33.98C208.85 33.92 208.91 33.86 208.91 33.74C209.21 33.2 209.45 32.6 209.75 32C210.05 31.34 210.47 30.74 210.89 30.08C211.31 29.36 211.85 28.7 212.33 27.98C212.63 27.44 213.17 27.08 213.53 26.54C214.55 25.7 215.63 24.98 216.95 24.74C217.13 24.68 217.31 24.74 217.43 24.74C217.55 24.74 217.73 24.92 217.67 24.98C217.67 25.76 217.91 26.54 218.09 27.32C218.09 27.5 218.03 27.62 217.97 27.74ZM217.37 28.76L217.43 28.64L217.31 28.7L217.37 28.76ZM207.05 29.48L206.99 29.42H207.05V29.48ZM216.65 30.02C216.77 29.84 217.01 29.9 217.13 29.84C217.19 29.84 217.19 29.78 217.19 29.78C217.19 29.66 217.01 29.48 216.89 29.42C216.83 29.42 216.77 29.48 216.71 29.48C216.41 29.66 216.35 29.96 216.29 30.2C216.41 30.14 216.59 30.08 216.65 30.02ZM216.29 30.2C216.29 30.26 216.29 30.26 216.29 30.26V30.2ZM214.19 30.74C214.13 30.8 214.07 30.8 214.01 30.86L214.07 30.92C214.19 30.92 214.25 30.92 214.25 30.86C214.25 30.8 214.19 30.74 214.19 30.74ZM213.11 32.6L213.05 32.54C213.11 32.48 213.17 32.48 213.23 32.48L213.29 32.54C213.23 32.54 213.17 32.6 213.11 32.6ZM212.33 33.2C212.33 33.14 212.27 33.14 212.27 33.08H212.33C212.33 33.14 212.33 33.14 212.33 33.2ZM234.826 46.04C234.886 46.1 234.946 46.04 235.006 45.98C235.246 45.74 235.306 45.5 235.126 45.26C234.766 44.72 234.646 44.12 234.526 43.58C234.466 43.34 234.406 43.1 234.346 42.86C234.166 41.84 233.926 40.82 234.166 39.8C234.226 39.56 234.166 39.32 234.166 39.08C234.166 38.6 234.166 38.12 234.286 37.64C234.346 37.34 234.286 37.04 234.346 36.68C234.466 36.2 234.646 35.72 234.706 35.18C234.766 34.64 235.006 34.22 235.126 33.68C235.246 33.2 235.366 32.72 235.546 32.24C235.726 31.88 235.846 31.46 235.846 31.04C235.906 30.62 236.086 30.2 236.146 29.78C236.206 29.36 236.386 28.94 236.506 28.52C236.566 28.4 236.626 28.22 236.626 28.04C236.626 27.74 236.746 27.44 236.806 27.14C237.226 25.52 237.826 23.96 238.306 22.34C238.426 21.86 238.606 21.32 238.726 20.84C238.786 20.54 238.966 20.24 239.326 20.18C239.446 20.12 239.626 20 239.686 19.94C239.866 19.76 240.046 19.58 239.926 19.28C239.866 19.22 239.926 19.16 239.986 19.1C240.166 19.04 240.286 19.04 240.466 19.1C240.586 19.1 240.706 19.1 240.766 19.04C240.946 19.04 241.066 18.86 241.126 18.8L241.186 18.74V18.68C241.126 18.68 241.066 18.68 241.066 18.68C241.006 18.74 240.946 18.8 240.886 18.86C240.646 18.8 240.526 18.68 240.286 18.62C240.346 18.5 240.406 18.44 240.466 18.38C240.706 18.32 240.766 18.14 240.766 17.9C241.006 18.08 241.246 18.14 241.546 18.08C241.846 17.96 242.206 17.9 242.506 17.84C242.626 17.78 242.626 17.72 242.626 17.66C242.626 17.54 242.626 17.48 242.686 17.42C242.506 17.3 242.506 17.3 242.686 17.18C242.746 17.06 242.866 16.94 242.986 16.82C243.106 16.76 243.226 16.76 243.346 16.82C243.466 16.88 243.586 16.76 243.766 16.7C244.006 16.58 244.126 16.4 244.186 16.16C244.246 16.04 244.126 15.98 244.006 15.98C243.826 15.92 243.586 15.92 243.406 16.04C243.286 16.1 243.166 16.16 242.986 16.22C242.866 16.34 242.806 16.28 242.686 16.16L242.626 16.1C242.626 16.04 242.566 15.98 242.446 15.92C242.506 15.86 242.506 15.8 242.506 15.74C242.566 15.62 242.506 15.5 242.386 15.5C242.086 15.5 241.786 15.56 241.606 15.86C241.486 15.98 241.246 15.98 241.126 15.86C241.066 15.8 240.946 15.62 240.826 15.56C240.526 15.26 240.526 15.2 240.706 14.9C240.766 14.84 240.766 14.78 240.826 14.72C240.886 14.72 240.886 14.72 240.886 14.66H240.946C241.066 14.54 241.126 14.54 241.186 14.48C241.366 14.48 241.486 14.48 241.666 14.48C241.666 14.48 241.666 14.48 241.726 14.48H241.846L241.906 14.42C241.906 14.36 241.846 14.36 241.846 14.36H241.666H241.606C241.486 14.36 241.366 14.3 241.306 14.36C241.186 14.36 241.126 14.36 240.886 14.54C240.826 14.54 240.826 14.54 240.766 14.48C240.586 14.48 240.466 14.3 240.466 14.18C240.466 13.82 240.586 13.52 240.646 13.22C241.186 11.3 241.606 9.26 242.386 7.4C242.446 7.1 242.446 6.8 242.386 6.56C242.326 6.26 242.266 6.02 242.206 5.72C242.086 5.42 241.966 5.12 241.906 4.82C241.726 4.16 241.426 3.68 240.886 3.26C240.646 3.02 240.406 2.84 240.226 2.6C240.106 2.54 239.926 2.6 239.866 2.66C239.866 2.78 239.746 2.9 239.746 3.02C239.266 4.4 238.786 5.84 238.426 7.34C238.306 7.7 238.246 8.06 238.126 8.36C237.706 9.62 237.526 10.94 236.926 12.14C236.806 12.38 236.746 12.68 236.686 12.92C236.566 13.34 236.446 13.76 236.326 14.24C236.206 14.9 235.846 15.5 235.546 16.1C235.426 16.28 235.306 16.4 235.066 16.4C234.826 16.34 234.586 16.34 234.346 16.34C234.046 16.52 233.806 16.34 233.566 16.28C233.386 16.22 233.266 16.22 233.086 16.22C232.666 16.16 232.246 16.22 231.766 16.22C231.346 16.22 230.926 16.22 230.446 16.22C230.026 16.22 229.606 16.22 229.126 16.28C228.586 16.28 228.046 16.28 227.506 16.16C226.606 16.04 225.646 15.98 224.746 15.8C224.626 15.8 224.386 15.92 224.386 16.04C224.266 16.58 224.086 17.06 224.386 17.6C224.446 17.78 224.446 17.96 224.446 18.14C224.446 18.38 224.566 18.56 224.746 18.68C224.866 18.74 224.926 18.92 224.926 19.1C224.986 19.28 224.986 19.46 225.106 19.64C225.166 19.94 225.346 20.12 225.586 20.3C226.066 20.54 226.546 20.72 227.086 20.72C227.326 20.72 227.566 20.78 227.806 20.84C228.046 20.96 228.406 21.02 228.706 21.02C229.006 21.02 229.366 21.02 229.666 21.02C230.026 21.02 230.386 20.84 230.746 20.9V20.96H230.806C230.806 20.96 230.866 20.96 230.866 20.9V20.84C230.866 20.84 230.866 20.84 230.926 20.78C230.986 20.78 230.986 20.72 231.046 20.66C231.106 20.72 231.166 20.78 231.226 20.84C231.286 20.96 231.466 21.02 231.646 20.96C231.946 20.84 232.246 20.78 232.546 20.78C232.966 20.78 233.326 20.78 233.686 20.54C233.746 20.54 233.806 20.6 233.806 20.6C233.866 20.6 233.926 20.6 233.926 20.66C234.166 20.9 234.406 21.2 234.286 21.62C234.226 21.86 234.226 22.16 234.166 22.4C233.926 23.24 233.626 24.02 233.446 24.86C233.326 25.04 233.266 25.28 233.266 25.52C233.266 25.7 233.266 25.94 233.206 26.12C233.026 26.54 233.086 27.02 232.846 27.5C232.786 27.62 232.846 27.8 232.786 27.98C232.726 28.52 232.726 29.12 232.486 29.72C232.426 29.84 232.426 29.96 232.426 30.02C232.426 30.44 232.366 30.86 232.186 31.22C232.066 31.64 232.186 32.12 231.946 32.48C231.826 32.72 231.826 32.96 231.946 33.2C232.066 33.44 231.946 33.68 231.886 33.92C231.826 34.16 231.886 34.34 231.886 34.58C231.946 34.88 232.006 35.18 232.006 35.42C231.826 36.68 231.886 37.88 231.886 39.14C231.886 39.32 231.886 39.56 231.946 39.74C232.006 39.98 232.006 40.28 232.066 40.52C232.126 41.12 232.246 41.66 232.486 42.14C232.546 42.26 232.546 42.38 232.546 42.5C232.486 42.74 232.486 42.86 232.666 43.04C232.846 43.16 232.846 43.28 232.846 43.46C232.906 43.64 232.846 43.82 232.846 44C232.846 44 232.846 44 232.786 44C232.666 44.06 232.606 44.18 232.666 44.3V44.36C232.666 44.36 232.666 44.36 232.666 44.42C232.666 44.42 232.666 44.48 232.726 44.48L232.786 44.42V44.36V44.3V44.24C232.786 44.18 232.786 44.18 232.786 44.12C232.846 44.12 232.846 44.12 232.846 44.12C232.906 44.06 232.906 44.06 232.906 44.06C232.966 44.06 232.966 44.12 233.026 44.12C233.326 44.36 233.326 44.36 233.206 44.78C233.146 44.9 233.146 44.96 233.266 45.02C233.326 45.08 233.446 45.14 233.566 45.2C233.566 45.08 233.686 44.96 233.806 44.9C233.926 44.84 234.106 44.9 234.166 45.02C234.166 45.14 234.226 45.32 234.286 45.44C234.346 45.74 234.526 45.92 234.766 46.04H234.826ZM243.046 14.42L242.986 14.36L243.046 14.42ZM243.166 15.68C243.166 15.68 243.226 15.68 243.226 15.62C243.226 15.62 243.226 15.62 243.226 15.56L243.046 15.62C243.106 15.62 243.106 15.62 243.166 15.68ZM242.326 16.04C242.326 16.04 242.326 16.04 242.386 16.04C242.386 15.98 242.386 15.98 242.386 15.98L242.326 16.04ZM242.686 17.18C242.686 17.18 242.686 17.18 242.686 17.12V17.18ZM242.686 17.36C242.806 17.3 242.806 17.24 242.686 17.18V17.36ZM242.686 17.42C242.686 17.42 242.686 17.42 242.686 17.36V17.42ZM231.286 37.52L231.346 37.46V37.28V37.22C231.346 37.16 231.346 37.1 231.346 36.98V36.92V36.74C231.346 36.68 231.286 36.68 231.286 36.68C231.226 36.68 231.226 36.68 231.226 36.74V37.04C231.226 37.04 231.226 37.1 231.226 37.16V37.46C231.226 37.46 231.226 37.52 231.286 37.52ZM231.286 38.54L231.346 38.42V38.3C231.346 38.18 231.346 38.12 231.346 38.06C231.346 38 231.346 38 231.346 38V37.94C231.346 37.88 231.286 37.88 231.286 37.88C231.226 37.88 231.226 37.88 231.226 37.94V38C231.226 38 231.226 38 231.226 38.06C231.226 38.12 231.226 38.12 231.226 38.18V38.42C231.226 38.42 231.226 38.48 231.286 38.48V38.54ZM231.466 39.44C231.466 39.38 231.526 39.32 231.586 39.26C231.526 39.14 231.466 39.08 231.406 38.96L231.346 38.9C231.346 38.9 231.346 38.84 231.286 38.84H231.226C231.166 38.96 231.226 38.96 231.226 39.02C231.226 39.08 231.226 39.08 231.226 39.08C231.166 39.2 231.226 39.32 231.346 39.38C231.346 39.38 231.406 39.44 231.466 39.44ZM232.006 43.04L232.066 42.98V42.92C232.066 42.86 232.066 42.86 232.066 42.8C232.006 42.62 231.886 42.44 231.826 42.26C231.826 42.2 231.766 42.2 231.766 42.2C231.706 42.2 231.706 42.2 231.706 42.26V42.32C231.706 42.56 231.766 42.74 231.886 42.92C231.886 42.92 231.886 42.92 231.946 42.98C231.946 42.98 231.946 43.04 232.006 43.04ZM233.626 45.32C233.566 45.26 233.566 45.26 233.566 45.2C233.506 45.2 233.506 45.26 233.506 45.26L233.626 45.32ZM233.686 45.32C233.626 45.32 233.626 45.32 233.626 45.32C233.626 45.32 233.626 45.32 233.686 45.32ZM249.773 42.56C250.073 42.5 250.373 42.5 250.673 42.38C250.793 42.38 250.793 42.14 250.973 42.2C251.573 42.26 252.113 41.96 252.533 41.48C252.713 41.3 252.953 41.12 253.133 40.94C253.493 40.7 253.793 40.4 254.093 40.04C254.693 39.38 255.233 38.66 255.653 37.94C255.893 37.64 256.073 37.34 256.193 36.98C256.553 36.5 256.853 35.96 257.093 35.42C257.753 34.46 258.053 33.38 258.413 32.24C258.473 31.94 258.593 31.64 258.653 31.34C258.773 30.68 258.833 30.08 258.953 29.42C259.133 28.82 258.953 28.16 259.013 27.5C258.833 26.9 258.893 26.18 258.653 25.52C258.473 24.98 258.293 24.38 258.173 23.78C258.053 23.3 257.873 22.82 257.633 22.34C257.453 22.1 257.273 21.86 257.213 21.5C257.153 21.44 257.093 21.32 256.973 21.2C256.853 20.96 256.673 20.78 256.493 20.54C256.253 20.24 256.013 19.94 255.773 19.58C255.413 19.4 255.173 18.98 254.813 18.68C254.753 18.62 254.633 18.56 254.513 18.5C254.153 18.74 253.973 18.2 253.673 18.26C253.493 18.26 253.313 18.2 253.193 18.14C252.833 17.96 252.413 18.02 252.053 18.08C251.513 18.26 250.973 18.38 250.553 18.8C250.433 18.92 250.253 18.98 250.133 19.1C249.893 19.34 249.533 19.46 249.413 19.88C249.353 20 249.173 20.06 249.053 20.18C248.993 20.24 248.873 20.36 248.873 20.48C248.813 20.78 248.633 20.96 248.393 21.14C248.273 21.26 248.213 21.44 248.213 21.68C248.273 21.8 248.213 21.92 248.153 21.98C247.973 22.04 247.913 22.16 247.793 22.34C247.613 22.76 247.373 23.12 247.253 23.54C247.133 24.08 246.953 24.62 246.593 25.04C246.533 25.4 246.353 25.64 246.053 25.82C245.753 26.06 245.693 26.42 245.513 26.72C245.573 26.84 245.633 26.96 245.693 27.08C245.753 27.14 245.633 27.26 245.513 27.26C245.273 27.2 245.093 27.26 244.973 27.44C244.733 27.92 244.493 28.34 244.253 28.82C244.073 29.18 244.013 29.48 244.073 29.84C244.073 30.2 244.013 30.5 243.893 30.8C243.773 30.98 243.653 31.16 243.653 31.34C243.533 32.18 243.293 32.96 243.353 33.86C243.293 34.88 243.533 35.9 243.833 36.86C244.013 37.34 244.193 37.76 244.553 38.12C244.733 38.42 244.973 38.72 245.153 39.02C245.393 39.26 245.693 39.56 245.813 39.86C245.993 40.22 246.353 40.34 246.533 40.64C246.773 41 247.073 41.24 247.433 41.42C247.673 41.54 247.853 41.78 248.033 42.02C248.093 42.08 248.213 42.14 248.333 42.2C248.513 42.26 248.693 42.38 248.873 42.32C249.173 42.32 249.353 42.44 249.533 42.56C249.593 42.56 249.713 42.62 249.773 42.56ZM248.153 37.94C248.033 37.94 247.973 37.94 247.913 37.94C247.673 37.88 247.433 37.7 247.373 37.46C247.313 37.22 247.313 36.92 247.253 36.62C247.253 36.2 247.373 35.78 247.313 35.36C247.313 34.88 247.373 34.46 247.553 34.04C247.613 33.92 247.613 33.8 247.613 33.68C247.733 32.78 248.033 31.94 248.513 31.1C248.813 30.5 248.993 29.78 249.233 29.12C249.293 29 249.293 28.88 249.293 28.76C249.293 28.52 249.293 28.28 249.293 28.04C249.233 27.44 249.473 26.96 249.893 26.54C250.073 26.3 250.373 26.12 250.493 25.82C250.733 25.22 251.273 24.8 251.693 24.32C252.173 23.78 252.773 23.42 253.433 23.12C253.913 22.94 254.453 22.82 254.933 22.82C255.233 22.82 255.473 22.94 255.653 23.18C255.773 23.36 255.833 23.54 255.953 23.72C256.013 23.9 256.073 24.02 256.073 24.2C256.013 24.8 256.013 25.4 256.013 26C256.073 26.78 256.013 27.56 255.713 28.34C255.653 28.4 255.653 28.46 255.713 28.52C255.773 28.82 255.653 29 255.473 29.18C255.353 29.36 255.353 29.54 255.293 29.66C255.293 29.66 255.293 29.66 255.293 29.72C255.173 29.78 255.113 29.84 255.113 29.9C255.113 29.96 255.113 29.96 255.113 29.96C254.753 31.1 254.093 32.06 253.493 33.02C253.133 33.56 252.773 34.1 252.413 34.64C251.813 35.42 251.273 36.14 250.553 36.8C250.133 37.22 249.593 37.52 249.053 37.76C248.753 37.94 248.453 37.94 248.153 37.94ZM256.853 28.34C256.793 28.4 256.793 28.34 256.793 28.22C256.793 28.22 256.853 28.22 256.853 28.16L256.913 28.28C256.913 28.28 256.913 28.34 256.853 28.34ZM255.413 29.84C255.353 29.84 255.353 29.84 255.353 29.84V29.78L255.413 29.84Z" fill="white"/>
</svg>
