<svg width="64" height="52" viewBox="0 0 64 52" fill="none" xmlns="http://www.w3.org/2000/svg">
<path d="M3.848 51C4.208 51 4.568 50.928 4.928 51C6.224 51.072 7.448 50.784 8.672 50.568C10.616 50.136 12.56 49.488 14.504 48.984C14.792 48.912 15.008 48.84 15.296 48.696C16.808 48.192 18.248 47.544 19.688 46.968C20.192 46.752 20.768 46.464 21.272 46.176C22.424 45.384 23.648 44.592 24.8 43.8C25.232 43.512 25.592 43.224 25.88 42.864C26.312 42.288 26.816 41.712 27.176 41.136C27.536 40.632 27.68 39.984 27.896 39.408C27.896 39.192 28.04 39.048 28.112 38.832C28.472 37.824 28.76 36.744 28.976 35.736C29.12 35.304 29.12 34.872 29.12 34.44C28.976 33.504 28.904 32.568 28.328 31.848C28.328 31.776 28.256 31.632 28.256 31.56C28.04 31.128 27.752 30.768 27.392 30.408C26.24 29.328 24.944 28.536 23.648 27.816C22.856 27.312 22.064 27.024 21.344 26.592C20.552 26.088 19.688 25.8 18.896 25.44C18.32 25.152 17.816 24.864 17.168 24.648C16.736 24.36 16.16 24.144 15.656 23.856C15.008 23.496 14.288 23.424 13.784 22.92C12.056 22.056 10.4 21.12 8.744 20.112C7.952 19.608 7.16 19.032 6.44 18.384C5.504 17.52 4.712 16.512 4.064 15.36C3.848 14.928 3.776 14.568 4.064 14.136C4.424 13.344 4.928 12.624 5.576 12.048C6.368 11.328 7.232 10.608 8.168 10.032C9.608 9.168 11.12 8.448 12.704 7.8C13.64 7.44 14.576 7.152 15.512 6.792C15.584 6.792 15.728 6.72 15.8 6.72C16.232 6.72 16.664 6.576 17.024 6.432L18.32 6.216C19.112 6.144 19.904 6 20.768 5.928C22.28 5.712 23.792 6 25.304 6.432C25.664 6.504 26.024 6.72 26.24 7.008C26.384 7.152 26.528 7.296 26.528 7.512C26.672 7.944 26.744 8.304 26.888 8.736C26.888 8.88 27.032 8.952 27.176 9.024C27.824 9.312 28.112 9.24 28.4 8.52C28.616 8.16 28.832 7.8 28.904 7.368C28.976 6.864 29.048 6.432 29.12 5.928C29.12 5.568 29.048 5.208 28.976 4.848V4.416C28.976 3.696 28.688 3.048 28.4 2.472C28.184 1.968 27.752 1.536 27.176 1.32L26.312 0.887997C25.952 0.671996 25.52 0.599997 25.16 0.599997H24.008C23.648 0.599997 23.36 0.671996 23 0.671996C21.776 0.527997 20.624 0.959996 19.472 0.959996C19.328 0.959996 19.184 1.032 19.04 1.104C18.464 1.32 17.816 1.392 17.24 1.608C16.664 1.824 16.016 1.896 15.44 2.04C15.008 2.256 14.504 2.328 14.072 2.472C12.92 2.76 11.84 3.264 10.688 3.696C10.328 3.912 9.896 3.984 9.536 4.2C8.96 4.56 8.312 4.92 7.592 5.136C7.16 5.28 6.728 5.568 6.296 5.712C5.576 5.928 5 6.36 4.424 6.792C4.136 7.008 3.848 7.296 3.488 7.44C3.272 7.584 3.056 7.8 2.912 8.088C2.192 9.024 1.976 9.384 1.616 10.608C1.4 11.544 1.04 12.408 1.112 13.416C0.968 13.776 1.112 14.136 0.896 14.496C0.752 14.64 0.752 14.856 0.752 15.072V15.864C1.04 16.44 0.896 17.16 1.184 17.664C1.4 18.024 1.472 18.528 1.616 18.888C1.832 19.32 2.12 19.752 2.336 20.112C2.408 20.184 2.408 20.184 2.408 20.256C2.48 20.472 2.624 20.616 2.768 20.688C3.056 20.976 3.2 21.48 3.488 21.768C3.776 22.128 4.136 22.488 4.496 22.776C4.496 22.848 4.568 22.848 4.568 22.92C4.712 23.424 5.216 23.712 5.504 24.144C5.576 24.288 5.72 24.432 5.792 24.432C6.368 24.576 6.656 25.08 7.016 25.368C7.664 25.944 7.808 26.016 9.104 26.592C9.248 26.664 9.392 26.736 9.464 26.808C9.68 27.024 9.824 27.096 10.112 27.168C10.4 27.168 10.616 27.384 10.832 27.6C11.192 27.96 11.696 28.104 12.056 28.536C12.704 28.536 13.136 28.968 13.64 29.184C13.856 29.4 14.072 29.472 14.36 29.616C14.648 29.472 14.792 29.616 15.008 29.76C15.296 30.048 15.656 30.336 16.088 30.48C16.808 30.84 17.672 31.056 18.392 31.632C18.392 31.632 18.464 31.632 18.536 31.704C19.04 31.848 19.544 32.136 20.048 32.424C20.336 32.64 20.624 32.784 20.912 32.856C21.416 33.072 21.776 33.288 22.208 33.576C22.712 33.936 23.288 34.296 23.864 34.584C24.008 34.656 24.152 34.728 24.224 34.872C24.44 35.16 24.656 35.376 24.8 35.664C24.872 35.808 24.872 35.952 24.8 36.096C24.656 36.384 24.512 36.6 24.296 36.816C24.008 37.032 23.72 37.32 23.504 37.608C23.216 37.968 22.928 38.328 22.856 38.76C22.784 38.976 22.712 39.12 22.496 39.336C21.632 39.984 20.624 40.488 19.688 41.064C19.4 41.28 18.968 41.352 18.608 41.496L17.744 41.928C17.024 42.288 16.232 42.576 15.44 42.864C14.936 43.008 14.36 43.152 13.856 43.44C13.568 43.584 13.208 43.512 12.92 43.728C12.632 43.944 12.272 43.728 11.912 43.8C11.264 44.016 10.616 44.088 9.968 44.232C9.68 44.232 9.536 44.376 9.32 44.52C9.248 44.592 9.032 44.664 8.96 44.592C8.384 44.52 7.88 44.664 7.376 44.736C6.8 44.736 6.224 44.664 5.648 44.952H5.36C4.856 44.736 4.352 44.808 3.848 44.664C3.704 44.664 3.632 44.448 3.632 44.304C3.776 44.088 3.92 43.872 4.064 43.728L5.792 41.784C6.656 40.848 7.016 40.128 7.448 38.976C7.52 38.76 7.304 38.112 7.16 37.896C7.016 37.752 6.728 37.752 6.584 37.824C6.296 38.04 5.936 38.184 5.72 38.472C5.648 38.544 5.72 38.616 5.72 38.616C5.648 38.832 5.576 38.904 5.432 38.904C5.216 38.904 5 38.76 4.784 38.832C4.424 38.904 3.992 38.976 3.776 39.336C3.704 39.408 3.56 39.552 3.416 39.552C2.768 39.84 2.264 40.344 1.688 40.776C1.328 40.992 1.112 41.424 1.184 41.856C1.184 42.144 1.04 42.288 0.824 42.36C0.608 42.432 0.464 42.576 0.464 42.792C0.392 42.936 0.32 43.08 0.248 43.152C-0.0399998 43.728 0.0320001 44.304 0.176 44.808C0.248 45.024 0.32 45.168 0.32 45.384C0.176 45.744 0.392 46.176 0.176 46.536C0.104 46.608 0.104 46.68 0.104 46.752C0.176 47.616 0.248 48.408 0.464 49.2C0.536 49.416 0.68 49.632 0.824 49.776C1.184 50.136 1.616 50.496 2.12 50.64C2.696 50.856 3.2 51 3.848 51ZM13.64 29.112C13.64 29.04 13.712 28.968 13.784 29.04V29.112H13.64ZM63.3706 11.112C63.3706 9.672 62.9386 8.304 62.3626 7.008C61.8586 5.928 61.2106 4.992 60.4906 4.056C60.0586 3.48 59.6266 2.904 59.1226 2.4C58.6186 1.968 58.0426 1.536 57.4666 1.032C57.3946 1.032 57.3226 0.959996 57.2506 0.959996C56.8186 0.815998 56.4586 0.743999 56.0986 0.671996C55.8106 0.671996 55.5226 0.599997 55.3066 0.815998C55.0906 0.959996 54.8026 0.887997 54.5866 0.815998C54.3706 0.743999 54.2266 0.671996 54.0106 0.815998C53.7226 0.959996 53.3626 1.176 53.0026 1.248C52.4266 1.32 51.9226 1.68 51.4906 2.04C50.9146 2.472 50.4106 2.976 49.8346 3.408C49.6906 3.552 49.4746 3.696 49.3306 3.912C48.8986 4.344 48.4666 4.848 48.0346 5.208C47.3146 6 46.5946 6.792 45.9466 7.584C45.2266 8.448 44.7946 9.456 44.1466 10.32C44.0026 10.752 43.7866 11.04 43.4986 11.328C42.3466 12.912 41.3386 14.568 40.5466 16.368C40.4746 16.584 40.4026 16.728 40.2586 16.872C39.8266 17.52 39.4666 18.168 39.2506 18.888C39.1786 19.176 39.1066 19.392 38.9626 19.608C38.4586 20.616 38.0986 21.696 37.7386 22.848C37.5226 23.568 37.3066 24.36 37.0186 25.152C36.5146 26.304 36.2986 27.528 36.0106 28.752C36.0106 29.256 35.6506 29.76 35.6506 30.264C35.6506 31.272 35.3626 32.208 35.3626 33.216C35.1466 34.08 35.2186 34.944 35.2906 35.808C35.3626 36.312 35.4346 36.888 35.4346 37.392C35.4346 38.472 35.6506 39.552 35.9386 40.632C36.0106 40.92 36.1546 41.208 36.2266 41.424C36.8746 42.936 37.7386 44.232 38.6746 45.456C38.8186 45.672 39.0346 45.816 39.1066 46.032C39.3226 46.536 39.8266 46.824 40.0426 47.328C40.2586 47.832 40.8346 47.976 41.2666 48.264C41.3386 48.264 41.3386 48.336 41.4106 48.336C41.5546 48.912 42.0586 48.984 42.4186 49.272C42.7786 49.56 43.2106 49.848 43.7146 49.992C44.2186 50.136 44.7226 50.424 45.2986 50.64C45.3706 50.712 45.5146 50.784 45.6586 50.784C46.3066 50.784 46.9546 50.784 47.5306 51C47.5306 51 47.6026 51.072 47.6746 51C48.2506 50.856 48.8986 51.144 49.4746 50.784C49.5466 50.712 49.7626 50.712 49.9066 50.712C50.1946 50.712 50.4826 50.712 50.7706 50.712C50.9146 50.64 51.1306 50.568 51.2026 50.424C51.2746 50.28 51.4186 50.208 51.5626 50.208C51.9226 50.136 52.2106 50.064 52.5706 49.92C52.9306 49.848 53.3626 49.632 53.5786 49.272C53.6506 49.128 53.7946 49.056 53.9386 49.056C54.2986 48.912 54.5146 48.696 54.8026 48.48C54.9466 48.336 55.0906 48.192 55.2346 48.12C55.7386 47.904 56.1706 47.688 56.6026 47.4C56.8906 47.472 57.0346 47.4 57.0346 47.04C57.0346 46.896 57.1786 46.824 57.2506 46.68C57.4666 46.464 57.7546 46.248 57.8986 45.888C58.0426 45.528 58.4026 45.24 58.6906 44.952C59.2666 44.448 59.8426 43.944 60.4186 43.368C60.6346 42.936 60.9946 42.72 61.3546 42.36C61.7146 42 61.8586 41.424 62.2186 41.064C62.2906 41.064 62.2906 40.992 62.3626 40.992C62.7226 40.632 62.8666 40.2 63.0106 39.696C63.0106 39.48 63.0106 39.264 62.7946 39.264C62.3626 39.12 62.1466 38.904 62.0026 38.616C62.0026 38.544 61.9306 38.4 61.9306 38.328C61.9306 38.328 61.9306 38.256 61.8586 38.184C61.7146 37.896 61.2826 37.68 61.4986 37.248C61.5706 37.176 61.4986 37.104 61.4986 37.104C61.2106 36.816 61.1386 36.312 60.7786 36.096C60.7786 36.384 60.7786 36.6 60.7066 36.888C60.7066 36.96 60.6346 37.032 60.6346 37.104C60.5626 37.176 60.3466 37.104 60.2746 36.96C60.2026 36.888 60.1306 36.816 60.1306 36.744C60.0586 36.672 59.9866 36.528 59.9146 36.528C59.7706 36.384 59.5546 36.312 59.3386 36.384C59.2666 36.384 59.1946 36.456 59.1946 36.528C59.1946 36.888 58.9786 37.104 58.5466 37.176C58.2586 37.176 57.8986 37.248 57.6106 37.248C57.1066 37.752 56.6746 38.256 56.1706 38.688C56.0986 38.832 55.9546 39.048 55.8106 39.12C55.3066 39.336 54.8746 39.696 54.5146 40.056C54.3706 40.272 54.2266 40.416 54.0106 40.56C52.9306 41.424 51.9226 42.36 50.6986 43.08C50.2666 43.44 49.7626 43.8 49.2586 44.016C47.9626 44.592 46.5946 45.024 45.1546 45.168C44.8666 45.168 44.5786 45.168 44.2906 45.168C43.9306 45.096 43.5706 45.096 43.2826 45.024C42.4906 44.808 41.6986 44.52 41.0506 44.088C40.7626 43.872 40.4746 43.656 40.4026 43.296C40.1866 42.504 39.8986 41.64 39.9706 40.776C40.0426 40.416 40.0426 39.984 39.9706 39.624C39.9706 39.12 39.9706 38.688 39.9706 38.184C40.0426 37.896 40.0426 37.608 40.0426 37.32C39.9706 36.888 40.0426 36.384 40.0426 35.88C40.0426 35.376 40.3306 34.872 40.1146 34.368C40.4746 33.216 40.3306 31.992 40.8346 30.84C40.8346 30.768 40.8346 30.696 40.8346 30.552C40.9066 29.328 41.3386 28.248 41.6266 27.096C41.7706 26.376 42.0586 25.728 42.2026 25.008C42.6346 23.712 43.1386 22.416 43.6426 21.048C44.0026 19.968 44.5066 18.888 45.0106 17.808C45.5866 16.44 46.3066 15.216 47.0266 13.992C48.1786 12.048 49.5466 10.32 51.0586 8.736C51.9946 7.728 53.0746 6.936 54.2266 6.216C54.9466 5.784 55.7386 5.496 56.6026 5.28C56.8186 5.28 57.1066 5.28 57.3226 5.352C57.9706 5.496 58.4026 5.928 58.8346 6.432C58.9066 6.576 59.0506 6.72 59.0506 6.936C59.1226 8.376 59.1226 9.744 58.5466 11.04C58.4746 11.328 58.4026 11.616 58.3306 11.904C57.9706 12.696 58.0426 13.488 58.4026 14.208C58.5466 14.712 58.7626 15.216 58.9786 15.72C59.0506 16.44 59.5546 17.088 59.6986 17.88C60.1306 18.816 60.4906 19.176 61.7146 19.104C62.1466 19.032 62.4346 18.744 62.5066 18.384C62.6506 17.808 62.7946 17.232 62.9386 16.728C63.0826 15.72 63.2986 14.712 63.3706 13.704C63.3706 12.84 63.3706 11.976 63.3706 11.112ZM63.0826 36.672C63.0106 36.384 62.9386 36.024 62.7226 35.808C62.1466 35.088 61.6426 34.44 61.2826 33.648C61.2106 33.504 61.0666 33.432 60.9946 33.288C60.8506 33.216 60.5626 33.288 60.4906 33.432C60.4906 33.504 60.4906 33.576 60.4906 33.576C60.4906 33.72 60.4906 33.792 60.4906 33.864C60.7786 34.368 60.9946 34.872 61.2826 35.448C61.3546 36.096 62.0026 36.456 62.2186 37.032C62.2906 37.176 62.4346 37.32 62.5066 37.464C62.5786 37.536 62.7226 37.608 62.7946 37.68C62.8666 37.752 62.9386 37.896 63.0106 37.896C63.0826 37.968 63.2266 37.968 63.2266 37.896C63.2986 37.824 63.3706 37.752 63.3706 37.68C63.2986 37.32 63.1546 37.032 63.0826 36.672ZM60.4186 35.664C60.3466 35.592 60.2746 35.592 60.2746 35.664C60.2746 35.736 60.2026 35.808 60.2746 35.88C60.3466 36.024 60.5626 36.024 60.7066 36.024C60.6346 35.952 60.5626 35.808 60.4906 35.736C60.4906 35.664 60.4186 35.664 60.4186 35.664ZM60.7066 36.024V36.096C60.7786 36.096 60.7786 36.096 60.7786 36.096V36.024H60.7066ZM62.4346 37.536H62.5066C62.5066 37.464 62.5066 37.464 62.5066 37.464H62.4346V37.536ZM62.1466 37.68C62.2186 37.68 62.2906 37.68 62.2906 37.68C62.3626 37.608 62.3626 37.536 62.4346 37.536C62.3626 37.536 62.2906 37.536 62.2186 37.536C62.0746 37.536 62.0746 37.608 62.1466 37.68ZM60.2746 42.144L60.3466 42.216L60.2746 42.288V42.144Z" fill="#888888"/>
</svg>
