<svg width="200" height="111" viewBox="0 0 200 111" fill="none" xmlns="http://www.w3.org/2000/svg">
<path d="M49.4 40.5C48.2 38.85 48.05 36.3 45.8 35.4C45.35 35.25 45.35 34.5 45.05 34.05C44.45 32.7 44.15 31.35 43.85 30C43.85 29.7 43.55 29.55 43.25 29.4C43.25 29.4 42.95 29.55 42.8 29.7C41.9 32.25 40.85 34.8 40.1 37.5C38.9 41.4 38 45.45 36.95 49.35C36.65 50.1 36.5 51 36.05 51.6C34.7 53.4 34.4 55.5 33.65 57.6C33.35 58.35 33.2 59.1 32.9 60C32.9 60.3 32.6 60.6 32.3 60.9C31.55 61.35 30.95 61.35 30.5 60.45C30.05 59.55 30.05 58.35 29.3 57.45C29.45 56.85 29.9 56.55 30.35 56.4C30.8 55.95 31.1 55.35 30.8 54.75C30.5 54 29.9 53.55 29.15 53.7C28.25 53.85 27.5 53.85 26.6 54C23.3 54.45 20 55.05 16.7 55.5C15.2 55.65 13.85 55.65 12.35 55.65C11.3 55.65 10.7 54.9 10.85 53.7V53.85C11.45 51.45 12.35 49.2 12.65 46.8C12.95 45 12.95 43.2 14.3 41.7C14.6 41.4 14.6 40.95 14.75 40.5C15.65 37.2 16.4 34.05 17.45 30.75C19.55 24.6 20.9 18.15 22.7 11.85C22.85 10.95 23 10.05 23 8.99999C23.3 7.35 22.7 6 21.05 5.25C20.15 4.79999 19.55 4.04999 18.65 3.44999C17.6 2.69999 17.3 1.34999 16.25 -7.15256e-06C15.5 1.94999 15.2 3.59999 14.75 5.25C13.1 11.7 10.85 18 8.3 24.15C7.85 25.35 7.4 26.4 6.95 27.6C6.05 30.15 5.3 32.7 4.4 35.1C2.6 40.05 1.4 45 0.35 49.95C-0.25 53.1 0.2 56.1 1.55 58.95C2.45 60.6 3.2 62.25 3.65 64.05C4.1 65.55 5.15 66.75 6.2 67.8C6.95 68.55 7.7 69.15 8.45 69.75C9.8 70.8 11.3 72 13.25 70.8C13.7 70.65 14.15 70.8 14.75 70.95C15.2 71.25 15.8 71.4 16.4 71.4C19.4 71.4 22.4 71.1 25.1 69.75C26.75 69 28.25 69.15 29.9 69.15C30.65 69 31.1 69.75 31.1 70.5C31.1 71.25 31.1 71.85 30.95 72.6C30.65 75.15 30.2 77.7 29.9 80.25C28.85 83.55 29 87 28.55 90.45C29.45 92.25 28.7 93.9 28.4 95.55C28.25 96.9 28.25 97.95 29.45 98.85C29.75 99 29.9 99.6 29.6 99.9C28.4 101.1 28.85 102.3 29.75 103.5C30.5 104.4 31.1 105.45 30.8 106.5C30.35 108.45 31.4 109.35 32.75 110.25C33.05 110.55 33.5 110.7 33.95 110.55C34.4 110.25 34.55 109.8 34.55 109.2C34.4 108 34.4 106.8 34.25 105.6C33.95 103.35 34.7 101.25 34.55 99.15C34.55 98.7 34.7 98.4 35 97.95C37.1 94.8 37.4 90.9 38.75 87.3C38.9 87.15 38.9 86.7 38.9 86.4C38.75 84.6 39.2 83.1 40.25 81.6C40.4 81.15 40.55 80.55 40.7 80.1C41.75 75.15 43.7 70.35 44.15 65.25C44.3 64.8 44.45 64.35 44.45 64.05C46.4 58.05 48.05 52.05 50 46.05C50.6 44.1 50.6 42.15 49.4 40.5ZM28.1 67.2C28.1 67.2 28.1 67.05 28.25 67.05C28.4 66.6 28.55 66.15 29.15 66.15L29.3 66.3C29.15 67.05 28.7 67.2 28.1 67.2ZM129.557 27.15C129.407 26.4 129.257 25.5 128.957 24.6C128.657 23.55 128.357 22.35 127.907 21.3C127.157 19.65 126.407 18.15 125.657 16.65C124.607 14.7 123.257 12.9 121.757 11.25C119.807 8.99999 117.707 7.04999 115.007 5.54999C113.957 5.39999 113.657 4.35 112.607 4.19999C110.807 3.15 108.707 2.69999 106.607 2.24999C105.857 2.09999 105.107 2.09999 104.507 2.4C104.357 2.4 104.057 2.24999 103.907 2.24999C103.757 2.09999 103.757 1.49999 103.457 2.09999C103.007 2.55 102.407 2.69999 101.807 3C101.207 3.15 100.607 3.15 100.007 3.44999C99.2574 3.9 98.2074 4.04999 97.4574 4.5C97.3074 4.65 97.0074 4.5 96.8574 4.5C96.7074 4.35 96.5574 4.19999 96.4074 4.19999C95.9574 3.9 95.6574 4.04999 95.3574 4.35C95.2074 4.5 95.0574 4.65 95.0574 4.79999C94.6074 4.94999 94.3074 4.79999 93.8574 5.1C93.4074 5.54999 92.9574 5.85 92.3574 6.14999C91.3074 6.6 90.5574 7.35 89.8074 8.24999C89.2074 8.85 88.4574 9.45 88.0074 10.2C87.4074 11.25 86.8074 12 85.9074 12.75C85.0074 13.5 84.8574 14.85 83.8074 15.75C83.3574 16.05 83.0574 16.65 82.7574 17.1C82.4574 17.7 81.8574 18 81.4074 18.6C80.0574 19.8 79.4574 20.85 79.1574 22.35C79.0074 22.8 79.0074 23.25 78.8574 23.7C78.7074 24.3 78.5574 24.9 78.1074 25.2C77.6574 25.5 77.5074 25.8 77.6574 26.25C77.8074 26.55 77.6574 26.85 77.8074 27C77.9574 27.75 77.6574 28.2 77.0574 28.65C76.9074 28.8 76.6074 28.95 76.4574 29.25C76.3074 29.4 76.1574 29.55 76.1574 29.7C76.6074 30.3 75.8574 30.9 76.0074 31.35C76.1574 31.8 76.3074 32.25 76.0074 32.7C75.8574 33.15 75.8574 33.45 75.8574 33.9C76.0074 35.85 75.8574 37.8 76.7574 39.6C76.9074 39.9 76.9074 40.2 76.9074 40.5C76.6074 41.4 76.4574 42.3 76.3074 43.35C75.7074 43.8 76.0074 44.55 75.7074 45.3C75.5574 45.9 75.2574 46.5 75.2574 47.25C75.1074 47.85 74.8074 48.45 74.6574 49.05C74.3574 49.95 74.2074 50.85 74.0574 51.6C74.0574 52.95 73.9074 54.15 73.7574 55.5C73.7574 55.8 73.9074 56.25 73.7574 56.55C73.6074 57 73.3074 57.45 73.3074 57.9C73.4574 58.95 73.3074 59.85 73.0074 60.75C72.5574 62.1 72.7074 63.45 72.4074 64.8C72.2574 65.4 72.5574 66 72.5574 66.6C72.5574 66.9 72.5574 67.35 72.4074 67.65C71.9574 68.25 71.9574 69 72.2574 69.6C72.4074 69.9 72.2574 70.2 72.1074 70.35C71.9574 70.65 71.6574 70.95 71.6574 71.1C71.5074 73.35 71.2074 75.45 71.9574 77.55C72.1074 77.85 71.9574 78.3 71.9574 78.6C72.1074 79.2 72.1074 79.8 72.1074 80.4C71.8074 82.65 72.2574 84.75 73.0074 87C73.6074 88.95 74.5074 91.05 76.0074 92.7C76.9074 93.6 77.6574 94.5 78.5574 95.25C79.1574 95.85 80.0574 96.45 80.8074 96.9C81.1074 97.2 81.4074 97.35 81.7074 97.65C82.3074 97.95 82.7574 98.4 83.2074 98.7C83.6574 99 83.9574 99.45 84.4074 99.6C85.1574 100.05 86.0574 100.2 86.8074 100.65C87.5574 101.25 88.6074 101.1 89.5074 101.4C89.9574 101.7 90.7074 101.55 91.3074 101.85C92.0574 102.15 92.8074 102.15 93.4074 102C95.0574 101.55 96.7074 101.1 98.3574 100.5C99.7074 99.9 101.207 99.15 102.257 98.1C102.707 97.65 103.157 97.35 103.607 96.9C105.257 95.55 106.757 94.2 108.107 92.7C109.907 90.6 111.407 88.35 113.357 86.25C113.507 85.95 113.657 85.65 113.807 85.5C116.057 82.05 118.307 78.75 120.257 75.15C121.607 72.75 123.107 70.35 124.007 67.8C124.157 67.2 124.457 66.6 124.907 66.15C125.357 65.55 125.657 64.8 125.957 64.05C126.857 61.35 127.607 58.5 128.357 55.65C128.657 54.9 128.807 54.15 128.957 53.4C129.407 52.05 129.407 50.55 129.707 49.2C130.157 47.7 130.157 46.2 130.307 44.85C130.307 44.4 130.307 43.95 130.307 43.65C130.757 42 130.607 40.2 130.757 38.4C130.907 34.65 130.457 30.9 129.557 27.15ZM99.2574 2.69999L99.1074 2.84999H99.2574V2.69999ZM94.7574 5.69999C94.9074 5.39999 94.9074 5.25 95.0574 4.94999C95.6574 5.25 95.6574 5.39999 95.5074 5.69999C95.3574 6 95.2074 6 94.9074 5.85L94.7574 5.69999ZM122.207 35.1C122.507 35.4 122.957 35.55 123.257 35.85C123.407 36 123.557 36.15 123.407 36.3C122.957 37.05 123.857 37.95 123.107 38.85C123.107 38.85 123.107 39.15 123.107 39.3C123.707 40.05 123.257 40.65 123.257 41.25C123.107 41.7 122.957 42.3 122.807 42.75C122.807 43.05 122.807 43.35 122.957 43.5C123.107 43.95 123.107 44.25 123.107 44.7C122.957 45.3 122.807 45.45 121.907 45.75V45.6C121.907 45.6 121.907 45.6 121.757 45.6L121.907 45.75C121.757 46.05 121.757 46.35 121.907 46.8C122.207 47.1 122.507 47.55 122.657 48C122.657 48.15 122.657 48.45 122.507 48.6C122.207 48.75 122.057 48.9 122.207 49.2C122.507 49.8 121.907 50.4 121.757 50.85C121.757 51.45 121.307 51.9 120.857 52.35C120.557 52.65 120.557 52.95 120.557 53.25C120.407 53.4 120.257 53.7 120.257 54C120.257 54 120.107 54.15 119.957 54.15C119.957 54 119.807 54 119.807 53.85C119.657 53.4 119.657 52.95 119.507 51.9C119.357 53.85 118.307 54.9 118.007 56.25C118.007 56.55 118.157 56.55 118.457 56.4C118.757 56.4 119.357 56.85 119.357 57C119.357 57.15 119.357 57.15 119.357 57.3C119.057 57.6 118.757 57.9 118.307 57.9C117.707 57.9 117.407 58.2 117.257 58.5C116.807 59.4 116.357 60.3 116.057 61.2C115.757 61.8 115.907 62.4 116.657 62.7C116.807 62.85 116.807 63 116.807 63.3C116.807 63.45 116.507 63.6 116.057 63.45C115.907 63.45 115.907 63.45 115.757 63.3C115.307 63.3 115.157 63.45 115.307 63.9C115.307 64.2 115.607 64.65 115.157 64.8C114.407 65.25 113.957 65.7 113.657 66.45C113.207 67.35 112.457 68.1 112.307 69C112.307 69.45 112.007 69.75 111.707 70.05C111.107 70.8 110.507 71.4 110.507 72.3C110.357 72.6 110.207 72.9 109.907 73.05C109.457 73.5 109.157 73.95 108.857 74.55C107.507 76.35 106.157 78 105.107 79.95C104.357 81.3 103.157 82.35 102.107 83.4C100.007 85.8 97.7574 88.05 95.2074 90.15C93.4074 91.5 91.3074 92.7 88.9074 93.15C86.8074 93.6 84.8574 93.15 83.2074 92.1C82.4574 91.65 81.8574 91.05 81.8574 90.15C81.8574 89.4 81.4074 88.65 81.4074 87.9C81.2574 86.85 81.2574 85.65 81.2574 84.45C81.2574 83.1 81.2574 81.75 81.1074 80.4C81.1074 78 81.1074 75.75 81.4074 73.5C81.5574 71.55 81.8574 69.6 82.0074 67.65C82.6074 66.15 82.3074 64.35 83.0574 62.85C83.2074 62.55 83.2074 62.25 83.2074 61.95C83.0574 60.9 83.6574 59.85 83.8074 58.8C83.9574 57.9 84.1074 57 84.4074 55.95C84.7074 54 85.3074 52.05 85.9074 50.1C86.3574 48.75 87.1074 46.2 87.4074 44.85C87.8574 43.65 87.8574 43.8 88.3074 42.45C88.6074 41.4 88.9074 40.2 89.5074 39.15C89.6574 38.85 89.8074 38.4 89.8074 38.1C89.9574 36.45 90.5574 35.1 91.3074 33.6C91.3074 33.45 91.6074 33.15 91.6074 32.85C92.0574 31.65 92.2074 30.3 92.9574 29.25C93.7074 28.35 94.0074 27.15 94.4574 26.1C95.5074 24 96.7074 21.9 98.0574 19.8C98.3574 19.2 98.9574 18.75 99.5574 18.3C100.007 17.85 100.607 17.4 101.057 16.8C101.657 16.35 101.807 15.9 101.807 15.3C101.807 15 101.807 14.7 101.657 14.4C101.657 13.65 101.807 13.05 103.007 12.6C103.307 12.45 103.607 12.3 103.907 12.3C106.157 11.4 108.407 11.1 110.807 11.25C112.007 11.4 113.057 11.7 114.257 12.15C115.907 13.05 117.407 14.25 118.457 15.75C119.957 17.55 121.307 19.5 121.757 21.6C122.357 22.35 122.357 23.25 122.507 24.15C122.507 24.75 122.657 25.5 122.807 26.1C122.357 27 122.957 27.6 123.257 28.35C123.407 28.65 123.557 29.1 123.407 29.4C123.257 30.45 123.257 31.35 123.257 32.25C123.257 33.15 122.957 33.75 122.207 34.35C121.907 34.5 121.907 34.95 122.207 35.1ZM121.457 25.2C121.457 25.2 121.457 25.35 121.457 25.5C121.607 25.35 121.757 25.35 121.757 25.35C121.757 25.05 121.607 25.05 121.457 25.2ZM77.0574 35.25L76.9074 35.55C76.7574 35.4 76.6074 35.4 76.7574 35.25C76.7574 35.1 76.7574 34.95 76.9074 34.8C76.9074 34.95 77.0574 34.95 77.0574 35.1V35.25ZM122.207 40.65L122.057 40.8H122.207V40.65ZM121.457 43.65H121.607V43.5L121.457 43.65ZM121.457 45.45C121.607 45.6 121.607 45.6 121.757 45.6V45.45C121.607 45.45 121.607 45.45 121.457 45.45ZM198.287 40.5C197.087 38.85 196.937 36.3 194.687 35.4C194.237 35.25 194.237 34.5 193.937 34.05C193.337 32.7 193.037 31.35 192.737 30C192.737 29.7 192.437 29.55 192.137 29.4C192.137 29.4 191.837 29.55 191.687 29.7C190.787 32.25 189.737 34.8 188.987 37.5C187.787 41.4 186.887 45.45 185.837 49.35C185.537 50.1 185.387 51 184.937 51.6C183.587 53.4 183.287 55.5 182.537 57.6C182.237 58.35 182.087 59.1 181.787 60C181.787 60.3 181.487 60.6 181.187 60.9C180.437 61.35 179.837 61.35 179.387 60.45C178.937 59.55 178.937 58.35 178.187 57.45C178.337 56.85 178.787 56.55 179.237 56.4C179.687 55.95 179.987 55.35 179.687 54.75C179.387 54 178.787 53.55 178.037 53.7C177.137 53.85 176.387 53.85 175.487 54C172.187 54.45 168.887 55.05 165.587 55.5C164.087 55.65 162.737 55.65 161.237 55.65C160.187 55.65 159.587 54.9 159.737 53.7V53.85C160.337 51.45 161.237 49.2 161.537 46.8C161.837 45 161.837 43.2 163.187 41.7C163.487 41.4 163.487 40.95 163.637 40.5C164.537 37.2 165.287 34.05 166.337 30.75C168.437 24.6 169.787 18.15 171.587 11.85C171.737 10.95 171.887 10.05 171.887 8.99999C172.187 7.35 171.587 6 169.937 5.25C169.037 4.79999 168.437 4.04999 167.537 3.44999C166.487 2.69999 166.187 1.34999 165.137 -7.15256e-06C164.387 1.94999 164.087 3.59999 163.637 5.25C161.987 11.7 159.737 18 157.187 24.15C156.737 25.35 156.287 26.4 155.837 27.6C154.937 30.15 154.187 32.7 153.287 35.1C151.487 40.05 150.287 45 149.237 49.95C148.637 53.1 149.087 56.1 150.437 58.95C151.337 60.6 152.087 62.25 152.537 64.05C152.987 65.55 154.037 66.75 155.087 67.8C155.837 68.55 156.587 69.15 157.337 69.75C158.687 70.8 160.187 72 162.137 70.8C162.587 70.65 163.037 70.8 163.637 70.95C164.087 71.25 164.687 71.4 165.287 71.4C168.287 71.4 171.287 71.1 173.987 69.75C175.637 69 177.137 69.15 178.787 69.15C179.537 69 179.987 69.75 179.987 70.5C179.987 71.25 179.987 71.85 179.837 72.6C179.537 75.15 179.087 77.7 178.787 80.25C177.737 83.55 177.887 87 177.437 90.45C178.337 92.25 177.587 93.9 177.287 95.55C177.137 96.9 177.137 97.95 178.337 98.85C178.637 99 178.787 99.6 178.487 99.9C177.287 101.1 177.737 102.3 178.637 103.5C179.387 104.4 179.987 105.45 179.687 106.5C179.237 108.45 180.287 109.35 181.637 110.25C181.937 110.55 182.387 110.7 182.837 110.55C183.287 110.25 183.437 109.8 183.437 109.2C183.287 108 183.287 106.8 183.137 105.6C182.837 103.35 183.587 101.25 183.437 99.15C183.437 98.7 183.587 98.4 183.887 97.95C185.987 94.8 186.287 90.9 187.637 87.3C187.787 87.15 187.787 86.7 187.787 86.4C187.637 84.6 188.087 83.1 189.137 81.6C189.287 81.15 189.437 80.55 189.587 80.1C190.637 75.15 192.587 70.35 193.037 65.25C193.187 64.8 193.337 64.35 193.337 64.05C195.287 58.05 196.937 52.05 198.887 46.05C199.487 44.1 199.487 42.15 198.287 40.5ZM176.987 67.2C176.987 67.2 176.987 67.05 177.137 67.05C177.287 66.6 177.437 66.15 178.037 66.15L178.187 66.3C178.037 67.05 177.587 67.2 176.987 67.2Z" fill="white"/>
</svg>
