<svg width="223" height="56" viewBox="0 0 223 56" fill="none" xmlns="http://www.w3.org/2000/svg">
<path d="M3.54 44C3.84 44 4.14 43.94 4.44 44C5.52 44.06 6.54 43.82 7.56 43.64C9.18 43.28 10.8 42.74 12.42 42.32C12.66 42.26 12.84 42.2 13.08 42.08C14.34 41.66 15.54 41.12 16.74 40.64C17.16 40.46 17.64 40.22 18.06 39.98C19.02 39.32 20.04 38.66 21 38C21.36 37.76 21.66 37.52 21.9 37.22C22.26 36.74 22.68 36.26 22.98 35.78C23.28 35.36 23.4 34.82 23.58 34.34C23.58 34.16 23.7 34.04 23.76 33.86C24.06 33.02 24.3 32.12 24.48 31.28C24.6 30.92 24.6 30.56 24.6 30.2C24.48 29.42 24.42 28.64 23.94 28.04C23.94 27.98 23.88 27.86 23.88 27.8C23.7 27.44 23.46 27.14 23.16 26.84C22.2 25.94 21.12 25.28 20.04 24.68C19.38 24.26 18.72 24.02 18.12 23.66C17.46 23.24 16.74 23 16.08 22.7C15.6 22.46 15.18 22.22 14.64 22.04C14.28 21.8 13.8 21.62 13.38 21.38C12.84 21.08 12.24 21.02 11.82 20.6C10.38 19.88 9 19.1 7.62 18.26C6.96 17.84 6.3 17.36 5.7 16.82C4.92 16.1 4.26 15.26 3.72 14.3C3.54 13.94 3.48 13.64 3.72 13.28C4.02 12.62 4.44 12.02 4.98 11.54C5.64 10.94 6.36 10.34 7.14 9.86C8.34 9.14 9.6 8.54 10.92 8C11.7 7.7 12.48 7.46 13.26 7.16C13.32 7.16 13.44 7.1 13.5 7.1C13.86 7.1 14.22 6.98 14.52 6.86L15.6 6.68C16.26 6.62 16.92 6.5 17.64 6.44C18.9 6.26 20.16 6.5 21.42 6.86C21.72 6.92 22.02 7.1 22.2 7.34C22.32 7.46 22.44 7.58 22.44 7.76C22.56 8.12 22.62 8.42 22.74 8.78C22.74 8.9 22.86 8.96 22.98 9.02C23.52 9.26 23.76 9.2 24 8.6C24.18 8.3 24.36 8 24.42 7.64C24.48 7.22 24.54 6.86 24.6 6.44C24.6 6.14 24.54 5.84 24.48 5.54V5.18C24.48 4.58 24.24 4.04 24 3.56C23.82 3.14 23.46 2.78 22.98 2.6L22.26 2.24C21.96 2.06 21.6 2 21.3 2H20.34C20.04 2 19.8 2.06 19.5 2.06C18.48 1.94 17.52 2.3 16.56 2.3C16.44 2.3 16.32 2.36 16.2 2.42C15.72 2.6 15.18 2.66 14.7 2.84C14.22 3.02 13.68 3.08 13.2 3.2C12.84 3.38 12.42 3.44 12.06 3.56C11.1 3.8 10.2 4.22 9.24 4.58C8.94 4.76 8.58 4.82 8.28 5C7.8 5.3 7.26 5.6 6.66 5.78C6.3 5.9 5.94 6.14 5.58 6.26C4.98 6.44 4.5 6.8 4.02 7.16C3.78 7.34 3.54 7.58 3.24 7.7C3.06 7.82 2.88 8 2.76 8.24C2.16 9.02 1.98 9.32 1.68 10.34C1.5 11.12 1.2 11.84 1.26 12.68C1.14 12.98 1.26 13.28 1.08 13.58C0.96 13.7 0.96 13.88 0.96 14.06V14.72C1.2 15.2 1.08 15.8 1.32 16.22C1.5 16.52 1.56 16.94 1.68 17.24C1.86 17.6 2.1 17.96 2.28 18.26C2.34 18.32 2.34 18.32 2.34 18.38C2.4 18.56 2.52 18.68 2.64 18.74C2.88 18.98 3 19.4 3.24 19.64C3.48 19.94 3.78 20.24 4.08 20.48C4.08 20.54 4.14 20.54 4.14 20.6C4.26 21.02 4.68 21.26 4.92 21.62C4.98 21.74 5.1 21.86 5.16 21.86C5.64 21.98 5.88 22.4 6.18 22.64C6.72 23.12 6.84 23.18 7.92 23.66C8.04 23.72 8.16 23.78 8.22 23.84C8.4 24.02 8.52 24.08 8.76 24.14C9 24.14 9.18 24.32 9.36 24.5C9.66 24.8 10.08 24.92 10.38 25.28C10.92 25.28 11.28 25.64 11.7 25.82C11.88 26 12.06 26.06 12.3 26.18C12.54 26.06 12.66 26.18 12.84 26.3C13.08 26.54 13.38 26.78 13.74 26.9C14.34 27.2 15.06 27.38 15.66 27.86C15.66 27.86 15.72 27.86 15.78 27.92C16.2 28.04 16.62 28.28 17.04 28.52C17.28 28.7 17.52 28.82 17.76 28.88C18.18 29.06 18.48 29.24 18.84 29.48C19.26 29.78 19.74 30.08 20.22 30.32C20.34 30.38 20.46 30.44 20.52 30.56C20.7 30.8 20.88 30.98 21 31.22C21.06 31.34 21.06 31.46 21 31.58C20.88 31.82 20.76 32 20.58 32.18C20.34 32.36 20.1 32.6 19.92 32.84C19.68 33.14 19.44 33.44 19.38 33.8C19.32 33.98 19.26 34.1 19.08 34.28C18.36 34.82 17.52 35.24 16.74 35.72C16.5 35.9 16.14 35.96 15.84 36.08L15.12 36.44C14.52 36.74 13.86 36.98 13.2 37.22C12.78 37.34 12.3 37.46 11.88 37.7C11.64 37.82 11.34 37.76 11.1 37.94C10.86 38.12 10.56 37.94 10.26 38C9.72 38.18 9.18 38.24 8.64 38.36C8.4 38.36 8.28 38.48 8.1 38.6C8.04 38.66 7.86 38.72 7.8 38.66C7.32 38.6 6.9 38.72 6.48 38.78C6 38.78 5.52 38.72 5.04 38.96H4.8C4.38 38.78 3.96 38.84 3.54 38.72C3.42 38.72 3.36 38.54 3.36 38.42C3.48 38.24 3.6 38.06 3.72 37.94L5.16 36.32C5.88 35.54 6.18 34.94 6.54 33.98C6.6 33.8 6.42 33.26 6.3 33.08C6.18 32.96 5.94 32.96 5.82 33.02C5.58 33.2 5.28 33.32 5.1 33.56C5.04 33.62 5.1 33.68 5.1 33.68C5.04 33.86 4.98 33.92 4.86 33.92C4.68 33.92 4.5 33.8 4.32 33.86C4.02 33.92 3.66 33.98 3.48 34.28C3.42 34.34 3.3 34.46 3.18 34.46C2.64 34.7 2.22 35.12 1.74 35.48C1.44 35.66 1.26 36.02 1.32 36.38C1.32 36.62 1.2 36.74 1.02 36.8C0.84 36.86 0.72 36.98 0.72 37.16C0.66 37.28 0.6 37.4 0.54 37.46C0.3 37.94 0.36 38.42 0.48 38.84C0.54 39.02 0.6 39.14 0.6 39.32C0.48 39.62 0.66 39.98 0.48 40.28C0.42 40.34 0.42 40.4 0.42 40.46C0.48 41.18 0.54 41.84 0.72 42.5C0.78 42.68 0.9 42.86 1.02 42.98C1.32 43.28 1.68 43.58 2.1 43.7C2.58 43.88 3 44 3.54 44ZM11.7 25.76C11.7 25.7 11.76 25.64 11.82 25.7V25.76H11.7ZM31.6022 44.42C31.7822 44.48 31.9622 44.48 32.1422 44.36C32.3222 44.3 32.4422 44.24 32.5622 44.12H32.6222C32.6822 44.12 32.6822 44.06 32.6822 44.06C32.6822 44 32.6222 44 32.6222 44C32.6222 43.94 32.6222 43.94 32.6222 43.88C32.6222 43.7 32.6822 43.58 32.8022 43.46C33.0422 43.28 33.2222 43.04 33.2822 42.68C33.4022 42.2 33.5822 41.72 33.7022 41.18C33.7622 41.06 33.7622 40.94 33.8822 40.88C33.9422 40.88 33.9422 40.82 34.0022 40.76H34.0622C34.1222 40.76 34.1222 40.7 34.1222 40.7C34.1222 40.64 34.0622 40.64 34.0622 40.64C34.0622 40.52 34.0622 40.4 34.1222 40.28C34.2422 40.04 34.3622 39.8 34.4222 39.62C34.6022 39.08 34.7822 38.54 34.9622 38C35.2022 37.46 35.4422 36.92 35.6222 36.38C35.8622 35.84 36.0422 35.24 36.2822 34.7C36.4022 34.4 36.5222 34.04 36.6422 33.68C36.6422 33.56 36.7022 33.38 36.8222 33.26C36.9422 33.08 37.1222 32.9 37.3022 32.72C37.4822 32.48 37.7222 32.24 37.6622 31.88C37.6622 31.82 37.6622 31.82 37.6622 31.76C38.0822 31.52 38.1422 31.04 38.4422 30.74C38.4422 30.44 38.6822 30.26 38.9222 30.08C39.1622 29.6 39.5822 29.36 39.8822 28.94C40.0022 28.82 40.1822 28.7 40.3022 28.64C40.4222 28.52 40.7222 28.58 40.8422 28.7C40.9622 28.88 41.0822 29 41.2022 29.18C41.2622 29.3 41.2622 29.48 41.2622 29.66C41.2022 29.72 41.3222 29.78 41.3822 29.84C41.4422 29.9 41.5022 29.9 41.5622 29.66C41.6222 29.6 41.6822 29.54 41.6822 29.48C41.7422 29.42 41.8622 29.54 41.8622 29.72C41.8622 29.84 41.8622 29.96 41.9222 30.08C42.1022 30.5 42.1622 30.92 42.1622 31.34C42.1622 31.82 42.2222 32.3 42.4622 32.72C42.5222 32.9 42.5822 33.14 42.5822 33.32C42.6422 33.44 42.6422 33.62 42.6422 33.8C42.5822 34.52 42.5222 35.24 42.8222 35.9C42.8822 36.02 42.8822 36.14 42.8822 36.26C42.8822 36.68 43.0622 37.1 43.2422 37.52C43.3622 37.88 43.5422 38.24 43.7222 38.6C43.7822 38.78 43.7822 38.9 43.8422 39.08C43.8422 39.38 44.0222 39.56 44.3822 39.5C44.5622 39.5 44.6822 39.44 44.8622 39.5C44.9822 39.62 45.1622 39.68 45.4022 39.74C45.4622 39.8 45.5222 39.74 45.5822 39.68C45.6422 39.32 45.6422 38.96 45.5222 38.6C45.5222 38.48 45.4622 38.42 45.4022 38.42C45.4022 38.36 45.4022 38.3 45.4022 38.3C45.4022 38.24 45.3422 38.24 45.3422 38.24C45.2822 38.24 45.2822 38.3 45.2822 38.3C45.2822 38.36 45.2822 38.36 45.2822 38.36C45.2222 38.36 45.1622 38.36 45.1022 38.36C45.1022 38.36 45.0422 38.36 44.9822 38.36C44.9222 38.3 44.9222 38.24 44.9222 38.18C45.2222 37.82 45.2822 37.4 45.2222 36.92C45.1622 36.44 45.1622 35.9 45.2222 35.36C45.1022 34.64 45.2222 33.86 45.1622 33.14C45.1622 32.9 45.2222 32.72 45.1622 32.54C44.9822 32.18 45.0422 31.82 44.9822 31.46C44.9222 30.86 44.6222 29.48 44.4422 28.88C44.3822 28.64 44.2622 28.34 44.0822 28.16C44.0222 28.1 44.0222 28.04 44.0222 27.98C43.7822 27.44 43.4222 27.02 43.0622 26.66C42.1622 25.76 41.6222 25.4 40.4822 24.74C40.3622 24.68 40.1822 24.56 40.0622 24.56C39.7022 24.56 39.4022 24.44 39.1022 24.32C39.0422 24.32 38.8622 24.32 38.8022 24.32C38.3822 24.38 38.0222 24.56 37.7222 24.8C37.6622 24.86 37.6022 24.92 37.6022 24.98C37.5422 25.34 37.3022 25.4 37.0022 25.52C36.8822 25.58 36.8822 25.7 36.9422 25.82C37.0022 25.94 37.1222 26.06 37.1822 26.18C37.2422 26.24 37.1822 26.36 37.1222 26.36C36.8222 26.48 36.5822 26.54 36.3422 26.6C36.2222 26.6 36.1622 26.78 36.2222 26.9C36.2822 27.02 36.4022 27.14 36.5822 27.14C36.5822 27.38 36.4622 27.56 36.1622 27.62C36.1022 27.62 35.9822 27.62 35.8622 27.62C35.8022 27.74 35.7422 27.8 35.6822 27.86C35.5022 28.1 35.4422 28.4 35.3222 28.64C35.2022 28.82 34.9622 29 34.7222 29.18C34.6022 29.36 34.6622 29.6 34.9022 29.72C34.9622 29.78 35.0222 29.78 35.1422 29.78C35.0822 29.84 35.0222 29.96 35.0222 29.96C34.6022 30.02 34.4222 29.9 34.4222 29.54C34.4822 29.12 34.5422 28.7 34.7222 28.28C34.7822 28.04 34.9022 27.86 34.9622 27.62C35.0222 27.38 34.9622 27.14 34.9622 26.9C35.0822 26.18 35.3822 25.46 35.5022 24.74C35.7422 24.26 35.8022 23.78 35.9222 23.36C36.3422 22.22 36.5822 21.08 36.8222 19.88C37.0022 19.28 37.1822 18.68 37.3622 18.08C37.4822 17.78 37.6022 17.54 37.6622 17.3C37.7822 17 37.8422 16.76 37.9022 16.46C37.9622 16.04 38.0822 15.62 38.2622 15.2C38.4422 14.66 38.6222 14.06 38.3822 13.46C38.3822 13.34 38.5022 13.28 38.5622 13.22C38.6822 13.1 38.7422 12.98 38.8622 12.8C38.8022 12.56 38.9822 12.38 38.9822 12.14C39.0422 11.72 39.1022 11.36 39.2822 11C39.4622 10.16 39.8222 9.38 39.6422 8.54C39.7622 7.88 39.4622 7.34 39.2222 6.8C38.9222 6.2 38.5022 5.66 38.0222 5.18C37.7222 4.94 37.4222 4.7 37.0622 4.46C36.8822 4.34 36.6422 4.28 36.4022 4.16C36.3422 4.16 36.2822 4.16 36.1622 4.16C36.1022 4.16 35.9222 4.28 35.9222 4.34C35.8622 4.46 35.8622 4.58 35.8622 4.7C35.9222 5.48 35.8022 6.32 35.6222 7.04C35.5022 7.7 35.4422 8.36 35.2022 8.9C35.1422 9.62 34.9022 10.28 34.7822 10.94C34.6022 11.84 34.3622 12.8 34.0022 13.64C33.8222 14 33.8222 14.36 33.7022 14.72C33.5822 15.32 33.4622 15.92 33.2222 16.58C32.9822 17.42 32.9222 18.38 32.5622 19.22C32.5622 19.64 32.4422 20 32.2622 20.36C32.2022 20.48 32.2022 20.6 32.2022 20.72C32.2622 21.08 32.1422 21.44 32.0222 21.8C31.9022 22.46 31.7222 23.18 31.6022 23.9C31.5422 24.38 31.4222 24.8 31.3022 25.28C31.2422 25.58 31.2422 25.88 31.1822 26.24C31.0622 26.54 31.0022 26.9 30.9422 27.26C30.8822 27.56 30.7622 27.86 30.7022 28.16C30.6422 28.4 30.5822 28.58 30.5822 28.76C30.5222 29.42 30.4622 30.02 30.2222 30.62C30.1622 30.8 30.1022 31.04 30.1022 31.22C29.8622 32.6 29.6822 33.98 29.4422 35.36C29.4422 35.54 29.5022 35.72 29.6822 35.84C29.7422 35.84 29.8022 35.96 29.8022 36.02C29.8022 36.14 29.7422 36.2 29.6822 36.2C29.4422 36.26 29.3822 36.32 29.6222 36.5C29.8022 36.74 29.8622 37.04 29.7422 37.28H29.6822C29.6822 37.34 29.6222 37.34 29.6222 37.34C29.5622 37.4 29.5022 37.46 29.4422 37.52C29.4422 37.58 29.4422 37.58 29.4422 37.58C29.3822 37.64 29.3822 37.7 29.3822 37.82C29.3822 38 29.4422 38.18 29.5022 38.42C29.5622 38.54 29.5622 38.72 29.5022 38.84C29.4422 39.02 29.3822 39.14 29.4422 39.32C29.5022 39.86 29.3822 40.4 29.3822 41C29.3822 41.36 29.3822 41.78 29.2022 42.14C29.1422 42.32 29.1422 42.5 29.1422 42.62C29.1422 42.8 29.2022 42.86 29.3822 42.98C29.5022 43.04 29.5622 43.04 29.6222 43.1C30.1022 43.76 30.8822 44.06 31.6022 44.42ZM38.3822 25.64L38.3222 25.58H38.3822V25.64ZM36.6422 27.14L36.7022 27.02C36.7022 27.08 36.7022 27.08 36.6422 27.08C36.6422 27.08 36.6422 27.08 36.6422 27.14ZM38.5022 27.98C38.3822 27.98 38.3822 27.92 38.4422 27.86C38.4422 27.74 38.5022 27.62 38.4422 27.56C38.4422 27.5 38.4422 27.44 38.3222 27.32C38.3822 27.26 38.4422 27.2 38.5622 27.26C38.6822 27.26 38.7422 27.44 38.7422 27.5C38.7422 27.62 38.6822 27.74 38.6822 27.86C38.6222 27.98 38.5622 28.04 38.5022 27.98ZM35.8622 27.62C35.8022 27.5 35.8022 27.5 35.8022 27.56C35.8022 27.56 35.8022 27.56 35.8622 27.62ZM43.9622 28.28C43.9022 28.28 43.8422 28.28 43.8422 28.16L43.9022 28.1C43.9622 28.16 43.9622 28.22 43.9622 28.28ZM39.6422 28.28C39.5822 28.28 39.5222 28.28 39.5222 28.16L39.5822 28.1C39.6422 28.1 39.6422 28.16 39.6422 28.22V28.28ZM37.7222 28.4C37.6622 28.46 37.6022 28.4 37.6022 28.28L37.6622 28.22L37.7222 28.34V28.4ZM41.5022 29L41.4422 28.94L41.5622 28.88L41.5022 29ZM35.1422 29.78C35.2022 29.72 35.2022 29.72 35.2022 29.72C35.2622 29.72 35.2622 29.72 35.1422 29.78ZM34.4222 30.5C34.2422 30.5 34.0622 30.5 33.8822 30.44V30.38C34.0022 30.32 34.1822 30.26 34.3022 30.32C34.3622 30.32 34.3622 30.44 34.4222 30.5ZM34.6022 30.74C34.5422 30.86 34.4822 30.8 34.4822 30.68C34.4222 30.62 34.4222 30.56 34.4222 30.5C34.4822 30.56 34.5422 30.62 34.5422 30.68C34.6022 30.68 34.6022 30.74 34.6022 30.74ZM34.7822 31.4L34.7222 31.34H34.7822V31.4ZM36.1022 33.32C35.9822 33.26 35.9822 33.26 36.0422 33.2C36.1022 33.2 36.1022 33.2 36.1622 33.2V33.26L36.1022 33.32ZM35.8622 33.86C35.8022 33.8 35.7422 33.8 35.7422 33.74C35.7422 33.74 35.8022 33.74 35.8022 33.8C35.8022 33.8 35.8022 33.8 35.8622 33.86ZM35.9822 33.98C35.9222 33.92 35.9222 33.92 35.9222 33.92H35.8622L35.9822 33.98ZM29.7422 37.64C29.6822 37.64 29.6822 37.58 29.6222 37.52L29.6822 37.46C29.7422 37.46 29.8022 37.46 29.8022 37.46C29.8622 37.46 29.9222 37.52 29.9222 37.58C29.9222 37.64 29.8622 37.7 29.7422 37.64ZM59.377 14.96C59.557 14.9 59.737 14.84 59.917 14.66C60.037 14.48 60.217 14.24 60.397 14.06C60.757 13.64 60.997 13.16 61.177 12.68C61.297 12.38 61.057 11.9 60.697 11.84C60.517 11.78 60.337 11.72 60.157 11.72C59.977 11.66 59.797 11.6 59.677 11.6C59.317 11.72 58.957 11.66 58.597 11.78C58.537 11.84 58.477 11.84 58.477 11.96C58.477 12.08 58.417 12.14 58.297 12.2C58.177 12.26 58.057 12.32 58.057 12.44C57.997 12.56 57.937 12.68 57.997 12.8C58.057 13.1 58.117 13.4 58.117 13.7C58.057 13.76 57.937 13.82 57.877 13.88C57.637 14.06 57.637 14.3 57.937 14.42C58.117 14.48 58.297 14.54 58.417 14.66C58.537 14.78 58.657 14.84 58.837 14.96C59.017 15.08 59.197 15.08 59.377 14.96ZM58.237 13.82C58.237 13.82 58.237 13.82 58.177 13.76C58.177 13.76 58.177 13.76 58.177 13.7C58.237 13.7 58.297 13.76 58.237 13.82ZM55.657 43.4C55.657 43.4 55.717 43.4 55.717 43.34V43.28C55.717 43.22 55.657 43.16 55.717 43.1V43.04C56.017 42.26 56.137 41.42 56.257 40.58C56.317 40.04 56.257 39.44 55.837 39.02C55.777 38.9 55.717 38.78 55.657 38.72C55.537 38.54 55.537 38.42 55.597 38.24C55.837 37.64 56.077 37.04 56.257 36.44C56.377 36.26 56.437 36.08 56.437 35.9C56.437 35.54 56.557 35.24 56.737 35C56.797 34.82 56.857 34.7 56.857 34.52C56.917 34.1 57.157 33.68 57.157 33.26C57.217 32.96 57.277 32.72 57.337 32.42C57.337 32.18 57.457 31.94 57.577 31.64C57.697 31.4 57.817 31.04 57.817 30.74C57.937 30.32 58.057 29.9 58.117 29.48C58.357 28.16 58.657 26.9 58.897 25.58C59.077 24.86 59.137 24.14 59.077 23.42C59.077 23 59.017 22.58 58.957 22.16C58.897 21.98 58.837 21.86 58.837 21.68C58.537 20.96 58.117 20.36 57.697 19.76C57.457 19.46 57.217 19.16 56.857 19.1C56.677 19.1 56.557 18.92 56.497 18.8C56.437 18.68 56.377 18.56 56.317 18.5C56.257 18.44 56.137 18.44 56.077 18.44L56.017 18.5C55.657 20.06 55.357 21.56 55.057 23.12C54.877 23.9 54.697 24.68 54.517 25.46C54.517 25.58 54.457 25.76 54.457 25.88C54.397 26.18 54.457 26.42 54.397 26.72C54.397 26.96 54.157 27.2 54.097 27.5C54.097 27.68 53.977 27.86 53.917 28.04C53.917 28.16 53.977 28.22 54.037 28.16C54.157 28.16 54.217 28.22 54.277 28.28C54.277 28.34 54.277 28.4 54.277 28.52C54.217 28.58 54.157 28.7 54.097 28.82C53.857 29 53.857 29.18 54.037 29.42C54.037 29.48 54.097 29.6 54.097 29.66C54.097 29.78 54.037 29.9 53.917 29.9C53.857 29.9 53.797 29.9 53.797 29.9C53.797 29.9 53.797 29.84 53.737 29.84C53.737 29.84 53.677 29.84 53.677 29.9C53.677 29.9 53.677 29.9 53.677 29.96C53.617 29.96 53.617 29.96 53.617 30.02C53.497 30.2 53.437 30.38 53.317 30.56C53.197 30.74 53.137 30.98 53.137 31.22C53.137 31.4 53.137 31.64 53.137 31.82C53.017 31.94 52.957 32.06 52.957 32.24C52.897 32.3 52.897 32.36 52.957 32.48V32.54C52.957 32.6 52.957 32.6 53.017 32.6L53.077 32.54C53.077 32.48 53.077 32.48 53.077 32.48C53.197 32.36 53.137 32.18 53.137 32C53.137 31.94 53.197 31.94 53.257 31.88C53.317 31.88 53.317 31.82 53.317 31.82V31.7C53.317 31.64 53.317 31.52 53.377 31.46C53.377 31.4 53.437 31.4 53.437 31.4C53.497 31.34 53.557 31.4 53.557 31.46C53.617 32 53.437 32.48 53.257 32.96C53.137 33.14 53.197 33.26 53.197 33.44L53.137 33.5C53.017 33.56 52.957 33.56 52.957 33.44C52.897 33.38 52.897 33.26 52.837 33.14C52.837 33.08 52.837 33.08 52.837 33.08V33.02C52.837 32.96 52.777 32.96 52.777 32.96C52.717 32.96 52.717 32.96 52.717 33.02V33.08V33.14C52.717 33.14 52.717 33.2 52.657 33.2C52.597 33.38 52.537 33.62 52.477 33.8V33.86C52.477 33.92 52.477 33.92 52.477 33.98C52.417 34.04 52.417 34.16 52.417 34.22C52.417 34.46 52.597 34.58 52.837 34.58C53.017 34.52 53.077 34.58 53.017 34.7C52.957 35 52.897 35.3 52.777 35.6H52.717L52.657 35.54C52.657 35.42 52.657 35.36 52.597 35.3C52.597 35.24 52.597 35.12 52.597 35.06C52.597 35 52.537 34.94 52.537 34.94C52.477 35 52.357 35 52.357 35.06C52.177 35.3 52.177 35.6 52.177 35.84C52.177 36.26 52.177 36.26 52.537 36.56C52.597 36.62 52.597 36.74 52.597 36.8C52.537 36.92 52.477 36.92 52.417 36.86C52.357 36.86 52.297 36.86 52.297 36.86C52.117 36.8 51.997 36.86 51.997 36.98C51.877 37.46 51.937 37.94 51.997 38.42C51.997 38.66 51.997 38.9 52.057 39.08C52.117 39.38 52.177 39.62 52.417 39.86C52.597 39.98 52.477 40.28 52.657 40.46C52.897 40.7 52.957 41 53.317 41.18C53.377 41.24 53.497 41.36 53.557 41.42C53.797 41.84 54.157 42.14 54.397 42.56C54.457 42.68 54.577 42.68 54.697 42.68C54.817 42.62 54.997 42.62 55.057 42.74C55.117 42.98 55.417 42.92 55.537 43.16H55.597C55.597 43.22 55.597 43.22 55.597 43.28V43.34C55.597 43.4 55.597 43.4 55.657 43.4ZM52.897 34.04C52.897 34.04 52.837 34.04 52.837 33.98C52.777 33.92 52.837 33.92 52.897 33.92C52.957 33.92 52.957 33.98 52.957 33.98L52.897 34.04ZM55.417 42.56C55.357 42.56 55.297 42.5 55.297 42.5C55.237 42.44 55.117 42.32 55.057 42.26C54.937 42.14 54.937 42.08 55.117 42.02C55.357 41.9 55.477 41.96 55.477 42.2C55.477 42.26 55.477 42.32 55.477 42.32L55.417 42.56ZM85.1977 39.44H85.1377C84.5377 39.5 83.9977 39.62 83.4577 39.92C82.7377 40.22 82.0177 40.52 81.2377 40.46C80.6377 40.4 79.7977 39.8 79.7377 39.26C79.6777 38.42 79.4977 37.64 79.6777 36.86C79.8577 36.8 79.9177 36.74 79.9177 36.62C80.0377 35.3 80.3977 34.1 80.6377 32.78C80.6977 32.48 80.6377 32.18 80.6977 31.82C80.6977 31.58 80.9977 31.28 80.8777 30.98C80.6977 30.62 80.8177 30.32 80.9977 30.02C81.1177 29.84 81.1177 29.66 81.1777 29.48C81.2377 28.76 81.1177 28.16 80.8177 27.5C80.4577 26.66 80.2177 25.88 79.5577 25.22C79.5577 25.16 79.5577 25.16 79.5577 25.16C79.4977 24.98 79.3777 24.74 79.2577 24.56C79.0777 24.26 78.8977 24.26 78.7177 24.44C78.5377 24.62 78.4177 24.8 78.1177 24.8C77.6377 24.74 77.4577 24.98 77.2177 25.4C76.7377 26.18 76.0777 26.84 75.4777 27.62C75.3577 27.8 75.1777 27.98 75.0577 28.1C74.9377 28.22 74.8177 28.22 74.7577 28.16C74.7577 28.58 74.2177 28.76 74.1577 29.24C74.1577 29.3 74.0377 29.36 73.9777 29.3C73.5577 29 73.4377 29.42 73.2577 29.66C72.1777 31.04 71.1577 32.48 70.1377 33.92C69.8977 34.22 69.6577 34.52 69.3577 34.76C69.2377 34.82 69.1177 34.82 68.9977 34.7C68.9377 34.64 68.8777 34.58 68.9377 34.52C69.0577 33.98 69.1777 33.5 69.3577 32.96C69.5377 32.42 69.7177 31.88 69.8977 31.28C70.0777 30.62 70.0777 29.9 70.3177 29.24C70.4977 28.64 70.8577 28.04 70.7977 27.32C71.4577 25.34 71.8777 23.24 72.8377 21.32C73.1377 20.78 73.0177 20.36 72.6577 19.94C72.2977 19.52 71.8177 19.16 71.6377 18.62C71.5777 18.38 71.3977 18.26 71.1577 18.26C70.7977 18.2 70.5577 18.02 70.5577 17.66C70.4977 17.54 70.4977 17.36 70.4377 17.3C70.1977 17.06 69.8377 16.7 69.5377 16.82C69.0577 16.94 69.6577 17.36 69.4777 17.66L69.7177 17.72C69.6577 17.78 69.5977 17.84 69.4777 17.9V17.84V17.96V17.9C69.4177 18.02 69.2977 18.14 69.2377 18.08C68.7577 17.96 68.6377 18.2 68.5177 18.5C68.3977 18.92 68.3977 19.34 68.2177 19.64C67.7977 20.3 67.7977 20.96 67.7377 21.68C67.2577 22.34 67.0777 23.06 66.8377 23.78C66.7777 23.9 66.8377 24.02 66.8977 24.14C66.5377 24.5 66.5377 24.86 66.7777 25.28C66.8977 25.52 67.1977 25.76 67.1377 26.12H67.1977H67.1377C67.0177 26 66.8977 25.94 66.7777 25.82C66.4177 25.64 66.1177 25.76 66.1177 26.12C66.1177 26.42 66.3577 26.66 66.1777 26.96C66.7777 27.56 66.2977 28.22 66.0577 28.7C65.8777 29.06 65.9377 29.18 66.1777 29.36C66.3577 29.48 66.4177 29.6 66.2377 29.72C65.6977 30.14 65.6977 30.14 65.5177 31.1C64.6777 34.4 64.6777 34.58 64.5577 37.1C64.5577 37.16 64.4977 37.28 64.4977 37.34C64.4977 37.4 64.4377 37.52 64.4977 37.58C64.5577 37.64 64.5577 37.7 64.4977 37.76C64.4377 37.76 64.3777 37.7 64.3777 37.7C64.3777 37.64 64.3777 37.58 64.3777 37.58C64.4377 37.46 64.4377 37.4 64.4377 37.34C64.4377 37.34 64.4377 37.4 64.3777 37.4C64.1377 38 63.8377 38.54 64.5577 39.02C64.7377 39.08 64.6177 39.2 64.6177 39.32C64.5577 39.62 64.6777 39.8 64.8577 40.04C65.1577 40.46 65.5177 40.76 65.9377 41C66.1777 41.18 66.5377 41.18 66.4777 41.54C66.9577 41.9 67.4377 42.32 67.9777 42.62C68.0977 42.74 68.3377 42.8 68.5177 42.62C68.8177 42.32 69.1177 42.08 69.3577 41.78C69.6577 41.36 70.1977 41.42 70.4977 41.12C70.5577 41.06 70.5577 40.94 70.6177 40.88C70.9177 40.58 71.2777 40.34 71.3977 39.86C71.5177 39.44 72.0577 39.32 72.2977 38.9C72.6577 38.12 73.1977 37.46 73.6177 36.74C73.5577 36.38 73.6777 36.2 74.0377 36.14C74.0977 36.08 74.2777 36.08 74.2777 35.96C74.0977 35.42 74.2177 35.3 74.7577 35.48C74.8177 35.54 74.9377 35.42 74.9977 35.3C75.1777 35.12 75.3577 34.88 75.5377 34.64C75.8977 34.52 76.3777 34.46 76.3777 33.86C76.3777 33.62 76.4977 33.44 76.5577 33.26C76.6177 33.14 76.6777 33.08 76.7977 33.08C76.8577 33.14 76.9177 33.26 76.9177 33.32C76.8577 33.98 76.8577 34.64 76.7377 35.36C76.6177 36.32 76.8577 37.94 77.2177 38.9C77.2777 38.96 77.2177 39.08 77.1577 39.14C77.0977 39.14 76.9777 39.14 76.9177 39.14C76.8577 39.08 76.7377 38.96 76.6777 38.9L76.6177 38.96L76.6777 38.9C76.6177 39.14 76.5577 39.32 76.6777 39.5C76.9777 40.16 77.4577 40.7 78.0577 41.12C78.4177 41.36 78.7777 41.6 79.1377 41.84H79.1977H79.1377C79.4977 42.2 80.0977 42.2 80.3377 42.74C80.3977 42.8 80.5777 42.86 80.7577 42.74C81.0577 42.5 81.3577 42.26 81.7777 42.32V42.2L81.8377 42.26C81.8977 42.44 82.0777 42.5 82.1977 42.38C82.4977 42.26 82.6777 41.96 82.7977 41.66C82.9777 41.24 83.0977 41.24 83.6377 41.48C83.6977 41.48 83.7577 41.54 83.8177 41.6C83.7577 41.6 83.7577 41.66 83.7577 41.66C84.2377 41.54 84.2977 41.42 84.3577 40.82V40.76V40.82C84.7777 40.58 84.7177 40.1 85.0177 39.8C84.9577 39.86 84.9577 39.86 84.9577 39.86H85.0177L85.1977 39.44ZM69.4777 17.66C69.4777 17.66 69.4777 17.66 69.4777 17.72V17.66ZM69.4177 17.78C69.4177 17.78 69.4777 17.78 69.4777 17.84V17.72C69.4777 17.72 69.4177 17.72 69.4177 17.78ZM70.0777 17.96C70.1377 18.02 70.1377 18.02 70.1377 18.08L70.0777 18.14C69.9577 18.08 69.9577 18.02 70.0777 17.96ZM69.2977 19.22C69.3577 18.98 69.3577 18.68 69.5377 18.56C69.6577 18.44 69.8977 18.68 70.1377 18.56C70.4377 18.38 70.4977 18.5 70.3777 18.74C70.3177 18.86 70.3177 18.98 70.2577 19.1C70.1377 19.4 70.0177 19.16 69.8977 19.1C69.7177 18.98 69.6577 19.22 69.5377 19.28C69.4777 19.34 69.4177 19.28 69.3577 19.28C69.2977 19.28 69.2977 19.22 69.2977 19.22ZM68.0377 21.74C67.9177 21.8 67.7977 21.74 67.7377 21.68C67.7977 21.56 67.8577 21.5 67.9777 21.56C68.0377 21.56 68.0977 21.62 68.0977 21.68L68.0377 21.74ZM66.9577 24.62C66.8977 24.56 66.8377 24.5 66.8377 24.44C66.8377 24.38 66.8977 24.26 66.8977 24.14C66.8977 24.26 66.9577 24.32 66.9577 24.44C67.0177 24.5 66.9577 24.56 66.9577 24.62ZM79.5577 25.16C79.5577 25.16 79.5577 25.1 79.5577 25.16V25.16ZM79.6177 25.22L79.5577 25.16C79.6177 25.22 79.6177 25.22 79.6177 25.22ZM76.4977 27.14C76.4977 27.26 76.4377 27.26 76.3777 27.14C76.3777 27.14 76.3777 27.08 76.4377 27.08C76.4377 27.08 76.4377 27.08 76.4977 27.08V27.14ZM75.3577 27.62C75.2377 27.56 75.1777 27.62 75.2977 27.68C75.2977 27.68 75.3577 27.62 75.4777 27.62C75.4177 27.62 75.3577 27.62 75.3577 27.62ZM74.6977 28.04V28.1C74.6977 28.1 74.6977 28.1 74.7577 28.16C74.7577 28.1 74.7577 28.1 74.7577 28.1L74.6977 28.04ZM74.6977 28.1H74.6377C74.6977 28.16 74.6977 28.16 74.6977 28.1ZM75.4777 28.28H75.5977C75.5977 28.28 75.5977 28.34 75.5377 28.34H75.4777V28.28ZM72.8377 31.28H72.6577V31.22C72.7177 31.22 72.7777 31.22 72.8377 31.22V31.28ZM75.6577 34.46C75.5977 34.52 75.5377 34.58 75.5377 34.64C75.4777 34.58 75.4177 34.52 75.3577 34.46C75.2977 34.34 75.1777 34.22 75.3577 34.16C75.4177 34.1 75.5977 34.1 75.6577 34.16C75.8377 34.22 75.7177 34.34 75.6577 34.46ZM74.4577 34.94L74.5177 34.88V34.94H74.4577ZM78.9577 36.92C78.9577 36.86 78.9577 36.8 78.9577 36.8C79.0777 36.56 79.1977 36.68 79.3777 36.8C79.4377 36.8 79.5577 36.86 79.6777 36.86C79.5577 36.92 79.4977 36.98 79.3777 36.98C79.1977 37.04 79.0777 37.1 78.9577 36.92ZM73.6777 36.8L73.6177 36.68V36.74V36.68C73.6177 36.68 73.6177 36.68 73.6177 36.74L73.6777 36.8ZM85.1977 39.44C85.1377 39.38 85.1377 39.38 85.1977 39.44V39.44ZM85.0177 39.8V39.86V39.8ZM83.8177 41.6L83.7577 41.42C83.8177 41.48 83.8177 41.54 83.8177 41.6ZM83.6977 41.72H83.7577C83.7577 41.72 83.7577 41.66 83.6977 41.66L83.7577 41.72C83.7577 41.66 83.7577 41.66 83.7577 41.66C83.7577 41.66 83.7577 41.66 83.6977 41.66V41.72ZM83.5177 41.78L83.6977 41.72C83.5777 41.72 83.5177 41.66 83.5177 41.78ZM81.2977 42.8H81.4177L81.3577 42.74L81.2977 42.8ZM102.08 55.7C102.14 55.76 102.26 55.7 102.32 55.7C102.32 55.64 102.38 55.52 102.38 55.52C102.14 55.34 102.14 55.1 102.14 54.86C102.14 54.74 102.14 54.68 102.32 54.68C102.38 54.62 102.38 54.62 102.44 54.62C102.44 54.68 102.44 54.68 102.5 54.68C102.56 54.74 102.56 54.74 102.56 54.8C102.56 54.86 102.56 54.86 102.56 54.86C102.56 54.92 102.56 54.92 102.56 54.98C102.56 55.04 102.62 55.04 102.62 55.04C102.68 55.04 102.68 55.04 102.68 54.98C102.68 54.86 102.74 54.68 102.56 54.62C102.56 54.56 102.5 54.56 102.5 54.56C102.56 54.26 102.5 53.9 102.44 53.6C102.38 53.36 102.32 53.12 102.32 52.88C102.26 51.86 102.2 50.84 102.2 49.76C102.2 49.22 102.32 48.68 102.38 48.14C102.56 47.3 102.74 46.58 102.86 45.74C102.98 44.66 103.16 43.58 103.46 42.44C103.58 41.9 103.7 41.36 103.94 40.88C104.12 39.74 104.54 38.66 104.9 37.52C105.14 36.56 105.5 35.66 105.74 34.64C105.8 34.4 105.86 34.1 105.98 33.86C106.52 32.3 107 30.74 107.6 29.24C107.78 28.76 107.96 28.28 108.14 27.8C108.38 27.32 108.56 26.84 108.74 26.36C108.98 25.7 109.16 25.04 109.34 24.38C109.4 24.26 109.46 24.14 109.46 24.08C109.46 23.48 109.52 22.94 109.4 22.4C109.22 21.38 108.98 20.42 108.5 19.52C108.32 19.22 108.08 18.98 107.66 18.92C107.48 18.92 107.36 18.92 107.18 18.92C106.88 18.92 106.64 19.04 106.4 19.22C106.34 19.28 106.22 19.28 106.1 19.22C105.86 19.1 105.8 19.16 105.68 19.28C105.2 20.18 104.96 21.14 104.48 21.98C104.3 22.82 103.76 23.42 103.34 24.08C103.22 24.26 103.04 24.38 102.98 24.56C102.86 24.86 102.62 25.16 102.5 25.52C102.38 25.88 102.02 26 101.84 26.36C101.84 26.48 101.72 26.54 101.66 26.66C101.12 27.56 100.46 28.34 99.8002 29.12C99.4402 29.6 99.0202 30.08 98.6002 30.5C97.8202 31.28 97.0402 32.06 96.2002 32.84C95.6602 33.32 95.1202 33.8 94.5202 34.16C94.3402 34.28 94.1002 34.4 93.8602 34.46C93.7402 34.52 93.0202 34.88 92.9002 34.82C92.8402 34.76 92.8402 34.7 92.8402 34.58C92.9002 34.22 93.4402 32.66 93.5002 32.3C93.5602 31.76 93.6802 31.22 93.8602 30.68C94.4602 28.94 94.9402 27.14 95.7202 25.46C95.9602 24.98 95.9602 24.38 95.8402 23.84C95.7802 23.54 95.7202 23.3 95.6602 23C95.5402 22.4 95.3602 22.58 95.1802 21.98C95.1802 21.92 95.1802 21.92 95.1802 21.86C94.8202 21.56 94.5202 21.2 94.1602 20.84C94.1002 20.78 94.0402 20.78 93.9802 20.72C93.7402 20.6 93.5002 20.6 93.2602 20.6C93.0202 20.6 92.9002 20.78 92.7802 20.9C92.5402 21.02 92.3602 21.2 92.3002 21.44C92.1202 22.16 91.8202 22.88 91.7002 23.6C91.5202 24.26 91.2802 24.92 90.9802 25.52C90.8002 25.94 90.6202 26.3 90.5002 26.72C90.2602 27.56 90.0202 28.34 89.7802 29.18C89.6002 29.66 89.4202 30.2 89.2402 30.74C89.1802 30.98 89.1202 31.22 89.1202 31.46C89.0602 32.18 89.0602 32.96 89.0602 33.74C89.0602 34.34 89.3002 34.88 89.6602 35.36C89.7802 35.6 89.9602 35.78 90.0802 35.96C90.2002 36.14 90.3202 36.26 90.4402 36.44C90.7402 37.04 91.2202 37.34 91.7602 37.82L91.8202 37.88C91.9402 38.18 92.0602 38.42 92.3002 38.54C92.5402 38.66 92.7202 38.96 92.9602 39.08C93.2002 39.14 93.3802 39.32 93.6202 39.38C93.9202 39.5 94.2202 39.62 94.5202 39.68C94.6402 39.74 94.8202 39.68 95.0002 39.68C95.1802 39.62 95.3602 39.56 95.5402 39.5C96.3802 39.38 96.8002 39.2 97.3402 38.72C98.1202 38 98.8402 37.28 99.5602 36.5C99.6802 36.44 99.7402 36.38 99.8602 36.32C99.9202 36.26 100.04 36.26 100.1 36.26C100.28 36.32 100.4 36.26 100.46 36.08C100.52 36.02 100.58 35.9 100.64 35.78C100.7 35.66 100.82 35.6 100.88 35.54C100.94 35.48 101 35.42 101.12 35.48C101.18 35.54 101.24 35.6 101.24 35.66C101.18 36.56 101 37.4 100.76 38.24C100.7 38.42 100.64 38.6 100.7 38.84C100.76 39.08 100.7 39.38 100.58 39.62C100.4 40.1 100.34 40.58 100.22 41C100.16 41.3 100.16 41.54 100.34 41.84C100.4 41.9 100.4 42.08 100.34 42.14C100.28 42.44 100.34 42.68 100.34 42.98C100.34 43.16 100.28 43.28 100.1 43.34C100.04 43.4 99.9802 43.46 100.04 43.52C100.1 43.64 100.28 43.7 100.16 43.82C99.9202 44.12 99.8002 44.48 99.9202 44.84C100.04 45.02 99.9202 45.14 99.9202 45.32C99.9202 45.44 99.8602 45.62 99.9802 45.74C100.1 45.98 100.04 46.16 99.9202 46.28C99.8002 46.4 99.7402 46.58 99.8602 46.7C99.9202 46.76 99.9802 46.88 99.9802 46.94C99.8602 47.48 99.8602 48.02 100.1 48.56C100.16 48.68 100.1 48.86 100.1 49.04C100.16 49.46 100.16 49.94 100.16 50.36C100.4 50.66 100.4 50.96 100.34 51.26C100.28 51.5 100.34 51.68 100.4 51.86C100.58 52.22 100.64 52.64 100.58 53C100.58 53.36 100.7 53.66 100.94 53.9C101 53.96 101.06 54.02 101.06 54.08C101.3 54.26 101.3 54.32 101.42 54.74C101.48 54.8 101.48 54.86 101.54 54.86C101.54 55.04 101.36 55.22 101.6 55.4C101.78 55.46 101.9 55.64 102.08 55.7ZM132.393 22.82C132.273 22.58 132.093 22.34 132.033 22.04C131.913 21.38 131.613 20.84 131.073 20.48C130.713 20.18 130.653 19.7 130.233 19.46C130.173 19.22 130.113 18.98 129.993 18.8C129.993 18.68 129.933 18.56 129.873 18.44C129.873 18.44 129.813 18.38 129.753 18.44C129.573 18.44 129.393 18.62 129.333 18.8C129.153 19.04 129.033 19.28 129.033 19.52C128.973 20.24 128.733 20.84 128.733 21.56C128.733 21.8 128.613 22.1 128.493 22.34C128.493 22.46 128.433 22.58 128.373 22.7C128.313 22.7 128.193 22.76 128.133 22.76C128.013 22.7 127.893 22.64 127.893 22.52C127.653 22.16 127.353 21.8 127.233 21.38C127.173 21.14 127.053 21.02 126.933 20.9C126.753 20.72 126.633 20.6 126.453 20.48C126.273 20.3 126.093 20.24 125.853 20.18C125.613 20.18 125.493 20 125.253 20.12C125.073 20 124.833 19.94 124.653 19.82C124.533 19.76 124.413 19.76 124.293 19.82C124.173 19.88 124.053 19.94 123.993 20C123.873 20.06 123.753 20 123.633 19.94C123.573 19.88 123.453 19.82 123.333 19.82C123.153 19.76 123.033 19.82 122.913 19.94C122.793 20 122.733 20.12 122.673 20.18C122.613 20.3 122.553 20.3 122.433 20.24C122.313 20.18 122.133 20.18 122.013 20.3C121.413 20.72 120.753 21.14 120.153 21.62C119.793 21.92 119.493 22.28 119.193 22.64C118.893 22.94 118.713 23.3 118.473 23.6C118.233 23.96 117.873 24.14 117.693 24.5C117.573 24.74 117.333 24.92 117.213 25.16C117.033 25.4 116.913 25.64 116.793 25.88C116.733 25.94 116.733 26.06 116.673 26.12C116.613 26.18 116.553 26.3 116.433 26.36C116.073 26.66 115.773 27.08 115.593 27.5C115.413 27.92 115.113 28.22 114.933 28.64C114.633 28.88 114.513 29.18 114.393 29.54C114.393 29.72 114.333 29.84 114.213 29.96C113.913 30.56 113.673 31.22 113.433 31.88C113.253 32.48 113.133 33.2 112.953 33.8C112.893 33.92 112.893 34.04 112.953 34.16C112.953 34.76 113.073 35.3 113.313 35.78C113.433 36.02 113.553 36.2 113.613 36.44C113.733 37.16 114.153 37.76 114.453 38.42C114.453 38.54 114.573 38.6 114.693 38.66C114.753 38.72 114.813 38.72 114.813 38.78C114.873 38.78 114.873 38.84 114.873 38.84C114.873 38.9 114.873 38.9 114.873 38.9C114.873 38.96 114.873 38.96 114.873 39.02C114.873 39.02 114.873 39.08 114.933 39.08C114.993 39.08 114.993 39.08 114.993 39.02C114.993 38.96 114.993 38.96 114.993 38.96C114.993 38.9 114.993 38.84 114.993 38.78C114.933 38.72 114.933 38.66 114.873 38.6C114.873 38.54 114.933 38.54 114.993 38.54C115.053 38.48 115.173 38.54 115.173 38.54C115.353 38.96 115.773 39.2 115.833 39.68C115.833 39.74 115.893 39.86 115.953 39.86C116.253 39.98 116.493 40.1 116.733 40.22C116.853 40.28 116.973 40.22 117.093 40.22C117.453 40.28 117.873 40.34 118.233 40.22C118.653 40.34 118.953 40.16 119.253 39.98C119.613 39.8 119.973 39.62 120.273 39.32C120.573 39.08 120.873 38.84 121.113 38.54C121.173 38.54 121.173 38.48 121.173 38.48C121.593 38.12 122.013 37.64 122.313 37.16C122.433 36.98 122.553 36.86 122.733 36.74C122.853 36.56 123.033 36.5 123.153 36.32C123.513 35.78 124.053 35.42 124.473 34.94C124.533 34.82 124.713 34.82 124.773 34.88C124.833 35 124.893 35.12 124.833 35.18C124.653 35.72 124.653 36.32 124.713 36.86C124.773 37.52 124.833 38.18 124.953 38.9C124.953 39.08 125.013 39.26 125.073 39.44C125.373 40.04 125.613 40.64 125.913 41.18C125.973 41.36 126.093 41.54 126.213 41.72C126.573 42.08 126.933 42.44 127.293 42.86C127.353 42.92 127.533 42.86 127.593 42.8C127.713 42.62 127.773 42.44 127.773 42.2C127.653 41.24 127.773 40.22 127.773 39.26C127.773 38.78 128.013 38.42 127.953 37.94C127.953 37.82 128.013 37.64 128.073 37.46C128.133 37.28 128.253 37.1 128.313 36.92C128.553 36.44 128.913 35.6 128.973 35.24C128.973 35 129.093 34.7 129.213 34.46C129.333 34.22 129.393 33.92 129.453 33.68C129.693 32.78 129.933 31.82 130.173 30.92C130.473 29.96 130.773 29 131.133 28.1C131.433 27.26 131.733 26.42 131.913 25.58C132.033 25.1 132.153 24.56 132.333 24.08C132.393 23.96 132.453 23.78 132.453 23.6C132.513 23.36 132.513 23.06 132.393 22.82ZM126.333 27.74C126.213 27.86 126.093 27.98 126.153 28.16C126.273 28.52 126.213 28.82 125.973 29.06C125.853 29.24 125.913 29.36 126.033 29.48C126.213 29.66 126.213 29.72 126.093 29.84C125.973 30.02 125.793 30.26 125.553 30.26C125.373 30.26 125.253 30.38 125.133 30.5C125.013 30.62 124.893 30.62 124.773 30.44C124.713 30.38 124.713 30.32 124.653 30.26C124.473 30.32 124.233 30.26 124.113 30.44C123.873 30.74 123.573 30.86 123.393 31.22C123.333 31.34 123.153 31.46 123.033 31.52C122.673 31.76 122.253 31.94 121.833 32.12C121.713 32.18 121.653 32.06 121.533 31.94C121.473 31.94 121.413 31.82 121.353 31.82C121.293 31.82 121.233 31.88 121.173 31.94C121.053 31.94 120.993 32 120.933 32.06C120.573 32.66 119.913 32.96 119.433 33.38C119.073 33.68 118.713 33.86 118.293 34.04C118.053 34.1 117.753 34.22 117.513 34.34C117.453 34.34 117.393 34.34 117.273 34.28C117.213 34.28 117.153 34.1 117.213 33.98C117.213 33.92 117.273 33.86 117.273 33.74C117.573 33.2 117.813 32.6 118.113 32C118.413 31.34 118.833 30.74 119.253 30.08C119.673 29.36 120.213 28.7 120.693 27.98C120.993 27.44 121.533 27.08 121.893 26.54C122.913 25.7 123.993 24.98 125.313 24.74C125.493 24.68 125.673 24.74 125.793 24.74C125.913 24.74 126.093 24.92 126.033 24.98C126.033 25.76 126.273 26.54 126.453 27.32C126.453 27.5 126.393 27.62 126.333 27.74ZM125.733 28.76L125.793 28.64L125.673 28.7L125.733 28.76ZM115.413 29.48L115.353 29.42H115.413V29.48ZM125.013 30.02C125.133 29.84 125.373 29.9 125.493 29.84C125.553 29.84 125.553 29.78 125.553 29.78C125.553 29.66 125.373 29.48 125.253 29.42C125.193 29.42 125.133 29.48 125.073 29.48C124.773 29.66 124.713 29.96 124.653 30.2C124.773 30.14 124.953 30.08 125.013 30.02ZM124.653 30.2C124.653 30.26 124.653 30.26 124.653 30.26V30.2ZM122.553 30.74C122.493 30.8 122.433 30.8 122.373 30.86L122.433 30.92C122.553 30.92 122.613 30.92 122.613 30.86C122.613 30.8 122.553 30.74 122.553 30.74ZM121.473 32.6L121.413 32.54C121.473 32.48 121.533 32.48 121.593 32.48L121.653 32.54C121.593 32.54 121.533 32.6 121.473 32.6ZM120.693 33.2C120.693 33.14 120.633 33.14 120.633 33.08H120.693C120.693 33.14 120.693 33.14 120.693 33.2ZM166.829 5.12C166.829 5 166.709 4.88 166.589 4.82C166.529 4.76 166.469 4.76 166.469 4.76C165.989 4.52 165.989 4.46 166.109 4.04C166.169 3.92 166.169 3.86 166.169 3.8C165.929 3.5 165.749 3.2 165.749 2.78C165.749 2.78 165.749 2.72 165.689 2.72C165.509 2.54 165.329 2.42 165.089 2.42C164.969 2.42 164.849 2.48 164.729 2.54C164.549 2.78 164.429 3.08 164.249 3.32C164.009 3.56 163.829 3.86 163.649 4.1C163.109 4.82 162.629 5.54 162.029 6.2C161.249 7.16 160.469 8.06 159.569 8.96C159.329 9.2 159.089 9.44 158.849 9.74C158.849 9.8 158.789 9.92 158.729 9.92C158.489 10.04 158.309 10.16 158.129 10.34C158.009 10.58 157.769 10.76 157.589 10.94C157.409 11.42 157.049 11.66 156.689 11.84C156.209 12.08 155.849 12.38 155.609 12.8C155.489 12.98 155.309 13.1 155.069 13.28C154.829 13.4 154.649 13.58 154.409 13.7C154.109 13.88 154.049 14.18 153.869 14.36C153.809 14.42 153.749 14.48 153.689 14.48C153.449 14.6 153.389 14.72 153.329 14.96C153.329 15.14 153.329 15.32 153.149 15.5H153.089C153.029 15.5 152.969 15.44 152.969 15.38C153.029 15.32 153.089 15.2 153.089 15.08C153.089 15.02 153.029 14.96 152.969 14.9C152.909 14.9 152.849 14.9 152.849 14.9L152.489 15.26C152.249 15.38 152.189 15.56 152.309 15.8C152.369 16.04 152.309 16.16 152.189 16.4C152.009 16.7 151.769 16.82 151.409 16.76C151.349 16.76 151.289 16.76 151.169 16.76V16.94C151.169 17 151.109 17.06 151.109 17.06C150.989 17.06 150.989 17 151.049 16.88C151.049 16.82 151.109 16.82 151.169 16.76C151.169 16.64 151.169 16.58 151.109 16.52C151.049 16.34 150.929 16.28 150.749 16.34C150.689 16.34 150.569 16.4 150.569 16.46C150.449 16.64 150.209 16.76 150.029 16.88C149.549 17.06 149.129 17.24 148.709 17.48C148.529 17.54 148.349 17.6 148.229 17.78C148.109 17.96 147.869 17.96 147.809 18.2C147.749 18.26 147.689 18.32 147.629 18.32C147.329 18.26 147.209 18.5 146.969 18.56C146.849 18.62 146.549 18.5 146.489 18.38C146.429 18.26 146.429 18.14 146.369 18.02C146.369 17.72 146.429 17.36 146.489 17.06C146.789 16.1 146.909 15.02 147.089 14C147.149 13.34 147.269 12.68 147.449 12.02C147.509 11.66 147.509 11.3 147.629 10.94C147.749 10.64 147.809 10.28 147.869 9.92C147.869 9.74 147.869 9.56 147.929 9.44C148.229 8.66 148.229 7.76 148.469 6.98C148.529 6.32 148.769 5.66 148.829 5C148.889 4.7 148.889 4.46 148.829 4.16C148.649 3.56 148.349 3.08 147.989 2.6C147.809 2.36 147.689 2.12 147.449 1.94C147.149 1.7 146.849 1.4 146.549 1.16C146.249 0.919997 145.889 0.679996 145.649 0.379997C145.589 0.259998 145.469 0.199999 145.349 0.259998C145.229 0.259998 145.109 0.439999 145.109 0.619997C145.169 0.859998 145.169 1.04 145.169 1.22C145.169 1.52 145.169 1.82 145.109 2.06C144.869 3.14 144.749 4.16 144.509 5.24C144.389 5.84 144.389 6.5 144.089 7.1C144.029 7.22 144.029 7.34 143.969 7.46C143.849 8.42 143.549 9.38 143.429 10.4C143.369 10.7 143.249 11 143.249 11.3C143.249 11.66 143.129 12.02 143.129 12.38C143.189 12.62 143.129 12.86 143.069 13.1C142.949 13.28 142.889 13.52 142.889 13.76C142.829 13.88 142.889 14 142.949 14.12C143.069 14.3 143.069 14.48 143.009 14.66C142.889 14.96 142.829 15.26 142.709 15.56C142.589 15.74 142.589 15.86 142.709 16.04C142.769 16.16 142.769 16.34 142.649 16.52C142.529 16.76 142.649 17.06 142.529 17.3C142.469 17.6 142.349 17.84 142.349 18.14C142.349 18.38 142.289 18.56 142.169 18.8C142.109 18.92 142.109 19.04 142.169 19.16C142.229 19.22 142.229 19.28 142.229 19.34C142.169 19.76 142.169 20.24 141.689 20.54C141.629 20.6 141.509 20.66 141.449 20.72C141.149 21.08 140.969 21.44 140.669 21.8C140.429 22.22 140.009 22.46 139.769 22.88C139.709 22.94 139.769 23.06 139.829 23.12C139.829 23.18 139.949 23.18 140.009 23.18C140.069 23.18 140.129 23.12 140.249 23.12C140.249 23.12 140.309 23.18 140.309 23.24C140.309 23.24 140.309 23.3 140.249 23.3C140.009 23.42 139.469 23.48 138.989 23.42C138.929 23.42 138.809 23.36 138.749 23.42C138.509 23.84 138.269 24.2 138.449 24.74L138.629 25.46C138.749 26 138.929 26.54 139.169 27.02C139.409 27.38 139.589 27.8 139.769 28.22C139.889 28.64 140.069 29.06 140.309 29.54C140.369 29.66 140.369 29.84 140.369 29.96C140.369 30.26 140.369 30.56 140.249 30.8C140.069 31.16 140.069 31.58 140.189 32C140.249 32.12 140.249 32.3 140.189 32.42L140.009 33.14C139.949 33.26 139.949 33.38 139.949 33.44C140.009 33.68 140.069 33.86 140.009 34.04C139.889 34.4 139.889 34.76 140.009 35.12C140.069 35.18 140.069 35.36 140.009 35.42C139.769 35.72 139.709 36.02 139.709 36.32C139.709 37.4 139.649 38.42 139.649 39.44C139.649 39.98 139.709 40.46 139.529 41C139.469 41 139.529 41.06 139.529 41.12C139.709 41.3 139.589 41.48 139.529 41.66C139.529 41.9 139.529 41.9 139.169 41.84C139.049 41.84 138.989 41.84 138.989 41.96C138.869 42.32 139.049 42.68 139.049 42.98C139.049 43.04 139.109 43.04 139.169 43.1H139.229C139.289 43.04 139.289 42.98 139.289 42.98C139.289 42.8 139.169 42.62 139.229 42.44L139.409 42.26C139.469 42.26 139.529 42.26 139.589 42.38C139.649 42.74 139.589 43.1 139.829 43.46C139.889 43.64 139.829 43.82 139.769 44C139.649 44.18 139.709 44.3 139.829 44.42C140.009 44.48 140.129 44.6 140.309 44.48C140.429 44.48 140.489 44.42 140.609 44.54C140.909 44.66 141.029 45.02 141.449 44.96C141.449 44.96 141.569 45.08 141.569 45.14C141.629 45.2 141.629 45.26 141.629 45.38C141.689 45.56 141.869 45.68 142.049 45.74C142.229 45.86 142.469 45.74 142.469 45.56C142.529 44.84 142.589 44.12 142.529 43.4C142.469 42.98 142.469 42.62 142.469 42.2C142.409 41.78 142.529 41.42 142.589 41C142.589 40.64 142.589 40.28 142.649 39.92C142.769 39.62 142.709 39.26 142.769 38.9C142.889 38.24 142.949 37.58 143.009 36.86C143.009 36.14 143.249 35.48 143.309 34.76C143.309 34.58 143.429 34.34 143.489 34.16C143.489 34.1 143.729 34.04 143.789 34.1C143.909 34.22 144.029 34.34 144.089 34.46C145.409 35.84 145.229 35.84 146.969 37.16L147.149 37.34C147.449 37.64 147.869 37.82 148.229 38.06C148.529 38.24 148.829 38.24 149.129 38.36C149.309 38.36 149.489 38.42 149.609 38.42C150.329 38.6 151.409 38.78 152.069 38.84C152.729 38.9 153.389 38.84 154.049 38.66C154.469 38.66 154.829 38.36 155.249 38.3C155.489 38.3 155.609 38.06 155.849 38C156.029 37.88 156.209 37.76 156.389 37.7C156.749 37.64 157.049 37.46 157.289 37.22C157.469 37.04 157.709 36.92 157.949 36.86C158.009 36.8 158.129 36.74 158.189 36.62C158.369 36.38 158.549 36.2 158.729 36.02C159.209 35.6 159.569 35.18 159.689 34.52C159.689 34.28 159.929 33.98 159.929 33.74C159.989 33.44 159.929 33.08 159.869 32.78C159.869 32.48 159.869 32.24 159.809 31.94C159.749 31.7 159.629 31.52 159.329 31.46C159.089 31.34 158.849 31.46 158.729 31.64C158.549 31.76 158.489 31.94 158.369 32.12C158.309 32.24 158.189 32.3 158.069 32.24C157.949 32.24 157.829 32.18 157.709 32.24C157.469 32.36 157.289 32.42 157.049 32.54C156.449 32.84 155.909 33.2 155.309 33.56C153.929 34.46 152.489 35.06 150.809 35C149.669 35.18 148.589 34.76 147.629 34.22C146.669 33.74 145.769 33.14 145.049 32.3C144.749 31.94 144.509 31.58 144.209 31.28C144.029 31.1 143.969 30.86 143.969 30.62C144.029 30.2 144.089 29.78 144.149 29.42C144.209 28.76 144.329 28.16 144.449 27.56C144.569 27.14 144.629 26.78 144.689 26.36C144.749 25.88 145.049 25.46 145.469 25.16C145.589 25.04 145.769 24.98 145.949 24.86C146.249 24.74 146.549 24.62 146.789 24.38C146.909 24.26 147.149 24.26 147.329 24.14C147.509 23.96 147.869 24.02 148.049 23.72C148.229 23.48 148.589 23.66 148.769 23.42C149.249 23.18 149.669 22.76 150.209 22.58C150.629 22.22 151.109 21.92 151.589 21.68C152.129 21.44 152.489 21.02 152.909 20.66C153.029 20.6 153.149 20.6 153.269 20.54C153.569 20.24 153.869 20.06 154.229 19.82C155.249 18.98 156.329 18.14 157.349 17.24C157.529 17.12 157.709 16.94 157.889 16.76C158.069 16.64 158.249 16.58 158.429 16.46C158.549 16.34 158.609 16.16 158.729 15.98C158.789 15.92 158.849 15.86 158.969 15.86C159.509 15.68 159.749 15.08 160.289 14.9C160.469 14.48 160.829 14.3 161.189 14.12C161.309 14.06 161.429 14 161.489 13.94C161.849 13.52 162.329 13.22 162.629 12.68C162.689 12.62 162.749 12.5 162.869 12.44C163.529 11.96 164.129 11.36 164.669 10.76C164.849 10.58 164.969 10.46 164.969 10.22C165.029 9.98 165.389 10.04 165.509 9.8C165.689 9.5 166.049 9.2 166.229 8.84C166.289 8.66 166.469 8.48 166.349 8.18C166.349 8.12 166.409 8.06 166.409 8C166.529 7.82 166.709 7.64 166.769 7.52C166.829 7.34 166.889 7.1 166.889 6.92C167.069 6.32 167.009 5.72 166.829 5.12ZM155.549 13.58H155.429C155.429 13.58 155.429 13.52 155.429 13.46H155.549C155.609 13.46 155.669 13.52 155.549 13.58ZM154.229 14.9C154.169 14.96 154.109 14.9 154.109 14.78L154.169 14.72C154.229 14.72 154.229 14.78 154.229 14.78V14.9ZM151.769 15.74V15.68C151.709 15.68 151.709 15.68 151.709 15.8C151.709 15.74 151.709 15.74 151.769 15.74ZM151.589 15.98C151.649 15.92 151.649 15.86 151.649 15.8C151.589 15.86 151.529 15.86 151.469 15.92C151.409 15.98 151.469 15.98 151.589 15.98ZM149.069 18.08C149.069 18.08 149.009 18.14 149.009 18.08H148.949C149.009 18.02 149.069 18.02 149.129 18.02C149.129 18.08 149.129 18.08 149.069 18.08ZM139.289 39.2C139.289 39.14 139.229 39.08 139.109 39.08C139.109 39.14 139.049 39.14 139.049 39.2L139.109 39.26H139.229C139.289 39.26 139.289 39.2 139.289 39.2ZM139.229 43.7V43.88C139.229 43.94 139.289 43.94 139.289 44C139.349 43.94 139.409 43.88 139.409 43.82V43.64C139.409 43.58 139.349 43.52 139.289 43.46C139.289 43.52 139.229 43.58 139.229 43.7ZM187.143 22.82C187.023 22.58 186.843 22.34 186.783 22.04C186.663 21.38 186.363 20.84 185.823 20.48C185.463 20.18 185.403 19.7 184.983 19.46C184.923 19.22 184.863 18.98 184.743 18.8C184.743 18.68 184.683 18.56 184.623 18.44C184.623 18.44 184.563 18.38 184.503 18.44C184.323 18.44 184.143 18.62 184.083 18.8C183.903 19.04 183.783 19.28 183.783 19.52C183.723 20.24 183.483 20.84 183.483 21.56C183.483 21.8 183.363 22.1 183.243 22.34C183.243 22.46 183.183 22.58 183.123 22.7C183.063 22.7 182.943 22.76 182.883 22.76C182.763 22.7 182.643 22.64 182.643 22.52C182.403 22.16 182.103 21.8 181.983 21.38C181.923 21.14 181.803 21.02 181.683 20.9C181.503 20.72 181.383 20.6 181.203 20.48C181.023 20.3 180.843 20.24 180.603 20.18C180.363 20.18 180.243 20 180.003 20.12C179.823 20 179.583 19.94 179.403 19.82C179.283 19.76 179.163 19.76 179.043 19.82C178.923 19.88 178.803 19.94 178.743 20C178.623 20.06 178.503 20 178.383 19.94C178.323 19.88 178.203 19.82 178.083 19.82C177.903 19.76 177.783 19.82 177.663 19.94C177.543 20 177.483 20.12 177.423 20.18C177.363 20.3 177.303 20.3 177.183 20.24C177.063 20.18 176.883 20.18 176.763 20.3C176.163 20.72 175.503 21.14 174.903 21.62C174.543 21.92 174.243 22.28 173.943 22.64C173.643 22.94 173.463 23.3 173.223 23.6C172.983 23.96 172.623 24.14 172.443 24.5C172.323 24.74 172.083 24.92 171.963 25.16C171.783 25.4 171.663 25.64 171.543 25.88C171.483 25.94 171.483 26.06 171.423 26.12C171.363 26.18 171.303 26.3 171.183 26.36C170.823 26.66 170.523 27.08 170.343 27.5C170.163 27.92 169.863 28.22 169.683 28.64C169.383 28.88 169.263 29.18 169.143 29.54C169.143 29.72 169.083 29.84 168.963 29.96C168.663 30.56 168.423 31.22 168.183 31.88C168.003 32.48 167.883 33.2 167.703 33.8C167.643 33.92 167.643 34.04 167.703 34.16C167.703 34.76 167.823 35.3 168.063 35.78C168.183 36.02 168.303 36.2 168.363 36.44C168.483 37.16 168.903 37.76 169.203 38.42C169.203 38.54 169.323 38.6 169.443 38.66C169.503 38.72 169.563 38.72 169.563 38.78C169.623 38.78 169.623 38.84 169.623 38.84C169.623 38.9 169.623 38.9 169.623 38.9C169.623 38.96 169.623 38.96 169.623 39.02C169.623 39.02 169.623 39.08 169.683 39.08C169.743 39.08 169.743 39.08 169.743 39.02C169.743 38.96 169.743 38.96 169.743 38.96C169.743 38.9 169.743 38.84 169.743 38.78C169.683 38.72 169.683 38.66 169.623 38.6C169.623 38.54 169.683 38.54 169.743 38.54C169.803 38.48 169.923 38.54 169.923 38.54C170.103 38.96 170.523 39.2 170.583 39.68C170.583 39.74 170.643 39.86 170.703 39.86C171.003 39.98 171.243 40.1 171.483 40.22C171.603 40.28 171.723 40.22 171.843 40.22C172.203 40.28 172.623 40.34 172.983 40.22C173.403 40.34 173.703 40.16 174.003 39.98C174.363 39.8 174.723 39.62 175.023 39.32C175.323 39.08 175.623 38.84 175.863 38.54C175.923 38.54 175.923 38.48 175.923 38.48C176.343 38.12 176.763 37.64 177.063 37.16C177.183 36.98 177.303 36.86 177.483 36.74C177.603 36.56 177.783 36.5 177.903 36.32C178.263 35.78 178.803 35.42 179.223 34.94C179.283 34.82 179.463 34.82 179.523 34.88C179.583 35 179.643 35.12 179.583 35.18C179.403 35.72 179.403 36.32 179.463 36.86C179.523 37.52 179.583 38.18 179.703 38.9C179.703 39.08 179.763 39.26 179.823 39.44C180.123 40.04 180.363 40.64 180.663 41.18C180.723 41.36 180.843 41.54 180.963 41.72C181.323 42.08 181.683 42.44 182.043 42.86C182.103 42.92 182.283 42.86 182.343 42.8C182.463 42.62 182.523 42.44 182.523 42.2C182.403 41.24 182.523 40.22 182.523 39.26C182.523 38.78 182.763 38.42 182.703 37.94C182.703 37.82 182.763 37.64 182.823 37.46C182.883 37.28 183.003 37.1 183.063 36.92C183.303 36.44 183.663 35.6 183.723 35.24C183.723 35 183.843 34.7 183.963 34.46C184.083 34.22 184.143 33.92 184.203 33.68C184.443 32.78 184.683 31.82 184.923 30.92C185.223 29.96 185.523 29 185.883 28.1C186.183 27.26 186.483 26.42 186.663 25.58C186.783 25.1 186.903 24.56 187.083 24.08C187.143 23.96 187.203 23.78 187.203 23.6C187.263 23.36 187.263 23.06 187.143 22.82ZM181.083 27.74C180.963 27.86 180.843 27.98 180.903 28.16C181.023 28.52 180.963 28.82 180.723 29.06C180.603 29.24 180.663 29.36 180.783 29.48C180.963 29.66 180.963 29.72 180.843 29.84C180.723 30.02 180.543 30.26 180.303 30.26C180.123 30.26 180.003 30.38 179.883 30.5C179.763 30.62 179.643 30.62 179.523 30.44C179.463 30.38 179.463 30.32 179.403 30.26C179.223 30.32 178.983 30.26 178.863 30.44C178.623 30.74 178.323 30.86 178.143 31.22C178.083 31.34 177.903 31.46 177.783 31.52C177.423 31.76 177.003 31.94 176.583 32.12C176.463 32.18 176.403 32.06 176.283 31.94C176.223 31.94 176.163 31.82 176.103 31.82C176.043 31.82 175.983 31.88 175.923 31.94C175.803 31.94 175.743 32 175.683 32.06C175.323 32.66 174.663 32.96 174.183 33.38C173.823 33.68 173.463 33.86 173.043 34.04C172.803 34.1 172.503 34.22 172.263 34.34C172.203 34.34 172.143 34.34 172.023 34.28C171.963 34.28 171.903 34.1 171.963 33.98C171.963 33.92 172.023 33.86 172.023 33.74C172.323 33.2 172.563 32.6 172.863 32C173.163 31.34 173.583 30.74 174.003 30.08C174.423 29.36 174.963 28.7 175.443 27.98C175.743 27.44 176.283 27.08 176.643 26.54C177.663 25.7 178.743 24.98 180.063 24.74C180.243 24.68 180.423 24.74 180.543 24.74C180.663 24.74 180.843 24.92 180.783 24.98C180.783 25.76 181.023 26.54 181.203 27.32C181.203 27.5 181.143 27.62 181.083 27.74ZM180.483 28.76L180.543 28.64L180.423 28.7L180.483 28.76ZM170.163 29.48L170.103 29.42H170.163V29.48ZM179.763 30.02C179.883 29.84 180.123 29.9 180.243 29.84C180.303 29.84 180.303 29.78 180.303 29.78C180.303 29.66 180.123 29.48 180.003 29.42C179.943 29.42 179.883 29.48 179.823 29.48C179.523 29.66 179.463 29.96 179.403 30.2C179.523 30.14 179.703 30.08 179.763 30.02ZM179.403 30.2C179.403 30.26 179.403 30.26 179.403 30.26V30.2ZM177.303 30.74C177.243 30.8 177.183 30.8 177.123 30.86L177.183 30.92C177.303 30.92 177.363 30.92 177.363 30.86C177.363 30.8 177.303 30.74 177.303 30.74ZM176.223 32.6L176.163 32.54C176.223 32.48 176.283 32.48 176.343 32.48L176.403 32.54C176.343 32.54 176.283 32.6 176.223 32.6ZM175.443 33.2C175.443 33.14 175.383 33.14 175.383 33.08H175.443C175.443 33.14 175.443 33.14 175.443 33.2ZM197.939 46.04C197.999 46.1 198.059 46.04 198.119 45.98C198.359 45.74 198.419 45.5 198.239 45.26C197.879 44.72 197.759 44.12 197.639 43.58C197.579 43.34 197.519 43.1 197.459 42.86C197.279 41.84 197.039 40.82 197.279 39.8C197.339 39.56 197.279 39.32 197.279 39.08C197.279 38.6 197.279 38.12 197.399 37.64C197.459 37.34 197.399 37.04 197.459 36.68C197.579 36.2 197.759 35.72 197.819 35.18C197.879 34.64 198.119 34.22 198.239 33.68C198.359 33.2 198.479 32.72 198.659 32.24C198.839 31.88 198.959 31.46 198.959 31.04C199.019 30.62 199.199 30.2 199.259 29.78C199.319 29.36 199.499 28.94 199.619 28.52C199.679 28.4 199.739 28.22 199.739 28.04C199.739 27.74 199.859 27.44 199.919 27.14C200.339 25.52 200.939 23.96 201.419 22.34C201.539 21.86 201.719 21.32 201.839 20.84C201.899 20.54 202.079 20.24 202.439 20.18C202.559 20.12 202.739 20 202.799 19.94C202.979 19.76 203.159 19.58 203.039 19.28C202.979 19.22 203.039 19.16 203.099 19.1C203.279 19.04 203.399 19.04 203.579 19.1C203.699 19.1 203.819 19.1 203.879 19.04C204.059 19.04 204.179 18.86 204.239 18.8L204.299 18.74V18.68C204.239 18.68 204.179 18.68 204.179 18.68C204.119 18.74 204.059 18.8 203.999 18.86C203.759 18.8 203.639 18.68 203.399 18.62C203.459 18.5 203.519 18.44 203.579 18.38C203.819 18.32 203.879 18.14 203.879 17.9C204.119 18.08 204.359 18.14 204.659 18.08C204.959 17.96 205.319 17.9 205.619 17.84C205.739 17.78 205.739 17.72 205.739 17.66C205.739 17.54 205.739 17.48 205.799 17.42C205.619 17.3 205.619 17.3 205.799 17.18C205.859 17.06 205.979 16.94 206.099 16.82C206.219 16.76 206.339 16.76 206.459 16.82C206.579 16.88 206.699 16.76 206.879 16.7C207.119 16.58 207.239 16.4 207.299 16.16C207.359 16.04 207.239 15.98 207.119 15.98C206.939 15.92 206.699 15.92 206.519 16.04C206.399 16.1 206.279 16.16 206.099 16.22C205.979 16.34 205.919 16.28 205.799 16.16L205.739 16.1C205.739 16.04 205.679 15.98 205.559 15.92C205.619 15.86 205.619 15.8 205.619 15.74C205.679 15.62 205.619 15.5 205.499 15.5C205.199 15.5 204.899 15.56 204.719 15.86C204.599 15.98 204.359 15.98 204.239 15.86C204.179 15.8 204.059 15.62 203.939 15.56C203.639 15.26 203.639 15.2 203.819 14.9C203.879 14.84 203.879 14.78 203.939 14.72C203.999 14.72 203.999 14.72 203.999 14.66H204.059C204.179 14.54 204.239 14.54 204.299 14.48C204.479 14.48 204.599 14.48 204.779 14.48C204.779 14.48 204.779 14.48 204.839 14.48H204.959L205.019 14.42C205.019 14.36 204.959 14.36 204.959 14.36H204.779H204.719C204.599 14.36 204.479 14.3 204.419 14.36C204.299 14.36 204.239 14.36 203.999 14.54C203.939 14.54 203.939 14.54 203.879 14.48C203.699 14.48 203.579 14.3 203.579 14.18C203.579 13.82 203.699 13.52 203.759 13.22C204.299 11.3 204.719 9.26 205.499 7.4C205.559 7.1 205.559 6.8 205.499 6.56C205.439 6.26 205.379 6.02 205.319 5.72C205.199 5.42 205.079 5.12 205.019 4.82C204.839 4.16 204.539 3.68 203.999 3.26C203.759 3.02 203.519 2.84 203.339 2.6C203.219 2.54 203.039 2.6 202.979 2.66C202.979 2.78 202.859 2.9 202.859 3.02C202.379 4.4 201.899 5.84 201.539 7.34C201.419 7.7 201.359 8.06 201.239 8.36C200.819 9.62 200.639 10.94 200.039 12.14C199.919 12.38 199.859 12.68 199.799 12.92C199.679 13.34 199.559 13.76 199.439 14.24C199.319 14.9 198.959 15.5 198.659 16.1C198.539 16.28 198.419 16.4 198.179 16.4C197.939 16.34 197.699 16.34 197.459 16.34C197.159 16.52 196.919 16.34 196.679 16.28C196.499 16.22 196.379 16.22 196.199 16.22C195.779 16.16 195.359 16.22 194.879 16.22C194.459 16.22 194.039 16.22 193.559 16.22C193.139 16.22 192.719 16.22 192.239 16.28C191.699 16.28 191.159 16.28 190.619 16.16C189.719 16.04 188.759 15.98 187.859 15.8C187.739 15.8 187.499 15.92 187.499 16.04C187.379 16.58 187.199 17.06 187.499 17.6C187.559 17.78 187.559 17.96 187.559 18.14C187.559 18.38 187.679 18.56 187.859 18.68C187.979 18.74 188.039 18.92 188.039 19.1C188.099 19.28 188.099 19.46 188.219 19.64C188.279 19.94 188.459 20.12 188.699 20.3C189.179 20.54 189.659 20.72 190.199 20.72C190.439 20.72 190.679 20.78 190.919 20.84C191.159 20.96 191.519 21.02 191.819 21.02C192.119 21.02 192.479 21.02 192.779 21.02C193.139 21.02 193.499 20.84 193.859 20.9V20.96H193.919C193.919 20.96 193.979 20.96 193.979 20.9V20.84C193.979 20.84 193.979 20.84 194.039 20.78C194.099 20.78 194.099 20.72 194.159 20.66C194.219 20.72 194.279 20.78 194.339 20.84C194.399 20.96 194.579 21.02 194.759 20.96C195.059 20.84 195.359 20.78 195.659 20.78C196.079 20.78 196.439 20.78 196.799 20.54C196.859 20.54 196.919 20.6 196.919 20.6C196.979 20.6 197.039 20.6 197.039 20.66C197.279 20.9 197.519 21.2 197.399 21.62C197.339 21.86 197.339 22.16 197.279 22.4C197.039 23.24 196.739 24.02 196.559 24.86C196.439 25.04 196.379 25.28 196.379 25.52C196.379 25.7 196.379 25.94 196.319 26.12C196.139 26.54 196.199 27.02 195.959 27.5C195.899 27.62 195.959 27.8 195.899 27.98C195.839 28.52 195.839 29.12 195.599 29.72C195.539 29.84 195.539 29.96 195.539 30.02C195.539 30.44 195.479 30.86 195.299 31.22C195.179 31.64 195.299 32.12 195.059 32.48C194.939 32.72 194.939 32.96 195.059 33.2C195.179 33.44 195.059 33.68 194.999 33.92C194.939 34.16 194.999 34.34 194.999 34.58C195.059 34.88 195.119 35.18 195.119 35.42C194.939 36.68 194.999 37.88 194.999 39.14C194.999 39.32 194.999 39.56 195.059 39.74C195.119 39.98 195.119 40.28 195.179 40.52C195.239 41.12 195.359 41.66 195.599 42.14C195.659 42.26 195.659 42.38 195.659 42.5C195.599 42.74 195.599 42.86 195.779 43.04C195.959 43.16 195.959 43.28 195.959 43.46C196.019 43.64 195.959 43.82 195.959 44C195.959 44 195.959 44 195.899 44C195.779 44.06 195.719 44.18 195.779 44.3V44.36C195.779 44.36 195.779 44.36 195.779 44.42C195.779 44.42 195.779 44.48 195.839 44.48L195.899 44.42V44.36V44.3V44.24C195.899 44.18 195.899 44.18 195.899 44.12C195.959 44.12 195.959 44.12 195.959 44.12C196.019 44.06 196.019 44.06 196.019 44.06C196.079 44.06 196.079 44.12 196.139 44.12C196.439 44.36 196.439 44.36 196.319 44.78C196.259 44.9 196.259 44.96 196.379 45.02C196.439 45.08 196.559 45.14 196.679 45.2C196.679 45.08 196.799 44.96 196.919 44.9C197.039 44.84 197.219 44.9 197.279 45.02C197.279 45.14 197.339 45.32 197.399 45.44C197.459 45.74 197.639 45.92 197.879 46.04H197.939ZM206.159 14.42L206.099 14.36L206.159 14.42ZM206.279 15.68C206.279 15.68 206.339 15.68 206.339 15.62C206.339 15.62 206.339 15.62 206.339 15.56L206.159 15.62C206.219 15.62 206.219 15.62 206.279 15.68ZM205.439 16.04C205.439 16.04 205.439 16.04 205.499 16.04C205.499 15.98 205.499 15.98 205.499 15.98L205.439 16.04ZM205.799 17.18C205.799 17.18 205.799 17.18 205.799 17.12V17.18ZM205.799 17.36C205.919 17.3 205.919 17.24 205.799 17.18V17.36ZM205.799 17.42C205.799 17.42 205.799 17.42 205.799 17.36V17.42ZM194.399 37.52L194.459 37.46V37.28V37.22C194.459 37.16 194.459 37.1 194.459 36.98V36.92V36.74C194.459 36.68 194.399 36.68 194.399 36.68C194.339 36.68 194.339 36.68 194.339 36.74V37.04C194.339 37.04 194.339 37.1 194.339 37.16V37.46C194.339 37.46 194.339 37.52 194.399 37.52ZM194.399 38.54L194.459 38.42V38.3C194.459 38.18 194.459 38.12 194.459 38.06C194.459 38 194.459 38 194.459 38V37.94C194.459 37.88 194.399 37.88 194.399 37.88C194.339 37.88 194.339 37.88 194.339 37.94V38C194.339 38 194.339 38 194.339 38.06C194.339 38.12 194.339 38.12 194.339 38.18V38.42C194.339 38.42 194.339 38.48 194.399 38.48V38.54ZM194.579 39.44C194.579 39.38 194.639 39.32 194.699 39.26C194.639 39.14 194.579 39.08 194.519 38.96L194.459 38.9C194.459 38.9 194.459 38.84 194.399 38.84H194.339C194.279 38.96 194.339 38.96 194.339 39.02C194.339 39.08 194.339 39.08 194.339 39.08C194.279 39.2 194.339 39.32 194.459 39.38C194.459 39.38 194.519 39.44 194.579 39.44ZM195.119 43.04L195.179 42.98V42.92C195.179 42.86 195.179 42.86 195.179 42.8C195.119 42.62 194.999 42.44 194.939 42.26C194.939 42.2 194.879 42.2 194.879 42.2C194.819 42.2 194.819 42.2 194.819 42.26V42.32C194.819 42.56 194.879 42.74 194.999 42.92C194.999 42.92 194.999 42.92 195.059 42.98C195.059 42.98 195.059 43.04 195.119 43.04ZM196.739 45.32C196.679 45.26 196.679 45.26 196.679 45.2C196.619 45.2 196.619 45.26 196.619 45.26L196.739 45.32ZM196.799 45.32C196.739 45.32 196.739 45.32 196.739 45.32C196.739 45.32 196.739 45.32 196.799 45.32ZM212.887 42.56C213.187 42.5 213.487 42.5 213.787 42.38C213.907 42.38 213.907 42.14 214.087 42.2C214.687 42.26 215.227 41.96 215.647 41.48C215.827 41.3 216.067 41.12 216.247 40.94C216.607 40.7 216.907 40.4 217.207 40.04C217.807 39.38 218.347 38.66 218.767 37.94C219.007 37.64 219.187 37.34 219.307 36.98C219.667 36.5 219.967 35.96 220.207 35.42C220.867 34.46 221.167 33.38 221.527 32.24C221.587 31.94 221.707 31.64 221.767 31.34C221.887 30.68 221.947 30.08 222.067 29.42C222.247 28.82 222.067 28.16 222.127 27.5C221.947 26.9 222.007 26.18 221.767 25.52C221.587 24.98 221.407 24.38 221.287 23.78C221.167 23.3 220.987 22.82 220.747 22.34C220.567 22.1 220.387 21.86 220.327 21.5C220.267 21.44 220.207 21.32 220.087 21.2C219.967 20.96 219.787 20.78 219.607 20.54C219.367 20.24 219.127 19.94 218.887 19.58C218.527 19.4 218.287 18.98 217.927 18.68C217.867 18.62 217.747 18.56 217.627 18.5C217.267 18.74 217.087 18.2 216.787 18.26C216.607 18.26 216.427 18.2 216.307 18.14C215.947 17.96 215.527 18.02 215.167 18.08C214.627 18.26 214.087 18.38 213.667 18.8C213.547 18.92 213.367 18.98 213.247 19.1C213.007 19.34 212.647 19.46 212.527 19.88C212.467 20 212.287 20.06 212.167 20.18C212.107 20.24 211.987 20.36 211.987 20.48C211.927 20.78 211.747 20.96 211.507 21.14C211.387 21.26 211.327 21.44 211.327 21.68C211.387 21.8 211.327 21.92 211.267 21.98C211.087 22.04 211.027 22.16 210.907 22.34C210.727 22.76 210.487 23.12 210.367 23.54C210.247 24.08 210.067 24.62 209.707 25.04C209.647 25.4 209.467 25.64 209.167 25.82C208.867 26.06 208.807 26.42 208.627 26.72C208.687 26.84 208.747 26.96 208.807 27.08C208.867 27.14 208.747 27.26 208.627 27.26C208.387 27.2 208.207 27.26 208.087 27.44C207.847 27.92 207.607 28.34 207.367 28.82C207.187 29.18 207.127 29.48 207.187 29.84C207.187 30.2 207.127 30.5 207.007 30.8C206.887 30.98 206.767 31.16 206.767 31.34C206.647 32.18 206.407 32.96 206.467 33.86C206.407 34.88 206.647 35.9 206.947 36.86C207.127 37.34 207.307 37.76 207.667 38.12C207.847 38.42 208.087 38.72 208.267 39.02C208.507 39.26 208.807 39.56 208.927 39.86C209.107 40.22 209.467 40.34 209.647 40.64C209.887 41 210.187 41.24 210.547 41.42C210.787 41.54 210.967 41.78 211.147 42.02C211.207 42.08 211.327 42.14 211.447 42.2C211.627 42.26 211.807 42.38 211.987 42.32C212.287 42.32 212.467 42.44 212.647 42.56C212.707 42.56 212.827 42.62 212.887 42.56ZM211.267 37.94C211.147 37.94 211.087 37.94 211.027 37.94C210.787 37.88 210.547 37.7 210.487 37.46C210.427 37.22 210.427 36.92 210.367 36.62C210.367 36.2 210.487 35.78 210.427 35.36C210.427 34.88 210.487 34.46 210.667 34.04C210.727 33.92 210.727 33.8 210.727 33.68C210.847 32.78 211.147 31.94 211.627 31.1C211.927 30.5 212.107 29.78 212.347 29.12C212.407 29 212.407 28.88 212.407 28.76C212.407 28.52 212.407 28.28 212.407 28.04C212.347 27.44 212.587 26.96 213.007 26.54C213.187 26.3 213.487 26.12 213.607 25.82C213.847 25.22 214.387 24.8 214.807 24.32C215.287 23.78 215.887 23.42 216.547 23.12C217.027 22.94 217.567 22.82 218.047 22.82C218.347 22.82 218.587 22.94 218.767 23.18C218.887 23.36 218.947 23.54 219.067 23.72C219.127 23.9 219.187 24.02 219.187 24.2C219.127 24.8 219.127 25.4 219.127 26C219.187 26.78 219.127 27.56 218.827 28.34C218.767 28.4 218.767 28.46 218.827 28.52C218.887 28.82 218.767 29 218.587 29.18C218.467 29.36 218.467 29.54 218.407 29.66C218.407 29.66 218.407 29.66 218.407 29.72C218.287 29.78 218.227 29.84 218.227 29.9C218.227 29.96 218.227 29.96 218.227 29.96C217.867 31.1 217.207 32.06 216.607 33.02C216.247 33.56 215.887 34.1 215.527 34.64C214.927 35.42 214.387 36.14 213.667 36.8C213.247 37.22 212.707 37.52 212.167 37.76C211.867 37.94 211.567 37.94 211.267 37.94ZM219.967 28.34C219.907 28.4 219.907 28.34 219.907 28.22C219.907 28.22 219.967 28.22 219.967 28.16L220.027 28.28C220.027 28.28 220.027 28.34 219.967 28.34ZM218.527 29.84C218.467 29.84 218.467 29.84 218.467 29.84V29.78L218.527 29.84Z" fill="white"/>
</svg>
